G04 (created by PCBNEW (2013-07-07 BZR 4022)-stable) date 23.08.2017 13:54:42*
%MOIN*%
G04 Gerber Fmt 3.4, Leading zero omitted, Abs format*
%FSLAX34Y34*%
G01*
G70*
G90*
G04 APERTURE LIST*
%ADD10C,0.00590551*%
%ADD11C,0.011811*%
%ADD12C,0.015*%
%ADD13C,0.006*%
%ADD14C,0.012*%
%ADD15C,0.008*%
G04 APERTURE END LIST*
G54D10*
G54D11*
X51434Y-39845D02*
X51659Y-39845D01*
X51519Y-40239D02*
X51519Y-39732D01*
X51547Y-39676D01*
X51603Y-39648D01*
X51659Y-39648D01*
X51856Y-40239D02*
X51856Y-39845D01*
X51856Y-39957D02*
X51884Y-39901D01*
X51913Y-39873D01*
X51969Y-39845D01*
X52025Y-39845D01*
X52447Y-40210D02*
X52391Y-40239D01*
X52278Y-40239D01*
X52222Y-40210D01*
X52194Y-40154D01*
X52194Y-39929D01*
X52222Y-39873D01*
X52278Y-39845D01*
X52391Y-39845D01*
X52447Y-39873D01*
X52475Y-39929D01*
X52475Y-39985D01*
X52194Y-40042D01*
X52953Y-40210D02*
X52897Y-40239D01*
X52784Y-40239D01*
X52728Y-40210D01*
X52700Y-40154D01*
X52700Y-39929D01*
X52728Y-39873D01*
X52784Y-39845D01*
X52897Y-39845D01*
X52953Y-39873D01*
X52981Y-39929D01*
X52981Y-39985D01*
X52700Y-40042D01*
X53234Y-40014D02*
X53684Y-40014D01*
X53965Y-40239D02*
X53965Y-39845D01*
X53965Y-39901D02*
X53994Y-39873D01*
X54050Y-39845D01*
X54134Y-39845D01*
X54190Y-39873D01*
X54219Y-39929D01*
X54219Y-40239D01*
X54219Y-39929D02*
X54247Y-39873D01*
X54303Y-39845D01*
X54387Y-39845D01*
X54443Y-39873D01*
X54472Y-39929D01*
X54472Y-40239D01*
X54837Y-40239D02*
X54781Y-40210D01*
X54753Y-40182D01*
X54725Y-40126D01*
X54725Y-39957D01*
X54753Y-39901D01*
X54781Y-39873D01*
X54837Y-39845D01*
X54922Y-39845D01*
X54978Y-39873D01*
X55006Y-39901D01*
X55034Y-39957D01*
X55034Y-40126D01*
X55006Y-40182D01*
X54978Y-40210D01*
X54922Y-40239D01*
X54837Y-40239D01*
X55203Y-39845D02*
X55428Y-39845D01*
X55287Y-39648D02*
X55287Y-40154D01*
X55315Y-40210D01*
X55371Y-40239D01*
X55428Y-40239D01*
X55625Y-40239D02*
X55625Y-39845D01*
X55625Y-39648D02*
X55596Y-39676D01*
X55625Y-39704D01*
X55653Y-39676D01*
X55625Y-39648D01*
X55625Y-39704D01*
X55990Y-40239D02*
X55934Y-40210D01*
X55906Y-40182D01*
X55878Y-40126D01*
X55878Y-39957D01*
X55906Y-39901D01*
X55934Y-39873D01*
X55990Y-39845D01*
X56075Y-39845D01*
X56131Y-39873D01*
X56159Y-39901D01*
X56187Y-39957D01*
X56187Y-40126D01*
X56159Y-40182D01*
X56131Y-40210D01*
X56075Y-40239D01*
X55990Y-40239D01*
X56440Y-39845D02*
X56440Y-40239D01*
X56440Y-39901D02*
X56468Y-39873D01*
X56524Y-39845D01*
X56609Y-39845D01*
X56665Y-39873D01*
X56693Y-39929D01*
X56693Y-40239D01*
X57762Y-40239D02*
X57565Y-39957D01*
X57424Y-40239D02*
X57424Y-39648D01*
X57649Y-39648D01*
X57706Y-39676D01*
X57734Y-39704D01*
X57762Y-39760D01*
X57762Y-39845D01*
X57734Y-39901D01*
X57706Y-39929D01*
X57649Y-39957D01*
X57424Y-39957D01*
X58015Y-39929D02*
X58212Y-39929D01*
X58296Y-40239D02*
X58015Y-40239D01*
X58015Y-39648D01*
X58296Y-39648D01*
X58465Y-39648D02*
X58662Y-40239D01*
X58859Y-39648D01*
X59618Y-39648D02*
X59674Y-39648D01*
X59730Y-39676D01*
X59758Y-39704D01*
X59787Y-39760D01*
X59815Y-39873D01*
X59815Y-40014D01*
X59787Y-40126D01*
X59758Y-40182D01*
X59730Y-40210D01*
X59674Y-40239D01*
X59618Y-40239D01*
X59562Y-40210D01*
X59533Y-40182D01*
X59505Y-40126D01*
X59477Y-40014D01*
X59477Y-39873D01*
X59505Y-39760D01*
X59533Y-39704D01*
X59562Y-39676D01*
X59618Y-39648D01*
X60068Y-40182D02*
X60096Y-40210D01*
X60068Y-40239D01*
X60040Y-40210D01*
X60068Y-40182D01*
X60068Y-40239D01*
X60658Y-40239D02*
X60321Y-40239D01*
X60490Y-40239D02*
X60490Y-39648D01*
X60433Y-39732D01*
X60377Y-39789D01*
X60321Y-39817D01*
X52447Y-40790D02*
X52672Y-40790D01*
X52531Y-41183D02*
X52531Y-40677D01*
X52559Y-40621D01*
X52616Y-40593D01*
X52672Y-40593D01*
X52869Y-41183D02*
X52869Y-40790D01*
X52869Y-40902D02*
X52897Y-40846D01*
X52925Y-40818D01*
X52981Y-40790D01*
X53037Y-40790D01*
X53459Y-41155D02*
X53403Y-41183D01*
X53291Y-41183D01*
X53234Y-41155D01*
X53206Y-41099D01*
X53206Y-40874D01*
X53234Y-40818D01*
X53291Y-40790D01*
X53403Y-40790D01*
X53459Y-40818D01*
X53487Y-40874D01*
X53487Y-40930D01*
X53206Y-40987D01*
X53965Y-41155D02*
X53909Y-41183D01*
X53797Y-41183D01*
X53740Y-41155D01*
X53712Y-41099D01*
X53712Y-40874D01*
X53740Y-40818D01*
X53797Y-40790D01*
X53909Y-40790D01*
X53965Y-40818D01*
X53994Y-40874D01*
X53994Y-40930D01*
X53712Y-40987D01*
X54640Y-40790D02*
X54781Y-41183D01*
X54922Y-40790D02*
X54781Y-41183D01*
X54725Y-41324D01*
X54697Y-41352D01*
X54640Y-41380D01*
X55231Y-41183D02*
X55175Y-41155D01*
X55147Y-41127D01*
X55118Y-41071D01*
X55118Y-40902D01*
X55147Y-40846D01*
X55175Y-40818D01*
X55231Y-40790D01*
X55315Y-40790D01*
X55371Y-40818D01*
X55400Y-40846D01*
X55428Y-40902D01*
X55428Y-41071D01*
X55400Y-41127D01*
X55371Y-41155D01*
X55315Y-41183D01*
X55231Y-41183D01*
X55934Y-40790D02*
X55934Y-41183D01*
X55681Y-40790D02*
X55681Y-41099D01*
X55709Y-41155D01*
X55765Y-41183D01*
X55850Y-41183D01*
X55906Y-41155D01*
X55934Y-41127D01*
X56215Y-41183D02*
X56215Y-40790D01*
X56215Y-40902D02*
X56243Y-40846D01*
X56271Y-40818D01*
X56328Y-40790D01*
X56384Y-40790D01*
X57256Y-41155D02*
X57199Y-41183D01*
X57087Y-41183D01*
X57031Y-41155D01*
X57003Y-41099D01*
X57003Y-40874D01*
X57031Y-40818D01*
X57087Y-40790D01*
X57199Y-40790D01*
X57256Y-40818D01*
X57284Y-40874D01*
X57284Y-40930D01*
X57003Y-40987D01*
X57537Y-40958D02*
X57987Y-40958D01*
X58268Y-41183D02*
X58268Y-40593D01*
X58268Y-40818D02*
X58324Y-40790D01*
X58437Y-40790D01*
X58493Y-40818D01*
X58521Y-40846D01*
X58549Y-40902D01*
X58549Y-41071D01*
X58521Y-41127D01*
X58493Y-41155D01*
X58437Y-41183D01*
X58324Y-41183D01*
X58268Y-41155D01*
X58802Y-41183D02*
X58802Y-40790D01*
X58802Y-40593D02*
X58774Y-40621D01*
X58802Y-40649D01*
X58830Y-40621D01*
X58802Y-40593D01*
X58802Y-40649D01*
X59084Y-41183D02*
X59084Y-40593D01*
X59140Y-40958D02*
X59308Y-41183D01*
X59308Y-40790D02*
X59084Y-41015D01*
X59787Y-41155D02*
X59730Y-41183D01*
X59618Y-41183D01*
X59562Y-41155D01*
X59533Y-41099D01*
X59533Y-40874D01*
X59562Y-40818D01*
X59618Y-40790D01*
X59730Y-40790D01*
X59787Y-40818D01*
X59815Y-40874D01*
X59815Y-40930D01*
X59533Y-40987D01*
X60068Y-41127D02*
X60096Y-41155D01*
X60068Y-41183D01*
X60040Y-41155D01*
X60068Y-41127D01*
X60068Y-41183D01*
X60068Y-40958D02*
X60040Y-40621D01*
X60068Y-40593D01*
X60096Y-40621D01*
X60068Y-40958D01*
X60068Y-40593D01*
G54D12*
X53900Y-23050D02*
X54000Y-23100D01*
X55100Y-23050D02*
X55000Y-23100D01*
X53890Y-20955D02*
X54010Y-20900D01*
X53300Y-22000D02*
X53300Y-21800D01*
X53300Y-21800D02*
X53350Y-21600D01*
X53350Y-21600D02*
X53450Y-21400D01*
X53450Y-21400D02*
X53550Y-21250D01*
X53550Y-21250D02*
X53700Y-21100D01*
X53700Y-21100D02*
X53900Y-20950D01*
X55000Y-20900D02*
X55100Y-20950D01*
X53900Y-23050D02*
X53650Y-22900D01*
X53650Y-22900D02*
X53500Y-22650D01*
X53500Y-22650D02*
X53400Y-22500D01*
X53400Y-22500D02*
X53350Y-22300D01*
X53350Y-22300D02*
X53300Y-22100D01*
X53300Y-22100D02*
X53300Y-22000D01*
X55100Y-23050D02*
X55100Y-20950D01*
X51000Y-21969D02*
X51000Y-22369D01*
X51000Y-19969D02*
X51000Y-19569D01*
X50500Y-21969D02*
X50500Y-19969D01*
X50500Y-19969D02*
X51500Y-19969D01*
X51500Y-19969D02*
X51500Y-21969D01*
X51500Y-21969D02*
X50500Y-21969D01*
X52250Y-29781D02*
X52250Y-29381D01*
X52250Y-31781D02*
X52250Y-32181D01*
X52750Y-29781D02*
X52750Y-31781D01*
X52750Y-31781D02*
X51750Y-31781D01*
X51750Y-31781D02*
X51750Y-29781D01*
X51750Y-29781D02*
X52750Y-29781D01*
X53500Y-29781D02*
X53500Y-29381D01*
X53500Y-31781D02*
X53500Y-32181D01*
X54000Y-29781D02*
X54000Y-31781D01*
X54000Y-31781D02*
X53000Y-31781D01*
X53000Y-31781D02*
X53000Y-29781D01*
X53000Y-29781D02*
X54000Y-29781D01*
X66750Y-23969D02*
X66750Y-24369D01*
X66750Y-21969D02*
X66750Y-21569D01*
X66250Y-23969D02*
X66250Y-21969D01*
X66250Y-21969D02*
X67250Y-21969D01*
X67250Y-21969D02*
X67250Y-23969D01*
X67250Y-23969D02*
X66250Y-23969D01*
X51000Y-29781D02*
X51000Y-29381D01*
X51000Y-31781D02*
X51000Y-32181D01*
X51500Y-29781D02*
X51500Y-31781D01*
X51500Y-31781D02*
X50500Y-31781D01*
X50500Y-31781D02*
X50500Y-29781D01*
X50500Y-29781D02*
X51500Y-29781D01*
X68000Y-23969D02*
X68000Y-24369D01*
X68000Y-21969D02*
X68000Y-21569D01*
X67500Y-23969D02*
X67500Y-21969D01*
X67500Y-21969D02*
X68500Y-21969D01*
X68500Y-21969D02*
X68500Y-23969D01*
X68500Y-23969D02*
X67500Y-23969D01*
X62281Y-22500D02*
X61881Y-22500D01*
X64281Y-22500D02*
X64681Y-22500D01*
X62281Y-22000D02*
X64281Y-22000D01*
X64281Y-22000D02*
X64281Y-23000D01*
X64281Y-23000D02*
X62281Y-23000D01*
X62281Y-23000D02*
X62281Y-22000D01*
X64269Y-25000D02*
X64669Y-25000D01*
X62269Y-25000D02*
X61869Y-25000D01*
X64269Y-25500D02*
X62269Y-25500D01*
X62269Y-25500D02*
X62269Y-24500D01*
X62269Y-24500D02*
X64269Y-24500D01*
X64269Y-24500D02*
X64269Y-25500D01*
X62281Y-23750D02*
X61881Y-23750D01*
X64281Y-23750D02*
X64681Y-23750D01*
X62281Y-23250D02*
X64281Y-23250D01*
X64281Y-23250D02*
X64281Y-24250D01*
X64281Y-24250D02*
X62281Y-24250D01*
X62281Y-24250D02*
X62281Y-23250D01*
X56000Y-22031D02*
X56000Y-21631D01*
X56000Y-24031D02*
X56000Y-24431D01*
X56500Y-22031D02*
X56500Y-24031D01*
X56500Y-24031D02*
X55500Y-24031D01*
X55500Y-24031D02*
X55500Y-22031D01*
X55500Y-22031D02*
X56500Y-22031D01*
X52500Y-20031D02*
X52500Y-19631D01*
X52500Y-22031D02*
X52500Y-22431D01*
X53000Y-20031D02*
X53000Y-22031D01*
X53000Y-22031D02*
X52000Y-22031D01*
X52000Y-22031D02*
X52000Y-20031D01*
X52000Y-20031D02*
X53000Y-20031D01*
X64269Y-28800D02*
X64669Y-28800D01*
X62269Y-28800D02*
X61869Y-28800D01*
X64269Y-29300D02*
X62269Y-29300D01*
X62269Y-29300D02*
X62269Y-28300D01*
X62269Y-28300D02*
X64269Y-28300D01*
X64269Y-28300D02*
X64269Y-29300D01*
X62281Y-27500D02*
X61881Y-27500D01*
X64281Y-27500D02*
X64681Y-27500D01*
X62281Y-27000D02*
X64281Y-27000D01*
X64281Y-27000D02*
X64281Y-28000D01*
X64281Y-28000D02*
X62281Y-28000D01*
X62281Y-28000D02*
X62281Y-27000D01*
X64969Y-41000D02*
X65369Y-41000D01*
X62969Y-41000D02*
X62569Y-41000D01*
X64969Y-41500D02*
X62969Y-41500D01*
X62969Y-41500D02*
X62969Y-40500D01*
X62969Y-40500D02*
X64969Y-40500D01*
X64969Y-40500D02*
X64969Y-41500D01*
X64969Y-39750D02*
X65369Y-39750D01*
X62969Y-39750D02*
X62569Y-39750D01*
X64969Y-40250D02*
X62969Y-40250D01*
X62969Y-40250D02*
X62969Y-39250D01*
X62969Y-39250D02*
X64969Y-39250D01*
X64969Y-39250D02*
X64969Y-40250D01*
X69250Y-21981D02*
X69250Y-21581D01*
X69250Y-23981D02*
X69250Y-24381D01*
X69750Y-21981D02*
X69750Y-23981D01*
X69750Y-23981D02*
X68750Y-23981D01*
X68750Y-23981D02*
X68750Y-21981D01*
X68750Y-21981D02*
X69750Y-21981D01*
X62281Y-26250D02*
X61881Y-26250D01*
X64281Y-26250D02*
X64681Y-26250D01*
X62281Y-25750D02*
X64281Y-25750D01*
X64281Y-25750D02*
X64281Y-26750D01*
X64281Y-26750D02*
X62281Y-26750D01*
X62281Y-26750D02*
X62281Y-25750D01*
G54D13*
X60000Y-20500D02*
X60000Y-21500D01*
X60000Y-21500D02*
X57000Y-21500D01*
X57000Y-21500D02*
X57000Y-20500D01*
X57000Y-20500D02*
X60000Y-20500D01*
X59000Y-21500D02*
X59000Y-20500D01*
X54000Y-34000D02*
X54000Y-35000D01*
X54000Y-35000D02*
X52000Y-35000D01*
X52000Y-35000D02*
X52000Y-34000D01*
X52000Y-34000D02*
X54000Y-34000D01*
X64000Y-21500D02*
X64000Y-20500D01*
X64000Y-20500D02*
X66000Y-20500D01*
X66000Y-20500D02*
X66000Y-21500D01*
X66000Y-21500D02*
X64000Y-21500D01*
X61000Y-21500D02*
X61000Y-20500D01*
X61000Y-20500D02*
X63000Y-20500D01*
X63000Y-20500D02*
X63000Y-21500D01*
X63000Y-21500D02*
X61000Y-21500D01*
G54D14*
X66500Y-27500D02*
X66800Y-27500D01*
X66800Y-27500D02*
X66800Y-27900D01*
X66800Y-27900D02*
X69200Y-27900D01*
X69200Y-27900D02*
X69200Y-27500D01*
X69200Y-27500D02*
X69500Y-27500D01*
X69200Y-27500D02*
X69200Y-27100D01*
X69200Y-27100D02*
X66800Y-27100D01*
X66800Y-27100D02*
X66800Y-27500D01*
X67000Y-27900D02*
X67000Y-27100D01*
X67100Y-27100D02*
X67100Y-27900D01*
X56500Y-29250D02*
X56800Y-29250D01*
X56800Y-29250D02*
X56800Y-29650D01*
X56800Y-29650D02*
X59200Y-29650D01*
X59200Y-29650D02*
X59200Y-29250D01*
X59200Y-29250D02*
X59500Y-29250D01*
X59200Y-29250D02*
X59200Y-28850D01*
X59200Y-28850D02*
X56800Y-28850D01*
X56800Y-28850D02*
X56800Y-29250D01*
X57000Y-29650D02*
X57000Y-28850D01*
X57100Y-28850D02*
X57100Y-29650D01*
X56500Y-28250D02*
X56800Y-28250D01*
X56800Y-28250D02*
X56800Y-28650D01*
X56800Y-28650D02*
X59200Y-28650D01*
X59200Y-28650D02*
X59200Y-28250D01*
X59200Y-28250D02*
X59500Y-28250D01*
X59200Y-28250D02*
X59200Y-27850D01*
X59200Y-27850D02*
X56800Y-27850D01*
X56800Y-27850D02*
X56800Y-28250D01*
X57000Y-28650D02*
X57000Y-27850D01*
X57100Y-27850D02*
X57100Y-28650D01*
X59500Y-27250D02*
X59200Y-27250D01*
X59200Y-27250D02*
X59200Y-26850D01*
X59200Y-26850D02*
X56800Y-26850D01*
X56800Y-26850D02*
X56800Y-27250D01*
X56800Y-27250D02*
X56500Y-27250D01*
X56800Y-27250D02*
X56800Y-27650D01*
X56800Y-27650D02*
X59200Y-27650D01*
X59200Y-27650D02*
X59200Y-27250D01*
X59000Y-26850D02*
X59000Y-27650D01*
X58900Y-27650D02*
X58900Y-26850D01*
X59500Y-26250D02*
X59200Y-26250D01*
X59200Y-26250D02*
X59200Y-25850D01*
X59200Y-25850D02*
X56800Y-25850D01*
X56800Y-25850D02*
X56800Y-26250D01*
X56800Y-26250D02*
X56500Y-26250D01*
X56800Y-26250D02*
X56800Y-26650D01*
X56800Y-26650D02*
X59200Y-26650D01*
X59200Y-26650D02*
X59200Y-26250D01*
X59000Y-25850D02*
X59000Y-26650D01*
X58900Y-26650D02*
X58900Y-25850D01*
X67750Y-42750D02*
X67750Y-42450D01*
X67750Y-42450D02*
X68150Y-42450D01*
X68150Y-42450D02*
X68150Y-40050D01*
X68150Y-40050D02*
X67750Y-40050D01*
X67750Y-40050D02*
X67750Y-39750D01*
X67750Y-40050D02*
X67350Y-40050D01*
X67350Y-40050D02*
X67350Y-42450D01*
X67350Y-42450D02*
X67750Y-42450D01*
X68150Y-42250D02*
X67350Y-42250D01*
X67350Y-42150D02*
X68150Y-42150D01*
G54D12*
X60000Y-24250D02*
X60000Y-23250D01*
X60000Y-23250D02*
X57000Y-23250D01*
X57000Y-23250D02*
X57000Y-24250D01*
X57000Y-24250D02*
X60000Y-24250D01*
X60000Y-22750D02*
X60000Y-21750D01*
X60000Y-21750D02*
X57000Y-21750D01*
X57000Y-21750D02*
X57000Y-22750D01*
X57000Y-22750D02*
X60000Y-22750D01*
X69750Y-26750D02*
X69750Y-25750D01*
X69750Y-25750D02*
X66750Y-25750D01*
X66750Y-25750D02*
X66750Y-26750D01*
X66750Y-26750D02*
X69750Y-26750D01*
X51200Y-36150D02*
X51100Y-36300D01*
X53300Y-37410D02*
X53380Y-37225D01*
X53350Y-36205D02*
X53380Y-36275D01*
X51205Y-37390D02*
X51135Y-37225D01*
X52250Y-38000D02*
X52050Y-38000D01*
X52050Y-38000D02*
X51850Y-37950D01*
X51850Y-37950D02*
X51650Y-37850D01*
X51650Y-37850D02*
X51500Y-37750D01*
X51500Y-37750D02*
X51350Y-37600D01*
X51350Y-37600D02*
X51200Y-37400D01*
X53300Y-37400D02*
X53150Y-37650D01*
X53150Y-37650D02*
X52900Y-37800D01*
X52900Y-37800D02*
X52750Y-37900D01*
X52750Y-37900D02*
X52550Y-37950D01*
X52550Y-37950D02*
X52350Y-38000D01*
X52350Y-38000D02*
X52250Y-38000D01*
X53300Y-36150D02*
X53350Y-36250D01*
X53300Y-36150D02*
X51200Y-36150D01*
X69550Y-20200D02*
X69650Y-20050D01*
X67450Y-18940D02*
X67370Y-19125D01*
X67400Y-20145D02*
X67370Y-20075D01*
X69545Y-18960D02*
X69615Y-19125D01*
X68500Y-18350D02*
X68700Y-18350D01*
X68700Y-18350D02*
X68900Y-18400D01*
X68900Y-18400D02*
X69100Y-18500D01*
X69100Y-18500D02*
X69250Y-18600D01*
X69250Y-18600D02*
X69400Y-18750D01*
X69400Y-18750D02*
X69550Y-18950D01*
X67450Y-18950D02*
X67600Y-18700D01*
X67600Y-18700D02*
X67850Y-18550D01*
X67850Y-18550D02*
X68000Y-18450D01*
X68000Y-18450D02*
X68200Y-18400D01*
X68200Y-18400D02*
X68400Y-18350D01*
X68400Y-18350D02*
X68500Y-18350D01*
X67450Y-20200D02*
X67400Y-20100D01*
X67450Y-20200D02*
X69550Y-20200D01*
X50950Y-23900D02*
X50850Y-24050D01*
X53050Y-25160D02*
X53130Y-24975D01*
X53100Y-23955D02*
X53130Y-24025D01*
X50955Y-25140D02*
X50885Y-24975D01*
X52000Y-25750D02*
X51800Y-25750D01*
X51800Y-25750D02*
X51600Y-25700D01*
X51600Y-25700D02*
X51400Y-25600D01*
X51400Y-25600D02*
X51250Y-25500D01*
X51250Y-25500D02*
X51100Y-25350D01*
X51100Y-25350D02*
X50950Y-25150D01*
X53050Y-25150D02*
X52900Y-25400D01*
X52900Y-25400D02*
X52650Y-25550D01*
X52650Y-25550D02*
X52500Y-25650D01*
X52500Y-25650D02*
X52300Y-25700D01*
X52300Y-25700D02*
X52100Y-25750D01*
X52100Y-25750D02*
X52000Y-25750D01*
X53050Y-23900D02*
X53100Y-24000D01*
X53050Y-23900D02*
X50950Y-23900D01*
X53650Y-27050D02*
X53800Y-27150D01*
X54910Y-24950D02*
X54725Y-24870D01*
X53705Y-24900D02*
X53775Y-24870D01*
X54890Y-27045D02*
X54725Y-27115D01*
X55500Y-26000D02*
X55500Y-26200D01*
X55500Y-26200D02*
X55450Y-26400D01*
X55450Y-26400D02*
X55350Y-26600D01*
X55350Y-26600D02*
X55250Y-26750D01*
X55250Y-26750D02*
X55100Y-26900D01*
X55100Y-26900D02*
X54900Y-27050D01*
X54900Y-24950D02*
X55150Y-25100D01*
X55150Y-25100D02*
X55300Y-25350D01*
X55300Y-25350D02*
X55400Y-25500D01*
X55400Y-25500D02*
X55450Y-25700D01*
X55450Y-25700D02*
X55500Y-25900D01*
X55500Y-25900D02*
X55500Y-26000D01*
X53650Y-24950D02*
X53750Y-24900D01*
X53650Y-24950D02*
X53650Y-27050D01*
G54D10*
X53956Y-20468D02*
X53464Y-20468D01*
X53464Y-20468D02*
X53366Y-20468D01*
X53366Y-20468D02*
X53366Y-15744D01*
X53366Y-15744D02*
X53956Y-15744D01*
X53956Y-15744D02*
X60059Y-15744D01*
X60059Y-15744D02*
X60059Y-18500D01*
X60059Y-18500D02*
X60059Y-20468D01*
X60059Y-20468D02*
X53956Y-20468D01*
X53956Y-20468D02*
X53956Y-18500D01*
X53956Y-18500D02*
X53956Y-15744D01*
X60956Y-20468D02*
X60464Y-20468D01*
X60464Y-20468D02*
X60366Y-20468D01*
X60366Y-20468D02*
X60366Y-15744D01*
X60366Y-15744D02*
X60956Y-15744D01*
X60956Y-15744D02*
X67059Y-15744D01*
X67059Y-15744D02*
X67059Y-18500D01*
X67059Y-18500D02*
X67059Y-20468D01*
X67059Y-20468D02*
X60956Y-20468D01*
X60956Y-20468D02*
X60956Y-18500D01*
X60956Y-18500D02*
X60956Y-15744D01*
X66543Y-41781D02*
X67035Y-41781D01*
X67035Y-41781D02*
X67133Y-41781D01*
X67133Y-41781D02*
X67133Y-46505D01*
X67133Y-46505D02*
X66543Y-46505D01*
X66543Y-46505D02*
X60440Y-46505D01*
X60440Y-46505D02*
X60440Y-43750D01*
X60440Y-43750D02*
X60440Y-41781D01*
X60440Y-41781D02*
X66543Y-41781D01*
X66543Y-41781D02*
X66543Y-43750D01*
X66543Y-43750D02*
X66543Y-46505D01*
X59543Y-41781D02*
X60035Y-41781D01*
X60035Y-41781D02*
X60133Y-41781D01*
X60133Y-41781D02*
X60133Y-46505D01*
X60133Y-46505D02*
X59543Y-46505D01*
X59543Y-46505D02*
X53440Y-46505D01*
X53440Y-46505D02*
X53440Y-43750D01*
X53440Y-43750D02*
X53440Y-41781D01*
X53440Y-41781D02*
X59543Y-41781D01*
X59543Y-41781D02*
X59543Y-43750D01*
X59543Y-43750D02*
X59543Y-46505D01*
G54D12*
X53050Y-28100D02*
X53150Y-27950D01*
X50950Y-26840D02*
X50870Y-27025D01*
X50900Y-28045D02*
X50870Y-27975D01*
X53045Y-26860D02*
X53115Y-27025D01*
X52000Y-26250D02*
X52200Y-26250D01*
X52200Y-26250D02*
X52400Y-26300D01*
X52400Y-26300D02*
X52600Y-26400D01*
X52600Y-26400D02*
X52750Y-26500D01*
X52750Y-26500D02*
X52900Y-26650D01*
X52900Y-26650D02*
X53050Y-26850D01*
X50950Y-26850D02*
X51100Y-26600D01*
X51100Y-26600D02*
X51350Y-26450D01*
X51350Y-26450D02*
X51500Y-26350D01*
X51500Y-26350D02*
X51700Y-26300D01*
X51700Y-26300D02*
X51900Y-26250D01*
X51900Y-26250D02*
X52000Y-26250D01*
X50950Y-28100D02*
X50900Y-28000D01*
X50950Y-28100D02*
X53050Y-28100D01*
G54D10*
X54250Y-32000D02*
X54250Y-39000D01*
X54250Y-39000D02*
X68250Y-39000D01*
X68250Y-39000D02*
X68250Y-32000D01*
X68250Y-32000D02*
X54250Y-32000D01*
X53996Y-22037D02*
X53978Y-22074D01*
X53940Y-22112D01*
X53884Y-22168D01*
X53865Y-22206D01*
X53865Y-22243D01*
X53959Y-22224D02*
X53940Y-22262D01*
X53903Y-22299D01*
X53828Y-22318D01*
X53696Y-22318D01*
X53621Y-22299D01*
X53584Y-22262D01*
X53565Y-22224D01*
X53565Y-22149D01*
X53584Y-22112D01*
X53621Y-22074D01*
X53696Y-22056D01*
X53828Y-22056D01*
X53903Y-22074D01*
X53940Y-22112D01*
X53959Y-22149D01*
X53959Y-22224D01*
X53603Y-21906D02*
X53584Y-21887D01*
X53565Y-21850D01*
X53565Y-21756D01*
X53584Y-21718D01*
X53603Y-21700D01*
X53640Y-21681D01*
X53678Y-21681D01*
X53734Y-21700D01*
X53959Y-21925D01*
X53959Y-21681D01*
G54D14*
X51342Y-21100D02*
X51057Y-21300D01*
X51342Y-21442D02*
X50742Y-21442D01*
X50742Y-21214D01*
X50771Y-21157D01*
X50800Y-21128D01*
X50857Y-21100D01*
X50942Y-21100D01*
X51000Y-21128D01*
X51028Y-21157D01*
X51057Y-21214D01*
X51057Y-21442D01*
X50742Y-20900D02*
X50742Y-20528D01*
X50971Y-20728D01*
X50971Y-20642D01*
X51000Y-20585D01*
X51028Y-20557D01*
X51085Y-20528D01*
X51228Y-20528D01*
X51285Y-20557D01*
X51314Y-20585D01*
X51342Y-20642D01*
X51342Y-20814D01*
X51314Y-20871D01*
X51285Y-20900D01*
X52542Y-31185D02*
X52257Y-31385D01*
X52542Y-31528D02*
X51942Y-31528D01*
X51942Y-31300D01*
X51971Y-31242D01*
X52000Y-31214D01*
X52057Y-31185D01*
X52142Y-31185D01*
X52200Y-31214D01*
X52228Y-31242D01*
X52257Y-31300D01*
X52257Y-31528D01*
X52542Y-30614D02*
X52542Y-30957D01*
X52542Y-30785D02*
X51942Y-30785D01*
X52028Y-30842D01*
X52085Y-30900D01*
X52114Y-30957D01*
X51942Y-30414D02*
X51942Y-30042D01*
X52171Y-30242D01*
X52171Y-30157D01*
X52200Y-30100D01*
X52228Y-30071D01*
X52285Y-30042D01*
X52428Y-30042D01*
X52485Y-30071D01*
X52514Y-30100D01*
X52542Y-30157D01*
X52542Y-30328D01*
X52514Y-30385D01*
X52485Y-30414D01*
X53842Y-31185D02*
X53557Y-31385D01*
X53842Y-31528D02*
X53242Y-31528D01*
X53242Y-31300D01*
X53271Y-31242D01*
X53300Y-31214D01*
X53357Y-31185D01*
X53442Y-31185D01*
X53500Y-31214D01*
X53528Y-31242D01*
X53557Y-31300D01*
X53557Y-31528D01*
X53842Y-30614D02*
X53842Y-30957D01*
X53842Y-30785D02*
X53242Y-30785D01*
X53328Y-30842D01*
X53385Y-30900D01*
X53414Y-30957D01*
X53242Y-30071D02*
X53242Y-30357D01*
X53528Y-30385D01*
X53500Y-30357D01*
X53471Y-30300D01*
X53471Y-30157D01*
X53500Y-30100D01*
X53528Y-30071D01*
X53585Y-30042D01*
X53728Y-30042D01*
X53785Y-30071D01*
X53814Y-30100D01*
X53842Y-30157D01*
X53842Y-30300D01*
X53814Y-30357D01*
X53785Y-30385D01*
X67042Y-23385D02*
X66757Y-23585D01*
X67042Y-23728D02*
X66442Y-23728D01*
X66442Y-23500D01*
X66471Y-23442D01*
X66500Y-23414D01*
X66557Y-23385D01*
X66642Y-23385D01*
X66700Y-23414D01*
X66728Y-23442D01*
X66757Y-23500D01*
X66757Y-23728D01*
X67042Y-22814D02*
X67042Y-23157D01*
X67042Y-22985D02*
X66442Y-22985D01*
X66528Y-23042D01*
X66585Y-23100D01*
X66614Y-23157D01*
X66442Y-22614D02*
X66442Y-22214D01*
X67042Y-22471D01*
X51342Y-31185D02*
X51057Y-31385D01*
X51342Y-31528D02*
X50742Y-31528D01*
X50742Y-31300D01*
X50771Y-31242D01*
X50800Y-31214D01*
X50857Y-31185D01*
X50942Y-31185D01*
X51000Y-31214D01*
X51028Y-31242D01*
X51057Y-31300D01*
X51057Y-31528D01*
X51342Y-30614D02*
X51342Y-30957D01*
X51342Y-30785D02*
X50742Y-30785D01*
X50828Y-30842D01*
X50885Y-30900D01*
X50914Y-30957D01*
X50742Y-30100D02*
X50742Y-30214D01*
X50771Y-30271D01*
X50800Y-30300D01*
X50885Y-30357D01*
X51000Y-30385D01*
X51228Y-30385D01*
X51285Y-30357D01*
X51314Y-30328D01*
X51342Y-30271D01*
X51342Y-30157D01*
X51314Y-30100D01*
X51285Y-30071D01*
X51228Y-30042D01*
X51085Y-30042D01*
X51028Y-30071D01*
X51000Y-30100D01*
X50971Y-30157D01*
X50971Y-30271D01*
X51000Y-30328D01*
X51028Y-30357D01*
X51085Y-30385D01*
X68342Y-23100D02*
X68057Y-23300D01*
X68342Y-23442D02*
X67742Y-23442D01*
X67742Y-23214D01*
X67771Y-23157D01*
X67800Y-23128D01*
X67857Y-23100D01*
X67942Y-23100D01*
X68000Y-23128D01*
X68028Y-23157D01*
X68057Y-23214D01*
X68057Y-23442D01*
X67942Y-22585D02*
X68342Y-22585D01*
X67714Y-22728D02*
X68142Y-22871D01*
X68142Y-22500D01*
X63200Y-22842D02*
X63000Y-22557D01*
X62857Y-22842D02*
X62857Y-22242D01*
X63085Y-22242D01*
X63142Y-22271D01*
X63171Y-22300D01*
X63200Y-22357D01*
X63200Y-22442D01*
X63171Y-22500D01*
X63142Y-22528D01*
X63085Y-22557D01*
X62857Y-22557D01*
X63542Y-22500D02*
X63485Y-22471D01*
X63457Y-22442D01*
X63428Y-22385D01*
X63428Y-22357D01*
X63457Y-22300D01*
X63485Y-22271D01*
X63542Y-22242D01*
X63657Y-22242D01*
X63714Y-22271D01*
X63742Y-22300D01*
X63771Y-22357D01*
X63771Y-22385D01*
X63742Y-22442D01*
X63714Y-22471D01*
X63657Y-22500D01*
X63542Y-22500D01*
X63485Y-22528D01*
X63457Y-22557D01*
X63428Y-22614D01*
X63428Y-22728D01*
X63457Y-22785D01*
X63485Y-22814D01*
X63542Y-22842D01*
X63657Y-22842D01*
X63714Y-22814D01*
X63742Y-22785D01*
X63771Y-22728D01*
X63771Y-22614D01*
X63742Y-22557D01*
X63714Y-22528D01*
X63657Y-22500D01*
X63250Y-25342D02*
X63050Y-25057D01*
X62907Y-25342D02*
X62907Y-24742D01*
X63135Y-24742D01*
X63192Y-24771D01*
X63221Y-24800D01*
X63250Y-24857D01*
X63250Y-24942D01*
X63221Y-25000D01*
X63192Y-25028D01*
X63135Y-25057D01*
X62907Y-25057D01*
X63450Y-24742D02*
X63850Y-24742D01*
X63592Y-25342D01*
X63200Y-24042D02*
X63000Y-23757D01*
X62857Y-24042D02*
X62857Y-23442D01*
X63085Y-23442D01*
X63142Y-23471D01*
X63171Y-23500D01*
X63200Y-23557D01*
X63200Y-23642D01*
X63171Y-23700D01*
X63142Y-23728D01*
X63085Y-23757D01*
X62857Y-23757D01*
X63485Y-24042D02*
X63600Y-24042D01*
X63657Y-24014D01*
X63685Y-23985D01*
X63742Y-23900D01*
X63771Y-23785D01*
X63771Y-23557D01*
X63742Y-23500D01*
X63714Y-23471D01*
X63657Y-23442D01*
X63542Y-23442D01*
X63485Y-23471D01*
X63457Y-23500D01*
X63428Y-23557D01*
X63428Y-23700D01*
X63457Y-23757D01*
X63485Y-23785D01*
X63542Y-23814D01*
X63657Y-23814D01*
X63714Y-23785D01*
X63742Y-23757D01*
X63771Y-23700D01*
X56342Y-23100D02*
X56057Y-23300D01*
X56342Y-23442D02*
X55742Y-23442D01*
X55742Y-23214D01*
X55771Y-23157D01*
X55800Y-23128D01*
X55857Y-23100D01*
X55942Y-23100D01*
X56000Y-23128D01*
X56028Y-23157D01*
X56057Y-23214D01*
X56057Y-23442D01*
X55742Y-22557D02*
X55742Y-22842D01*
X56028Y-22871D01*
X56000Y-22842D01*
X55971Y-22785D01*
X55971Y-22642D01*
X56000Y-22585D01*
X56028Y-22557D01*
X56085Y-22528D01*
X56228Y-22528D01*
X56285Y-22557D01*
X56314Y-22585D01*
X56342Y-22642D01*
X56342Y-22785D01*
X56314Y-22842D01*
X56285Y-22871D01*
X52742Y-21100D02*
X52457Y-21300D01*
X52742Y-21442D02*
X52142Y-21442D01*
X52142Y-21214D01*
X52171Y-21157D01*
X52200Y-21128D01*
X52257Y-21100D01*
X52342Y-21100D01*
X52400Y-21128D01*
X52428Y-21157D01*
X52457Y-21214D01*
X52457Y-21442D01*
X52200Y-20871D02*
X52171Y-20842D01*
X52142Y-20785D01*
X52142Y-20642D01*
X52171Y-20585D01*
X52200Y-20557D01*
X52257Y-20528D01*
X52314Y-20528D01*
X52400Y-20557D01*
X52742Y-20900D01*
X52742Y-20528D01*
X62864Y-29092D02*
X62664Y-28807D01*
X62521Y-29092D02*
X62521Y-28492D01*
X62750Y-28492D01*
X62807Y-28521D01*
X62835Y-28550D01*
X62864Y-28607D01*
X62864Y-28692D01*
X62835Y-28750D01*
X62807Y-28778D01*
X62750Y-28807D01*
X62521Y-28807D01*
X63435Y-29092D02*
X63092Y-29092D01*
X63264Y-29092D02*
X63264Y-28492D01*
X63207Y-28578D01*
X63150Y-28635D01*
X63092Y-28664D01*
X63807Y-28492D02*
X63864Y-28492D01*
X63921Y-28521D01*
X63950Y-28550D01*
X63978Y-28607D01*
X64007Y-28721D01*
X64007Y-28864D01*
X63978Y-28978D01*
X63950Y-29035D01*
X63921Y-29064D01*
X63864Y-29092D01*
X63807Y-29092D01*
X63750Y-29064D01*
X63721Y-29035D01*
X63692Y-28978D01*
X63664Y-28864D01*
X63664Y-28721D01*
X63692Y-28607D01*
X63721Y-28550D01*
X63750Y-28521D01*
X63807Y-28492D01*
X62914Y-27842D02*
X62714Y-27557D01*
X62571Y-27842D02*
X62571Y-27242D01*
X62800Y-27242D01*
X62857Y-27271D01*
X62885Y-27300D01*
X62914Y-27357D01*
X62914Y-27442D01*
X62885Y-27500D01*
X62857Y-27528D01*
X62800Y-27557D01*
X62571Y-27557D01*
X63485Y-27842D02*
X63142Y-27842D01*
X63314Y-27842D02*
X63314Y-27242D01*
X63257Y-27328D01*
X63200Y-27385D01*
X63142Y-27414D01*
X64057Y-27842D02*
X63714Y-27842D01*
X63885Y-27842D02*
X63885Y-27242D01*
X63828Y-27328D01*
X63771Y-27385D01*
X63714Y-27414D01*
X63514Y-41342D02*
X63314Y-41057D01*
X63171Y-41342D02*
X63171Y-40742D01*
X63400Y-40742D01*
X63457Y-40771D01*
X63485Y-40800D01*
X63514Y-40857D01*
X63514Y-40942D01*
X63485Y-41000D01*
X63457Y-41028D01*
X63400Y-41057D01*
X63171Y-41057D01*
X64085Y-41342D02*
X63742Y-41342D01*
X63914Y-41342D02*
X63914Y-40742D01*
X63857Y-40828D01*
X63800Y-40885D01*
X63742Y-40914D01*
X64600Y-40942D02*
X64600Y-41342D01*
X64457Y-40714D02*
X64314Y-41142D01*
X64685Y-41142D01*
X63614Y-40042D02*
X63414Y-39757D01*
X63271Y-40042D02*
X63271Y-39442D01*
X63500Y-39442D01*
X63557Y-39471D01*
X63585Y-39500D01*
X63614Y-39557D01*
X63614Y-39642D01*
X63585Y-39700D01*
X63557Y-39728D01*
X63500Y-39757D01*
X63271Y-39757D01*
X64185Y-40042D02*
X63842Y-40042D01*
X64014Y-40042D02*
X64014Y-39442D01*
X63957Y-39528D01*
X63900Y-39585D01*
X63842Y-39614D01*
X64414Y-39500D02*
X64442Y-39471D01*
X64500Y-39442D01*
X64642Y-39442D01*
X64700Y-39471D01*
X64728Y-39500D01*
X64757Y-39557D01*
X64757Y-39614D01*
X64728Y-39700D01*
X64385Y-40042D01*
X64757Y-40042D01*
X69542Y-23050D02*
X69257Y-23250D01*
X69542Y-23392D02*
X68942Y-23392D01*
X68942Y-23164D01*
X68971Y-23107D01*
X69000Y-23078D01*
X69057Y-23050D01*
X69142Y-23050D01*
X69200Y-23078D01*
X69228Y-23107D01*
X69257Y-23164D01*
X69257Y-23392D01*
X69542Y-22478D02*
X69542Y-22821D01*
X69542Y-22650D02*
X68942Y-22650D01*
X69028Y-22707D01*
X69085Y-22764D01*
X69114Y-22821D01*
X63200Y-26542D02*
X63000Y-26257D01*
X62857Y-26542D02*
X62857Y-25942D01*
X63085Y-25942D01*
X63142Y-25971D01*
X63171Y-26000D01*
X63200Y-26057D01*
X63200Y-26142D01*
X63171Y-26200D01*
X63142Y-26228D01*
X63085Y-26257D01*
X62857Y-26257D01*
X63714Y-25942D02*
X63600Y-25942D01*
X63542Y-25971D01*
X63514Y-26000D01*
X63457Y-26085D01*
X63428Y-26200D01*
X63428Y-26428D01*
X63457Y-26485D01*
X63485Y-26514D01*
X63542Y-26542D01*
X63657Y-26542D01*
X63714Y-26514D01*
X63742Y-26485D01*
X63771Y-26428D01*
X63771Y-26285D01*
X63742Y-26228D01*
X63714Y-26200D01*
X63657Y-26171D01*
X63542Y-26171D01*
X63485Y-26200D01*
X63457Y-26228D01*
X63428Y-26285D01*
G54D13*
X56961Y-21295D02*
X56561Y-21295D01*
X56961Y-21066D02*
X56733Y-21238D01*
X56561Y-21066D02*
X56790Y-21295D01*
X56961Y-20685D02*
X56961Y-20914D01*
X56961Y-20799D02*
X56561Y-20799D01*
X56619Y-20838D01*
X56657Y-20876D01*
X56676Y-20914D01*
X51807Y-34878D02*
X51821Y-34835D01*
X51821Y-34764D01*
X51807Y-34735D01*
X51792Y-34721D01*
X51764Y-34707D01*
X51735Y-34707D01*
X51707Y-34721D01*
X51692Y-34735D01*
X51678Y-34764D01*
X51664Y-34821D01*
X51650Y-34850D01*
X51635Y-34864D01*
X51607Y-34878D01*
X51578Y-34878D01*
X51550Y-34864D01*
X51535Y-34850D01*
X51521Y-34821D01*
X51521Y-34750D01*
X51535Y-34707D01*
X51821Y-34578D02*
X51521Y-34578D01*
X51521Y-34464D01*
X51535Y-34435D01*
X51550Y-34421D01*
X51578Y-34407D01*
X51621Y-34407D01*
X51650Y-34421D01*
X51664Y-34435D01*
X51678Y-34464D01*
X51678Y-34578D01*
X51821Y-34121D02*
X51821Y-34292D01*
X51821Y-34207D02*
X51521Y-34207D01*
X51564Y-34235D01*
X51592Y-34264D01*
X51607Y-34292D01*
X63621Y-21249D02*
X63835Y-21249D01*
X63878Y-21264D01*
X63907Y-21292D01*
X63921Y-21335D01*
X63921Y-21364D01*
X63921Y-21107D02*
X63621Y-21107D01*
X63621Y-20992D01*
X63635Y-20964D01*
X63650Y-20950D01*
X63678Y-20935D01*
X63721Y-20935D01*
X63750Y-20950D01*
X63764Y-20964D01*
X63778Y-20992D01*
X63778Y-21107D01*
X63650Y-20821D02*
X63635Y-20807D01*
X63621Y-20778D01*
X63621Y-20707D01*
X63635Y-20678D01*
X63650Y-20664D01*
X63678Y-20650D01*
X63707Y-20650D01*
X63750Y-20664D01*
X63921Y-20835D01*
X63921Y-20650D01*
X60621Y-21249D02*
X60835Y-21249D01*
X60878Y-21264D01*
X60907Y-21292D01*
X60921Y-21335D01*
X60921Y-21364D01*
X60921Y-21107D02*
X60621Y-21107D01*
X60621Y-20992D01*
X60635Y-20964D01*
X60650Y-20950D01*
X60678Y-20935D01*
X60721Y-20935D01*
X60750Y-20950D01*
X60764Y-20964D01*
X60778Y-20992D01*
X60778Y-21107D01*
X60921Y-20650D02*
X60921Y-20821D01*
X60921Y-20735D02*
X60621Y-20735D01*
X60664Y-20764D01*
X60692Y-20792D01*
X60707Y-20821D01*
G54D15*
X67704Y-27661D02*
X67704Y-27261D01*
X67800Y-27261D01*
X67857Y-27280D01*
X67895Y-27319D01*
X67914Y-27357D01*
X67933Y-27433D01*
X67933Y-27490D01*
X67914Y-27566D01*
X67895Y-27604D01*
X67857Y-27642D01*
X67800Y-27661D01*
X67704Y-27661D01*
X68314Y-27661D02*
X68085Y-27661D01*
X68200Y-27661D02*
X68200Y-27261D01*
X68161Y-27319D01*
X68123Y-27357D01*
X68085Y-27376D01*
X57704Y-29411D02*
X57704Y-29011D01*
X57800Y-29011D01*
X57857Y-29030D01*
X57895Y-29069D01*
X57914Y-29107D01*
X57933Y-29183D01*
X57933Y-29240D01*
X57914Y-29316D01*
X57895Y-29354D01*
X57857Y-29392D01*
X57800Y-29411D01*
X57704Y-29411D01*
X58295Y-29011D02*
X58104Y-29011D01*
X58085Y-29202D01*
X58104Y-29183D01*
X58142Y-29164D01*
X58238Y-29164D01*
X58276Y-29183D01*
X58295Y-29202D01*
X58314Y-29240D01*
X58314Y-29335D01*
X58295Y-29373D01*
X58276Y-29392D01*
X58238Y-29411D01*
X58142Y-29411D01*
X58104Y-29392D01*
X58085Y-29373D01*
X57704Y-28411D02*
X57704Y-28011D01*
X57800Y-28011D01*
X57857Y-28030D01*
X57895Y-28069D01*
X57914Y-28107D01*
X57933Y-28183D01*
X57933Y-28240D01*
X57914Y-28316D01*
X57895Y-28354D01*
X57857Y-28392D01*
X57800Y-28411D01*
X57704Y-28411D01*
X58276Y-28145D02*
X58276Y-28411D01*
X58180Y-27992D02*
X58085Y-28278D01*
X58333Y-28278D01*
X57704Y-27411D02*
X57704Y-27011D01*
X57800Y-27011D01*
X57857Y-27030D01*
X57895Y-27069D01*
X57914Y-27107D01*
X57933Y-27183D01*
X57933Y-27240D01*
X57914Y-27316D01*
X57895Y-27354D01*
X57857Y-27392D01*
X57800Y-27411D01*
X57704Y-27411D01*
X58085Y-27050D02*
X58104Y-27030D01*
X58142Y-27011D01*
X58238Y-27011D01*
X58276Y-27030D01*
X58295Y-27050D01*
X58314Y-27088D01*
X58314Y-27126D01*
X58295Y-27183D01*
X58066Y-27411D01*
X58314Y-27411D01*
X57704Y-26411D02*
X57704Y-26011D01*
X57800Y-26011D01*
X57857Y-26030D01*
X57895Y-26069D01*
X57914Y-26107D01*
X57933Y-26183D01*
X57933Y-26240D01*
X57914Y-26316D01*
X57895Y-26354D01*
X57857Y-26392D01*
X57800Y-26411D01*
X57704Y-26411D01*
X58066Y-26011D02*
X58314Y-26011D01*
X58180Y-26164D01*
X58238Y-26164D01*
X58276Y-26183D01*
X58295Y-26202D01*
X58314Y-26240D01*
X58314Y-26335D01*
X58295Y-26373D01*
X58276Y-26392D01*
X58238Y-26411D01*
X58123Y-26411D01*
X58085Y-26392D01*
X58066Y-26373D01*
X67911Y-41545D02*
X67511Y-41545D01*
X67511Y-41449D01*
X67530Y-41392D01*
X67569Y-41354D01*
X67607Y-41335D01*
X67683Y-41316D01*
X67740Y-41316D01*
X67816Y-41335D01*
X67854Y-41354D01*
X67892Y-41392D01*
X67911Y-41449D01*
X67911Y-41545D01*
X67511Y-40973D02*
X67511Y-41049D01*
X67530Y-41088D01*
X67550Y-41107D01*
X67607Y-41145D01*
X67683Y-41164D01*
X67835Y-41164D01*
X67873Y-41145D01*
X67892Y-41126D01*
X67911Y-41088D01*
X67911Y-41011D01*
X67892Y-40973D01*
X67873Y-40954D01*
X67835Y-40935D01*
X67740Y-40935D01*
X67702Y-40954D01*
X67683Y-40973D01*
X67664Y-41011D01*
X67664Y-41088D01*
X67683Y-41126D01*
X67702Y-41145D01*
X67740Y-41164D01*
G54D14*
X58400Y-23985D02*
X58371Y-24014D01*
X58285Y-24042D01*
X58228Y-24042D01*
X58142Y-24014D01*
X58085Y-23957D01*
X58057Y-23900D01*
X58028Y-23785D01*
X58028Y-23700D01*
X58057Y-23585D01*
X58085Y-23528D01*
X58142Y-23471D01*
X58228Y-23442D01*
X58285Y-23442D01*
X58371Y-23471D01*
X58400Y-23500D01*
X58628Y-23500D02*
X58657Y-23471D01*
X58714Y-23442D01*
X58857Y-23442D01*
X58914Y-23471D01*
X58942Y-23500D01*
X58971Y-23557D01*
X58971Y-23614D01*
X58942Y-23700D01*
X58600Y-24042D01*
X58971Y-24042D01*
X58400Y-22485D02*
X58371Y-22514D01*
X58285Y-22542D01*
X58228Y-22542D01*
X58142Y-22514D01*
X58085Y-22457D01*
X58057Y-22400D01*
X58028Y-22285D01*
X58028Y-22200D01*
X58057Y-22085D01*
X58085Y-22028D01*
X58142Y-21971D01*
X58228Y-21942D01*
X58285Y-21942D01*
X58371Y-21971D01*
X58400Y-22000D01*
X58600Y-21942D02*
X58971Y-21942D01*
X58771Y-22171D01*
X58857Y-22171D01*
X58914Y-22200D01*
X58942Y-22228D01*
X58971Y-22285D01*
X58971Y-22428D01*
X58942Y-22485D01*
X58914Y-22514D01*
X58857Y-22542D01*
X58685Y-22542D01*
X58628Y-22514D01*
X58600Y-22485D01*
X68200Y-26485D02*
X68171Y-26514D01*
X68085Y-26542D01*
X68028Y-26542D01*
X67942Y-26514D01*
X67885Y-26457D01*
X67857Y-26400D01*
X67828Y-26285D01*
X67828Y-26200D01*
X67857Y-26085D01*
X67885Y-26028D01*
X67942Y-25971D01*
X68028Y-25942D01*
X68085Y-25942D01*
X68171Y-25971D01*
X68200Y-26000D01*
X68771Y-26542D02*
X68428Y-26542D01*
X68600Y-26542D02*
X68600Y-25942D01*
X68542Y-26028D01*
X68485Y-26085D01*
X68428Y-26114D01*
G54D10*
X52162Y-37696D02*
X52125Y-37678D01*
X52087Y-37640D01*
X52031Y-37584D01*
X51993Y-37565D01*
X51956Y-37565D01*
X51975Y-37659D02*
X51937Y-37640D01*
X51900Y-37603D01*
X51881Y-37528D01*
X51881Y-37396D01*
X51900Y-37321D01*
X51937Y-37284D01*
X51975Y-37265D01*
X52050Y-37265D01*
X52087Y-37284D01*
X52125Y-37321D01*
X52143Y-37396D01*
X52143Y-37528D01*
X52125Y-37603D01*
X52087Y-37640D01*
X52050Y-37659D01*
X51975Y-37659D01*
X52499Y-37265D02*
X52312Y-37265D01*
X52293Y-37453D01*
X52312Y-37434D01*
X52349Y-37415D01*
X52443Y-37415D01*
X52481Y-37434D01*
X52499Y-37453D01*
X52518Y-37490D01*
X52518Y-37584D01*
X52499Y-37621D01*
X52481Y-37640D01*
X52443Y-37659D01*
X52349Y-37659D01*
X52312Y-37640D01*
X52293Y-37621D01*
X68462Y-19096D02*
X68425Y-19078D01*
X68387Y-19040D01*
X68331Y-18984D01*
X68293Y-18965D01*
X68256Y-18965D01*
X68275Y-19059D02*
X68237Y-19040D01*
X68200Y-19003D01*
X68181Y-18928D01*
X68181Y-18796D01*
X68200Y-18721D01*
X68237Y-18684D01*
X68275Y-18665D01*
X68350Y-18665D01*
X68387Y-18684D01*
X68425Y-18721D01*
X68443Y-18796D01*
X68443Y-18928D01*
X68425Y-19003D01*
X68387Y-19040D01*
X68350Y-19059D01*
X68275Y-19059D01*
X68574Y-18665D02*
X68818Y-18665D01*
X68687Y-18815D01*
X68743Y-18815D01*
X68781Y-18834D01*
X68799Y-18853D01*
X68818Y-18890D01*
X68818Y-18984D01*
X68799Y-19021D01*
X68781Y-19040D01*
X68743Y-19059D01*
X68631Y-19059D01*
X68593Y-19040D01*
X68574Y-19021D01*
X51962Y-25496D02*
X51925Y-25478D01*
X51887Y-25440D01*
X51831Y-25384D01*
X51793Y-25365D01*
X51756Y-25365D01*
X51775Y-25459D02*
X51737Y-25440D01*
X51700Y-25403D01*
X51681Y-25328D01*
X51681Y-25196D01*
X51700Y-25121D01*
X51737Y-25084D01*
X51775Y-25065D01*
X51850Y-25065D01*
X51887Y-25084D01*
X51925Y-25121D01*
X51943Y-25196D01*
X51943Y-25328D01*
X51925Y-25403D01*
X51887Y-25440D01*
X51850Y-25459D01*
X51775Y-25459D01*
X52318Y-25459D02*
X52093Y-25459D01*
X52206Y-25459D02*
X52206Y-25065D01*
X52168Y-25121D01*
X52131Y-25159D01*
X52093Y-25178D01*
X55196Y-26037D02*
X55178Y-26074D01*
X55140Y-26112D01*
X55084Y-26168D01*
X55065Y-26206D01*
X55065Y-26243D01*
X55159Y-26224D02*
X55140Y-26262D01*
X55103Y-26299D01*
X55028Y-26318D01*
X54896Y-26318D01*
X54821Y-26299D01*
X54784Y-26262D01*
X54765Y-26224D01*
X54765Y-26149D01*
X54784Y-26112D01*
X54821Y-26074D01*
X54896Y-26056D01*
X55028Y-26056D01*
X55103Y-26074D01*
X55140Y-26112D01*
X55159Y-26149D01*
X55159Y-26224D01*
X54896Y-25718D02*
X55159Y-25718D01*
X54746Y-25812D02*
X55028Y-25906D01*
X55028Y-25662D01*
X54109Y-16259D02*
X54109Y-15865D01*
X54259Y-15865D01*
X54296Y-15884D01*
X54315Y-15903D01*
X54334Y-15940D01*
X54334Y-15996D01*
X54315Y-16034D01*
X54296Y-16053D01*
X54259Y-16071D01*
X54109Y-16071D01*
X54709Y-16259D02*
X54484Y-16259D01*
X54596Y-16259D02*
X54596Y-15865D01*
X54559Y-15921D01*
X54521Y-15959D01*
X54484Y-15978D01*
X61109Y-16259D02*
X61109Y-15865D01*
X61259Y-15865D01*
X61296Y-15884D01*
X61315Y-15903D01*
X61334Y-15940D01*
X61334Y-15996D01*
X61315Y-16034D01*
X61296Y-16053D01*
X61259Y-16071D01*
X61109Y-16071D01*
X61484Y-15903D02*
X61503Y-15884D01*
X61540Y-15865D01*
X61634Y-15865D01*
X61671Y-15884D01*
X61690Y-15903D01*
X61709Y-15940D01*
X61709Y-15978D01*
X61690Y-16034D01*
X61465Y-16259D01*
X61709Y-16259D01*
X60609Y-46359D02*
X60609Y-45965D01*
X60759Y-45965D01*
X60796Y-45984D01*
X60815Y-46003D01*
X60834Y-46040D01*
X60834Y-46096D01*
X60815Y-46134D01*
X60796Y-46153D01*
X60759Y-46171D01*
X60609Y-46171D01*
X60965Y-45965D02*
X61209Y-45965D01*
X61078Y-46115D01*
X61134Y-46115D01*
X61171Y-46134D01*
X61190Y-46153D01*
X61209Y-46190D01*
X61209Y-46284D01*
X61190Y-46321D01*
X61171Y-46340D01*
X61134Y-46359D01*
X61021Y-46359D01*
X60984Y-46340D01*
X60965Y-46321D01*
X53609Y-46359D02*
X53609Y-45965D01*
X53759Y-45965D01*
X53796Y-45984D01*
X53815Y-46003D01*
X53834Y-46040D01*
X53834Y-46096D01*
X53815Y-46134D01*
X53796Y-46153D01*
X53759Y-46171D01*
X53609Y-46171D01*
X54171Y-46096D02*
X54171Y-46359D01*
X54078Y-45946D02*
X53984Y-46228D01*
X54228Y-46228D01*
X51700Y-26565D02*
X51700Y-26884D01*
X51718Y-26921D01*
X51737Y-26940D01*
X51775Y-26959D01*
X51850Y-26959D01*
X51887Y-26940D01*
X51906Y-26921D01*
X51925Y-26884D01*
X51925Y-26565D01*
X52074Y-26565D02*
X52318Y-26565D01*
X52187Y-26715D01*
X52243Y-26715D01*
X52281Y-26734D01*
X52299Y-26753D01*
X52318Y-26790D01*
X52318Y-26884D01*
X52299Y-26921D01*
X52281Y-26940D01*
X52243Y-26959D01*
X52131Y-26959D01*
X52093Y-26940D01*
X52074Y-26921D01*
X67365Y-35699D02*
X67684Y-35699D01*
X67721Y-35681D01*
X67740Y-35662D01*
X67759Y-35624D01*
X67759Y-35549D01*
X67740Y-35512D01*
X67721Y-35493D01*
X67684Y-35474D01*
X67365Y-35474D01*
X67496Y-35118D02*
X67759Y-35118D01*
X67346Y-35212D02*
X67628Y-35306D01*
X67628Y-35062D01*
X66565Y-36849D02*
X66565Y-36624D01*
X66959Y-36737D02*
X66565Y-36737D01*
X66753Y-36493D02*
X66753Y-36362D01*
X66959Y-36306D02*
X66959Y-36493D01*
X66565Y-36493D01*
X66565Y-36306D01*
X66753Y-36137D02*
X66753Y-36006D01*
X66959Y-35949D02*
X66959Y-36137D01*
X66565Y-36137D01*
X66565Y-35949D01*
X66959Y-35781D02*
X66565Y-35781D01*
X66959Y-35556D01*
X66565Y-35556D01*
X66940Y-35387D02*
X66959Y-35331D01*
X66959Y-35237D01*
X66940Y-35199D01*
X66921Y-35181D01*
X66884Y-35162D01*
X66846Y-35162D01*
X66809Y-35181D01*
X66790Y-35199D01*
X66771Y-35237D01*
X66753Y-35312D01*
X66734Y-35349D01*
X66715Y-35368D01*
X66678Y-35387D01*
X66640Y-35387D01*
X66603Y-35368D01*
X66584Y-35349D01*
X66565Y-35312D01*
X66565Y-35218D01*
X66584Y-35162D01*
X66771Y-34918D02*
X66959Y-34918D01*
X66565Y-35050D02*
X66771Y-34918D01*
X66565Y-34787D01*
X66996Y-34750D02*
X66996Y-34450D01*
X66565Y-34393D02*
X66565Y-34150D01*
X66715Y-34281D01*
X66715Y-34225D01*
X66734Y-34187D01*
X66753Y-34168D01*
X66790Y-34150D01*
X66884Y-34150D01*
X66921Y-34168D01*
X66940Y-34187D01*
X66959Y-34225D01*
X66959Y-34337D01*
X66940Y-34375D01*
X66921Y-34393D01*
X66921Y-33981D02*
X66940Y-33962D01*
X66959Y-33981D01*
X66940Y-34000D01*
X66921Y-33981D01*
X66959Y-33981D01*
X66603Y-33812D02*
X66584Y-33793D01*
X66565Y-33756D01*
X66565Y-33662D01*
X66584Y-33625D01*
X66603Y-33606D01*
X66640Y-33587D01*
X66678Y-33587D01*
X66734Y-33606D01*
X66959Y-33831D01*
X66959Y-33587D01*
M02*
