G04 (created by PCBNEW (2013-07-07 BZR 4022)-stable) date 22.08.2017 09:49:39*
%MOIN*%
G04 Gerber Fmt 3.4, Leading zero omitted, Abs format*
%FSLAX34Y34*%
G01*
G70*
G90*
G04 APERTURE LIST*
%ADD10C,0.005*%
%ADD11C,0.00787402*%
%ADD12C,0.011811*%
G04 APERTURE END LIST*
G54D10*
G54D11*
X51075Y-40275D02*
X51325Y-40525D01*
X51325Y-40275D02*
X51075Y-40525D01*
X56125Y-37875D02*
X56375Y-38125D01*
X56375Y-37875D02*
X56125Y-38125D01*
X56625Y-37375D02*
X56875Y-37625D01*
X56875Y-37375D02*
X56625Y-37625D01*
X57375Y-25375D02*
X57625Y-25625D01*
X57625Y-25375D02*
X57375Y-25625D01*
X57625Y-27875D02*
X57875Y-28125D01*
X57875Y-27875D02*
X57625Y-28125D01*
X58175Y-26275D02*
X58425Y-26525D01*
X58425Y-26275D02*
X58175Y-26525D01*
X59875Y-37075D02*
X60125Y-37325D01*
X60125Y-37075D02*
X59875Y-37325D01*
X60375Y-21875D02*
X60625Y-22125D01*
X60625Y-21875D02*
X60375Y-22125D01*
X60375Y-26375D02*
X60625Y-26625D01*
X60625Y-26375D02*
X60375Y-26625D01*
X60675Y-37375D02*
X60925Y-37625D01*
X60925Y-37375D02*
X60675Y-37625D01*
X62875Y-39375D02*
X63125Y-39625D01*
X63125Y-39375D02*
X62875Y-39625D01*
X63575Y-39675D02*
X63825Y-39925D01*
X63825Y-39675D02*
X63575Y-39925D01*
X65175Y-36875D02*
X65425Y-37125D01*
X65425Y-36875D02*
X65175Y-37125D01*
X65775Y-25475D02*
X66025Y-25725D01*
X66025Y-25475D02*
X65775Y-25725D01*
X68175Y-28675D02*
X68425Y-28925D01*
X68425Y-28675D02*
X68175Y-28925D01*
X68975Y-37475D02*
X69225Y-37725D01*
X69225Y-37475D02*
X68975Y-37725D01*
X57657Y-22250D02*
G75*
G03X57657Y-22250I-157J0D01*
G74*
G01*
X57657Y-23750D02*
G75*
G03X57657Y-23750I-157J0D01*
G74*
G01*
X59657Y-22250D02*
G75*
G03X59657Y-22250I-157J0D01*
G74*
G01*
X59657Y-23750D02*
G75*
G03X59657Y-23750I-157J0D01*
G74*
G01*
X67407Y-26250D02*
G75*
G03X67407Y-26250I-157J0D01*
G74*
G01*
X69407Y-26250D02*
G75*
G03X69407Y-26250I-157J0D01*
G74*
G01*
X51000Y-24340D02*
X51000Y-24660D01*
X50840Y-24500D02*
X51160Y-24500D01*
X51000Y-27340D02*
X51000Y-27660D01*
X50840Y-27500D02*
X51160Y-27500D01*
X51250Y-36590D02*
X51250Y-36910D01*
X51090Y-36750D02*
X51410Y-36750D01*
X52000Y-24340D02*
X52000Y-24660D01*
X51840Y-24500D02*
X52160Y-24500D01*
X52000Y-27340D02*
X52000Y-27660D01*
X51840Y-27500D02*
X52160Y-27500D01*
X52250Y-36590D02*
X52250Y-36910D01*
X52090Y-36750D02*
X52410Y-36750D01*
X53000Y-24340D02*
X53000Y-24660D01*
X52840Y-24500D02*
X53160Y-24500D01*
X53000Y-27340D02*
X53000Y-27660D01*
X52840Y-27500D02*
X53160Y-27500D01*
X53250Y-36590D02*
X53250Y-36910D01*
X53090Y-36750D02*
X53410Y-36750D01*
X54250Y-24840D02*
X54250Y-25160D01*
X54090Y-25000D02*
X54410Y-25000D01*
X54250Y-25840D02*
X54250Y-26160D01*
X54090Y-26000D02*
X54410Y-26000D01*
X54250Y-26840D02*
X54250Y-27160D01*
X54090Y-27000D02*
X54410Y-27000D01*
X54500Y-20840D02*
X54500Y-21160D01*
X54340Y-21000D02*
X54660Y-21000D01*
X54500Y-21840D02*
X54500Y-22160D01*
X54340Y-22000D02*
X54660Y-22000D01*
X54500Y-22840D02*
X54500Y-23160D01*
X54340Y-23000D02*
X54660Y-23000D01*
X56500Y-26090D02*
X56500Y-26410D01*
X56340Y-26250D02*
X56660Y-26250D01*
X56500Y-27090D02*
X56500Y-27410D01*
X56340Y-27250D02*
X56660Y-27250D01*
X56500Y-28090D02*
X56500Y-28410D01*
X56340Y-28250D02*
X56660Y-28250D01*
X56500Y-29090D02*
X56500Y-29410D01*
X56340Y-29250D02*
X56660Y-29250D01*
X59500Y-26090D02*
X59500Y-26410D01*
X59340Y-26250D02*
X59660Y-26250D01*
X59500Y-27090D02*
X59500Y-27410D01*
X59340Y-27250D02*
X59660Y-27250D01*
X59500Y-28090D02*
X59500Y-28410D01*
X59340Y-28250D02*
X59660Y-28250D01*
X59500Y-29090D02*
X59500Y-29410D01*
X59340Y-29250D02*
X59660Y-29250D01*
X66500Y-27340D02*
X66500Y-27660D01*
X66340Y-27500D02*
X66660Y-27500D01*
X67500Y-19440D02*
X67500Y-19760D01*
X67340Y-19600D02*
X67660Y-19600D01*
X67750Y-39590D02*
X67750Y-39910D01*
X67590Y-39750D02*
X67910Y-39750D01*
X67750Y-42590D02*
X67750Y-42910D01*
X67590Y-42750D02*
X67910Y-42750D01*
X68500Y-19440D02*
X68500Y-19760D01*
X68340Y-19600D02*
X68660Y-19600D01*
X69500Y-19440D02*
X69500Y-19760D01*
X69340Y-19600D02*
X69660Y-19600D01*
X69500Y-27340D02*
X69500Y-27660D01*
X69340Y-27500D02*
X69660Y-27500D01*
X54170Y-43889D02*
X54170Y-43610D01*
X53892Y-43610D01*
X53892Y-43889D01*
X54170Y-43889D01*
X54686Y-18639D02*
X54686Y-18360D01*
X54408Y-18360D01*
X54408Y-18639D01*
X54686Y-18639D01*
X54889Y-32639D02*
X54889Y-32360D01*
X54610Y-32360D01*
X54610Y-32639D01*
X54889Y-32639D01*
X54889Y-33639D02*
X54889Y-33360D01*
X54610Y-33360D01*
X54610Y-33639D01*
X54889Y-33639D01*
X54889Y-34639D02*
X54889Y-34360D01*
X54610Y-34360D01*
X54610Y-34639D01*
X54889Y-34639D01*
X54889Y-35639D02*
X54889Y-35360D01*
X54610Y-35360D01*
X54610Y-35639D01*
X54889Y-35639D01*
X54889Y-36639D02*
X54889Y-36360D01*
X54610Y-36360D01*
X54610Y-36639D01*
X54889Y-36639D01*
X54889Y-37639D02*
X54889Y-37360D01*
X54610Y-37360D01*
X54610Y-37639D01*
X54889Y-37639D01*
X54889Y-38639D02*
X54889Y-38360D01*
X54610Y-38360D01*
X54610Y-38639D01*
X54889Y-38639D01*
X55154Y-43889D02*
X55154Y-43610D01*
X54876Y-43610D01*
X54876Y-43889D01*
X55154Y-43889D01*
X55670Y-18639D02*
X55670Y-18360D01*
X55392Y-18360D01*
X55392Y-18639D01*
X55670Y-18639D01*
X55889Y-32639D02*
X55889Y-32360D01*
X55610Y-32360D01*
X55610Y-32639D01*
X55889Y-32639D01*
X55889Y-33639D02*
X55889Y-33360D01*
X55610Y-33360D01*
X55610Y-33639D01*
X55889Y-33639D01*
X55889Y-34639D02*
X55889Y-34360D01*
X55610Y-34360D01*
X55610Y-34639D01*
X55889Y-34639D01*
X55889Y-35639D02*
X55889Y-35360D01*
X55610Y-35360D01*
X55610Y-35639D01*
X55889Y-35639D01*
X55889Y-36639D02*
X55889Y-36360D01*
X55610Y-36360D01*
X55610Y-36639D01*
X55889Y-36639D01*
X55889Y-38639D02*
X55889Y-38360D01*
X55610Y-38360D01*
X55610Y-38639D01*
X55889Y-38639D01*
X56139Y-43889D02*
X56139Y-43610D01*
X55860Y-43610D01*
X55860Y-43889D01*
X56139Y-43889D01*
X56654Y-18639D02*
X56654Y-18360D01*
X56376Y-18360D01*
X56376Y-18639D01*
X56654Y-18639D01*
X56889Y-32639D02*
X56889Y-32360D01*
X56610Y-32360D01*
X56610Y-32639D01*
X56889Y-32639D01*
X56889Y-38639D02*
X56889Y-38360D01*
X56610Y-38360D01*
X56610Y-38639D01*
X56889Y-38639D01*
X57123Y-43889D02*
X57123Y-43610D01*
X56845Y-43610D01*
X56845Y-43889D01*
X57123Y-43889D01*
X57639Y-18639D02*
X57639Y-18360D01*
X57360Y-18360D01*
X57360Y-18639D01*
X57639Y-18639D01*
X57889Y-32639D02*
X57889Y-32360D01*
X57610Y-32360D01*
X57610Y-32639D01*
X57889Y-32639D01*
X57889Y-36639D02*
X57889Y-36360D01*
X57610Y-36360D01*
X57610Y-36639D01*
X57889Y-36639D01*
X57889Y-38639D02*
X57889Y-38360D01*
X57610Y-38360D01*
X57610Y-38639D01*
X57889Y-38639D01*
X58107Y-43889D02*
X58107Y-43610D01*
X57829Y-43610D01*
X57829Y-43889D01*
X58107Y-43889D01*
X58623Y-18639D02*
X58623Y-18360D01*
X58345Y-18360D01*
X58345Y-18639D01*
X58623Y-18639D01*
X58889Y-32639D02*
X58889Y-32360D01*
X58610Y-32360D01*
X58610Y-32639D01*
X58889Y-32639D01*
X58889Y-36639D02*
X58889Y-36360D01*
X58610Y-36360D01*
X58610Y-36639D01*
X58889Y-36639D01*
X58889Y-38639D02*
X58889Y-38360D01*
X58610Y-38360D01*
X58610Y-38639D01*
X58889Y-38639D01*
X59091Y-43889D02*
X59091Y-43610D01*
X58813Y-43610D01*
X58813Y-43889D01*
X59091Y-43889D01*
X59607Y-18639D02*
X59607Y-18360D01*
X59329Y-18360D01*
X59329Y-18639D01*
X59607Y-18639D01*
X59889Y-32639D02*
X59889Y-32360D01*
X59610Y-32360D01*
X59610Y-32639D01*
X59889Y-32639D01*
X59889Y-36639D02*
X59889Y-36360D01*
X59610Y-36360D01*
X59610Y-36639D01*
X59889Y-36639D01*
X59889Y-38639D02*
X59889Y-38360D01*
X59610Y-38360D01*
X59610Y-38639D01*
X59889Y-38639D01*
X60889Y-32639D02*
X60889Y-32360D01*
X60610Y-32360D01*
X60610Y-32639D01*
X60889Y-32639D01*
X60889Y-38639D02*
X60889Y-38360D01*
X60610Y-38360D01*
X60610Y-38639D01*
X60889Y-38639D01*
X61170Y-43889D02*
X61170Y-43610D01*
X60892Y-43610D01*
X60892Y-43889D01*
X61170Y-43889D01*
X61686Y-18639D02*
X61686Y-18360D01*
X61408Y-18360D01*
X61408Y-18639D01*
X61686Y-18639D01*
X61889Y-30139D02*
X61889Y-29860D01*
X61610Y-29860D01*
X61610Y-30139D01*
X61889Y-30139D01*
X61889Y-32639D02*
X61889Y-32360D01*
X61610Y-32360D01*
X61610Y-32639D01*
X61889Y-32639D01*
X61889Y-33639D02*
X61889Y-33360D01*
X61610Y-33360D01*
X61610Y-33639D01*
X61889Y-33639D01*
X61889Y-34639D02*
X61889Y-34360D01*
X61610Y-34360D01*
X61610Y-34639D01*
X61889Y-34639D01*
X61889Y-35639D02*
X61889Y-35360D01*
X61610Y-35360D01*
X61610Y-35639D01*
X61889Y-35639D01*
X61889Y-36639D02*
X61889Y-36360D01*
X61610Y-36360D01*
X61610Y-36639D01*
X61889Y-36639D01*
X61889Y-38639D02*
X61889Y-38360D01*
X61610Y-38360D01*
X61610Y-38639D01*
X61889Y-38639D01*
X62154Y-43889D02*
X62154Y-43610D01*
X61876Y-43610D01*
X61876Y-43889D01*
X62154Y-43889D01*
X62670Y-18639D02*
X62670Y-18360D01*
X62392Y-18360D01*
X62392Y-18639D01*
X62670Y-18639D01*
X62889Y-30139D02*
X62889Y-29860D01*
X62610Y-29860D01*
X62610Y-30139D01*
X62889Y-30139D01*
X62889Y-32639D02*
X62889Y-32360D01*
X62610Y-32360D01*
X62610Y-32639D01*
X62889Y-32639D01*
X62889Y-37639D02*
X62889Y-37360D01*
X62610Y-37360D01*
X62610Y-37639D01*
X62889Y-37639D01*
X62889Y-38639D02*
X62889Y-38360D01*
X62610Y-38360D01*
X62610Y-38639D01*
X62889Y-38639D01*
X63139Y-43889D02*
X63139Y-43610D01*
X62860Y-43610D01*
X62860Y-43889D01*
X63139Y-43889D01*
X63654Y-18639D02*
X63654Y-18360D01*
X63376Y-18360D01*
X63376Y-18639D01*
X63654Y-18639D01*
X63889Y-30139D02*
X63889Y-29860D01*
X63610Y-29860D01*
X63610Y-30139D01*
X63889Y-30139D01*
X63889Y-32639D02*
X63889Y-32360D01*
X63610Y-32360D01*
X63610Y-32639D01*
X63889Y-32639D01*
X63889Y-37639D02*
X63889Y-37360D01*
X63610Y-37360D01*
X63610Y-37639D01*
X63889Y-37639D01*
X63889Y-38639D02*
X63889Y-38360D01*
X63610Y-38360D01*
X63610Y-38639D01*
X63889Y-38639D01*
X64123Y-43889D02*
X64123Y-43610D01*
X63845Y-43610D01*
X63845Y-43889D01*
X64123Y-43889D01*
X64639Y-18639D02*
X64639Y-18360D01*
X64360Y-18360D01*
X64360Y-18639D01*
X64639Y-18639D01*
X64889Y-30139D02*
X64889Y-29860D01*
X64610Y-29860D01*
X64610Y-30139D01*
X64889Y-30139D01*
X64889Y-32639D02*
X64889Y-32360D01*
X64610Y-32360D01*
X64610Y-32639D01*
X64889Y-32639D01*
X64889Y-37639D02*
X64889Y-37360D01*
X64610Y-37360D01*
X64610Y-37639D01*
X64889Y-37639D01*
X64889Y-38639D02*
X64889Y-38360D01*
X64610Y-38360D01*
X64610Y-38639D01*
X64889Y-38639D01*
X65107Y-43889D02*
X65107Y-43610D01*
X64829Y-43610D01*
X64829Y-43889D01*
X65107Y-43889D01*
X65623Y-18639D02*
X65623Y-18360D01*
X65345Y-18360D01*
X65345Y-18639D01*
X65623Y-18639D01*
X65889Y-30139D02*
X65889Y-29860D01*
X65610Y-29860D01*
X65610Y-30139D01*
X65889Y-30139D01*
X65889Y-32639D02*
X65889Y-32360D01*
X65610Y-32360D01*
X65610Y-32639D01*
X65889Y-32639D01*
X65889Y-38639D02*
X65889Y-38360D01*
X65610Y-38360D01*
X65610Y-38639D01*
X65889Y-38639D01*
X66091Y-43889D02*
X66091Y-43610D01*
X65813Y-43610D01*
X65813Y-43889D01*
X66091Y-43889D01*
X66607Y-18639D02*
X66607Y-18360D01*
X66329Y-18360D01*
X66329Y-18639D01*
X66607Y-18639D01*
X66889Y-30139D02*
X66889Y-29860D01*
X66610Y-29860D01*
X66610Y-30139D01*
X66889Y-30139D01*
X66889Y-32639D02*
X66889Y-32360D01*
X66610Y-32360D01*
X66610Y-32639D01*
X66889Y-32639D01*
X66889Y-37639D02*
X66889Y-37360D01*
X66610Y-37360D01*
X66610Y-37639D01*
X66889Y-37639D01*
X66889Y-38639D02*
X66889Y-38360D01*
X66610Y-38360D01*
X66610Y-38639D01*
X66889Y-38639D01*
X67889Y-30139D02*
X67889Y-29860D01*
X67610Y-29860D01*
X67610Y-30139D01*
X67889Y-30139D01*
X67889Y-32639D02*
X67889Y-32360D01*
X67610Y-32360D01*
X67610Y-32639D01*
X67889Y-32639D01*
X67889Y-38639D02*
X67889Y-38360D01*
X67610Y-38360D01*
X67610Y-38639D01*
X67889Y-38639D01*
X68889Y-30139D02*
X68889Y-29860D01*
X68610Y-29860D01*
X68610Y-30139D01*
X68889Y-30139D01*
X51000Y-19166D02*
X51197Y-18969D01*
X51000Y-18772D01*
X50803Y-18969D01*
X51000Y-19166D01*
X51000Y-23166D02*
X51197Y-22969D01*
X51000Y-22772D01*
X50803Y-22969D01*
X51000Y-23166D01*
X51000Y-28978D02*
X51197Y-28781D01*
X51000Y-28584D01*
X50803Y-28781D01*
X51000Y-28978D01*
X51000Y-32978D02*
X51197Y-32781D01*
X51000Y-32584D01*
X50803Y-32781D01*
X51000Y-32978D01*
X52250Y-28978D02*
X52447Y-28781D01*
X52250Y-28584D01*
X52053Y-28781D01*
X52250Y-28978D01*
X52250Y-32978D02*
X52447Y-32781D01*
X52250Y-32584D01*
X52053Y-32781D01*
X52250Y-32978D01*
X52500Y-19228D02*
X52697Y-19031D01*
X52500Y-18834D01*
X52303Y-19031D01*
X52500Y-19228D01*
X52500Y-23228D02*
X52697Y-23031D01*
X52500Y-22834D01*
X52303Y-23031D01*
X52500Y-23228D01*
X53500Y-28978D02*
X53697Y-28781D01*
X53500Y-28584D01*
X53303Y-28781D01*
X53500Y-28978D01*
X53500Y-32978D02*
X53697Y-32781D01*
X53500Y-32584D01*
X53303Y-32781D01*
X53500Y-32978D01*
X56000Y-21228D02*
X56197Y-21031D01*
X56000Y-20834D01*
X55803Y-21031D01*
X56000Y-21228D01*
X56000Y-25228D02*
X56197Y-25031D01*
X56000Y-24834D01*
X55803Y-25031D01*
X56000Y-25228D01*
X61269Y-25197D02*
X61466Y-25000D01*
X61269Y-24803D01*
X61072Y-25000D01*
X61269Y-25197D01*
X61269Y-28997D02*
X61466Y-28800D01*
X61269Y-28603D01*
X61072Y-28800D01*
X61269Y-28997D01*
X61281Y-22697D02*
X61478Y-22500D01*
X61281Y-22303D01*
X61084Y-22500D01*
X61281Y-22697D01*
X61281Y-23947D02*
X61478Y-23750D01*
X61281Y-23553D01*
X61084Y-23750D01*
X61281Y-23947D01*
X61281Y-26447D02*
X61478Y-26250D01*
X61281Y-26053D01*
X61084Y-26250D01*
X61281Y-26447D01*
X61281Y-27697D02*
X61478Y-27500D01*
X61281Y-27303D01*
X61084Y-27500D01*
X61281Y-27697D01*
X61969Y-39947D02*
X62166Y-39750D01*
X61969Y-39553D01*
X61772Y-39750D01*
X61969Y-39947D01*
X61969Y-41197D02*
X62166Y-41000D01*
X61969Y-40803D01*
X61772Y-41000D01*
X61969Y-41197D01*
X65269Y-25197D02*
X65466Y-25000D01*
X65269Y-24803D01*
X65072Y-25000D01*
X65269Y-25197D01*
X65269Y-28997D02*
X65466Y-28800D01*
X65269Y-28603D01*
X65072Y-28800D01*
X65269Y-28997D01*
X65281Y-22697D02*
X65478Y-22500D01*
X65281Y-22303D01*
X65084Y-22500D01*
X65281Y-22697D01*
X65281Y-23947D02*
X65478Y-23750D01*
X65281Y-23553D01*
X65084Y-23750D01*
X65281Y-23947D01*
X65281Y-26447D02*
X65478Y-26250D01*
X65281Y-26053D01*
X65084Y-26250D01*
X65281Y-26447D01*
X65281Y-27697D02*
X65478Y-27500D01*
X65281Y-27303D01*
X65084Y-27500D01*
X65281Y-27697D01*
X65969Y-39947D02*
X66166Y-39750D01*
X65969Y-39553D01*
X65772Y-39750D01*
X65969Y-39947D01*
X65969Y-41197D02*
X66166Y-41000D01*
X65969Y-40803D01*
X65772Y-41000D01*
X65969Y-41197D01*
X66750Y-21166D02*
X66947Y-20969D01*
X66750Y-20772D01*
X66553Y-20969D01*
X66750Y-21166D01*
X66750Y-25166D02*
X66947Y-24969D01*
X66750Y-24772D01*
X66553Y-24969D01*
X66750Y-25166D01*
X68000Y-21166D02*
X68197Y-20969D01*
X68000Y-20772D01*
X67803Y-20969D01*
X68000Y-21166D01*
X68000Y-25166D02*
X68197Y-24969D01*
X68000Y-24772D01*
X67803Y-24969D01*
X68000Y-25166D01*
X69250Y-21178D02*
X69447Y-20981D01*
X69250Y-20784D01*
X69053Y-20981D01*
X69250Y-21178D01*
X69250Y-25178D02*
X69447Y-24981D01*
X69250Y-24784D01*
X69053Y-24981D01*
X69250Y-25178D01*
X52300Y-34300D02*
X52700Y-34700D01*
X52700Y-34300D02*
X52300Y-34700D01*
X52700Y-34500D02*
G75*
G03X52700Y-34500I-200J0D01*
G74*
G01*
X53300Y-34300D02*
X53700Y-34700D01*
X53700Y-34300D02*
X53300Y-34700D01*
X53700Y-34500D02*
G75*
G03X53700Y-34500I-200J0D01*
G74*
G01*
X57300Y-20800D02*
X57700Y-21200D01*
X57700Y-20800D02*
X57300Y-21200D01*
X57700Y-21000D02*
G75*
G03X57700Y-21000I-200J0D01*
G74*
G01*
X58300Y-20800D02*
X58700Y-21200D01*
X58700Y-20800D02*
X58300Y-21200D01*
X58700Y-21000D02*
G75*
G03X58700Y-21000I-200J0D01*
G74*
G01*
X59300Y-20800D02*
X59700Y-21200D01*
X59700Y-20800D02*
X59300Y-21200D01*
X59700Y-21000D02*
G75*
G03X59700Y-21000I-200J0D01*
G74*
G01*
X61300Y-20800D02*
X61700Y-21200D01*
X61700Y-20800D02*
X61300Y-21200D01*
X61700Y-21000D02*
G75*
G03X61700Y-21000I-200J0D01*
G74*
G01*
X62300Y-20800D02*
X62700Y-21200D01*
X62700Y-20800D02*
X62300Y-21200D01*
X62700Y-21000D02*
G75*
G03X62700Y-21000I-200J0D01*
G74*
G01*
X64300Y-20800D02*
X64700Y-21200D01*
X64700Y-20800D02*
X64300Y-21200D01*
X64700Y-21000D02*
G75*
G03X64700Y-21000I-200J0D01*
G74*
G01*
X65300Y-20800D02*
X65700Y-21200D01*
X65700Y-20800D02*
X65300Y-21200D01*
X65700Y-21000D02*
G75*
G03X65700Y-21000I-200J0D01*
G74*
G01*
G54D12*
X1068Y-1777D02*
X1068Y-596D01*
X1349Y-596D01*
X1518Y-652D01*
X1631Y-764D01*
X1687Y-877D01*
X1743Y-1102D01*
X1743Y-1271D01*
X1687Y-1496D01*
X1631Y-1608D01*
X1518Y-1721D01*
X1349Y-1777D01*
X1068Y-1777D01*
X2249Y-1777D02*
X2249Y-989D01*
X2249Y-1214D02*
X2305Y-1102D01*
X2362Y-1046D01*
X2474Y-989D01*
X2587Y-989D01*
X2980Y-1777D02*
X2980Y-989D01*
X2980Y-596D02*
X2924Y-652D01*
X2980Y-708D01*
X3037Y-652D01*
X2980Y-596D01*
X2980Y-708D01*
X3712Y-1777D02*
X3599Y-1721D01*
X3543Y-1608D01*
X3543Y-596D01*
X4330Y-1777D02*
X4218Y-1721D01*
X4161Y-1608D01*
X4161Y-596D01*
X5680Y-1777D02*
X5680Y-596D01*
X6074Y-1439D01*
X6467Y-596D01*
X6467Y-1777D01*
X7536Y-1777D02*
X7536Y-1158D01*
X7480Y-1046D01*
X7367Y-989D01*
X7142Y-989D01*
X7030Y-1046D01*
X7536Y-1721D02*
X7424Y-1777D01*
X7142Y-1777D01*
X7030Y-1721D01*
X6974Y-1608D01*
X6974Y-1496D01*
X7030Y-1383D01*
X7142Y-1327D01*
X7424Y-1327D01*
X7536Y-1271D01*
X8098Y-989D02*
X8098Y-2170D01*
X8098Y-1046D02*
X8211Y-989D01*
X8436Y-989D01*
X8548Y-1046D01*
X8605Y-1102D01*
X8661Y-1214D01*
X8661Y-1552D01*
X8605Y-1664D01*
X8548Y-1721D01*
X8436Y-1777D01*
X8211Y-1777D01*
X8098Y-1721D01*
X9167Y-1664D02*
X9223Y-1721D01*
X9167Y-1777D01*
X9111Y-1721D01*
X9167Y-1664D01*
X9167Y-1777D01*
X9167Y-1046D02*
X9223Y-1102D01*
X9167Y-1158D01*
X9111Y-1102D01*
X9167Y-1046D01*
X9167Y-1158D01*
X-250Y-3654D02*
X0Y-3904D01*
X0Y-3654D02*
X-250Y-3904D01*
X1293Y-3076D02*
X1406Y-3076D01*
X1518Y-3132D01*
X1574Y-3188D01*
X1631Y-3301D01*
X1687Y-3526D01*
X1687Y-3807D01*
X1631Y-4032D01*
X1574Y-4145D01*
X1518Y-4201D01*
X1406Y-4257D01*
X1293Y-4257D01*
X1181Y-4201D01*
X1124Y-4145D01*
X1068Y-4032D01*
X1012Y-3807D01*
X1012Y-3526D01*
X1068Y-3301D01*
X1124Y-3188D01*
X1181Y-3132D01*
X1293Y-3076D01*
X2193Y-4145D02*
X2249Y-4201D01*
X2193Y-4257D01*
X2137Y-4201D01*
X2193Y-4145D01*
X2193Y-4257D01*
X3262Y-3076D02*
X3037Y-3076D01*
X2924Y-3132D01*
X2868Y-3188D01*
X2755Y-3357D01*
X2699Y-3582D01*
X2699Y-4032D01*
X2755Y-4145D01*
X2812Y-4201D01*
X2924Y-4257D01*
X3149Y-4257D01*
X3262Y-4201D01*
X3318Y-4145D01*
X3374Y-4032D01*
X3374Y-3751D01*
X3318Y-3638D01*
X3262Y-3582D01*
X3149Y-3526D01*
X2924Y-3526D01*
X2812Y-3582D01*
X2755Y-3638D01*
X2699Y-3751D01*
X4386Y-3470D02*
X4386Y-4257D01*
X4105Y-3020D02*
X3824Y-3863D01*
X4555Y-3863D01*
X5005Y-4257D02*
X5005Y-3470D01*
X5005Y-3582D02*
X5061Y-3526D01*
X5174Y-3470D01*
X5343Y-3470D01*
X5455Y-3526D01*
X5511Y-3638D01*
X5511Y-4257D01*
X5511Y-3638D02*
X5568Y-3526D01*
X5680Y-3470D01*
X5849Y-3470D01*
X5961Y-3526D01*
X6017Y-3638D01*
X6017Y-4257D01*
X6580Y-4257D02*
X6580Y-3470D01*
X6580Y-3582D02*
X6636Y-3526D01*
X6749Y-3470D01*
X6917Y-3470D01*
X7030Y-3526D01*
X7086Y-3638D01*
X7086Y-4257D01*
X7086Y-3638D02*
X7142Y-3526D01*
X7255Y-3470D01*
X7424Y-3470D01*
X7536Y-3526D01*
X7592Y-3638D01*
X7592Y-4257D01*
X9898Y-3020D02*
X8886Y-4538D01*
X11417Y-3076D02*
X11529Y-3076D01*
X11642Y-3132D01*
X11698Y-3188D01*
X11754Y-3301D01*
X11811Y-3526D01*
X11811Y-3807D01*
X11754Y-4032D01*
X11698Y-4145D01*
X11642Y-4201D01*
X11529Y-4257D01*
X11417Y-4257D01*
X11304Y-4201D01*
X11248Y-4145D01*
X11192Y-4032D01*
X11136Y-3807D01*
X11136Y-3526D01*
X11192Y-3301D01*
X11248Y-3188D01*
X11304Y-3132D01*
X11417Y-3076D01*
X12317Y-4145D02*
X12373Y-4201D01*
X12317Y-4257D01*
X12260Y-4201D01*
X12317Y-4145D01*
X12317Y-4257D01*
X13104Y-3076D02*
X13217Y-3076D01*
X13329Y-3132D01*
X13385Y-3188D01*
X13442Y-3301D01*
X13498Y-3526D01*
X13498Y-3807D01*
X13442Y-4032D01*
X13385Y-4145D01*
X13329Y-4201D01*
X13217Y-4257D01*
X13104Y-4257D01*
X12992Y-4201D01*
X12935Y-4145D01*
X12879Y-4032D01*
X12823Y-3807D01*
X12823Y-3526D01*
X12879Y-3301D01*
X12935Y-3188D01*
X12992Y-3132D01*
X13104Y-3076D01*
X13948Y-3188D02*
X14004Y-3132D01*
X14116Y-3076D01*
X14398Y-3076D01*
X14510Y-3132D01*
X14566Y-3188D01*
X14623Y-3301D01*
X14623Y-3413D01*
X14566Y-3582D01*
X13892Y-4257D01*
X14623Y-4257D01*
X15691Y-3076D02*
X15129Y-3076D01*
X15073Y-3638D01*
X15129Y-3582D01*
X15241Y-3526D01*
X15523Y-3526D01*
X15635Y-3582D01*
X15691Y-3638D01*
X15748Y-3751D01*
X15748Y-4032D01*
X15691Y-4145D01*
X15635Y-4201D01*
X15523Y-4257D01*
X15241Y-4257D01*
X15129Y-4201D01*
X15073Y-4145D01*
X16197Y-3076D02*
X16197Y-3301D01*
X16647Y-3076D02*
X16647Y-3301D01*
X18391Y-4707D02*
X18335Y-4651D01*
X18222Y-4482D01*
X18166Y-4370D01*
X18110Y-4201D01*
X18053Y-3920D01*
X18053Y-3695D01*
X18110Y-3413D01*
X18166Y-3245D01*
X18222Y-3132D01*
X18335Y-2964D01*
X18391Y-2907D01*
X19460Y-4257D02*
X18785Y-4257D01*
X19122Y-4257D02*
X19122Y-3076D01*
X19010Y-3245D01*
X18897Y-3357D01*
X18785Y-3413D01*
X20472Y-3076D02*
X20247Y-3076D01*
X20134Y-3132D01*
X20078Y-3188D01*
X19966Y-3357D01*
X19910Y-3582D01*
X19910Y-4032D01*
X19966Y-4145D01*
X20022Y-4201D01*
X20134Y-4257D01*
X20359Y-4257D01*
X20472Y-4201D01*
X20528Y-4145D01*
X20584Y-4032D01*
X20584Y-3751D01*
X20528Y-3638D01*
X20472Y-3582D01*
X20359Y-3526D01*
X20134Y-3526D01*
X20022Y-3582D01*
X19966Y-3638D01*
X19910Y-3751D01*
X21991Y-4257D02*
X21991Y-3076D01*
X22497Y-4257D02*
X22497Y-3638D01*
X22440Y-3526D01*
X22328Y-3470D01*
X22159Y-3470D01*
X22047Y-3526D01*
X21991Y-3582D01*
X23228Y-4257D02*
X23115Y-4201D01*
X23059Y-4145D01*
X23003Y-4032D01*
X23003Y-3695D01*
X23059Y-3582D01*
X23115Y-3526D01*
X23228Y-3470D01*
X23397Y-3470D01*
X23509Y-3526D01*
X23565Y-3582D01*
X23622Y-3695D01*
X23622Y-4032D01*
X23565Y-4145D01*
X23509Y-4201D01*
X23397Y-4257D01*
X23228Y-4257D01*
X24296Y-4257D02*
X24184Y-4201D01*
X24128Y-4088D01*
X24128Y-3076D01*
X25196Y-4201D02*
X25084Y-4257D01*
X24859Y-4257D01*
X24746Y-4201D01*
X24690Y-4088D01*
X24690Y-3638D01*
X24746Y-3526D01*
X24859Y-3470D01*
X25084Y-3470D01*
X25196Y-3526D01*
X25253Y-3638D01*
X25253Y-3751D01*
X24690Y-3863D01*
X25703Y-4201D02*
X25815Y-4257D01*
X26040Y-4257D01*
X26152Y-4201D01*
X26209Y-4088D01*
X26209Y-4032D01*
X26152Y-3920D01*
X26040Y-3863D01*
X25871Y-3863D01*
X25759Y-3807D01*
X25703Y-3695D01*
X25703Y-3638D01*
X25759Y-3526D01*
X25871Y-3470D01*
X26040Y-3470D01*
X26152Y-3526D01*
X26602Y-4707D02*
X26659Y-4651D01*
X26771Y-4482D01*
X26827Y-4370D01*
X26884Y-4201D01*
X26940Y-3920D01*
X26940Y-3695D01*
X26884Y-3413D01*
X26827Y-3245D01*
X26771Y-3132D01*
X26659Y-2964D01*
X26602Y-2907D01*
G54D11*
X0Y-5338D02*
G75*
G03X0Y-5338I-157J0D01*
G74*
G01*
G54D12*
X1293Y-4635D02*
X1406Y-4635D01*
X1518Y-4691D01*
X1574Y-4748D01*
X1631Y-4860D01*
X1687Y-5085D01*
X1687Y-5366D01*
X1631Y-5591D01*
X1574Y-5704D01*
X1518Y-5760D01*
X1406Y-5816D01*
X1293Y-5816D01*
X1181Y-5760D01*
X1124Y-5704D01*
X1068Y-5591D01*
X1012Y-5366D01*
X1012Y-5085D01*
X1068Y-4860D01*
X1124Y-4748D01*
X1181Y-4691D01*
X1293Y-4635D01*
X2193Y-5704D02*
X2249Y-5760D01*
X2193Y-5816D01*
X2137Y-5760D01*
X2193Y-5704D01*
X2193Y-5816D01*
X2924Y-5141D02*
X2812Y-5085D01*
X2755Y-5029D01*
X2699Y-4916D01*
X2699Y-4860D01*
X2755Y-4748D01*
X2812Y-4691D01*
X2924Y-4635D01*
X3149Y-4635D01*
X3262Y-4691D01*
X3318Y-4748D01*
X3374Y-4860D01*
X3374Y-4916D01*
X3318Y-5029D01*
X3262Y-5085D01*
X3149Y-5141D01*
X2924Y-5141D01*
X2812Y-5197D01*
X2755Y-5254D01*
X2699Y-5366D01*
X2699Y-5591D01*
X2755Y-5704D01*
X2812Y-5760D01*
X2924Y-5816D01*
X3149Y-5816D01*
X3262Y-5760D01*
X3318Y-5704D01*
X3374Y-5591D01*
X3374Y-5366D01*
X3318Y-5254D01*
X3262Y-5197D01*
X3149Y-5141D01*
X4105Y-4635D02*
X4218Y-4635D01*
X4330Y-4691D01*
X4386Y-4748D01*
X4443Y-4860D01*
X4499Y-5085D01*
X4499Y-5366D01*
X4443Y-5591D01*
X4386Y-5704D01*
X4330Y-5760D01*
X4218Y-5816D01*
X4105Y-5816D01*
X3993Y-5760D01*
X3937Y-5704D01*
X3880Y-5591D01*
X3824Y-5366D01*
X3824Y-5085D01*
X3880Y-4860D01*
X3937Y-4748D01*
X3993Y-4691D01*
X4105Y-4635D01*
X5005Y-5816D02*
X5005Y-5029D01*
X5005Y-5141D02*
X5061Y-5085D01*
X5174Y-5029D01*
X5343Y-5029D01*
X5455Y-5085D01*
X5511Y-5197D01*
X5511Y-5816D01*
X5511Y-5197D02*
X5568Y-5085D01*
X5680Y-5029D01*
X5849Y-5029D01*
X5961Y-5085D01*
X6017Y-5197D01*
X6017Y-5816D01*
X6580Y-5816D02*
X6580Y-5029D01*
X6580Y-5141D02*
X6636Y-5085D01*
X6749Y-5029D01*
X6917Y-5029D01*
X7030Y-5085D01*
X7086Y-5197D01*
X7086Y-5816D01*
X7086Y-5197D02*
X7142Y-5085D01*
X7255Y-5029D01*
X7424Y-5029D01*
X7536Y-5085D01*
X7592Y-5197D01*
X7592Y-5816D01*
X9898Y-4579D02*
X8886Y-6097D01*
X11417Y-4635D02*
X11529Y-4635D01*
X11642Y-4691D01*
X11698Y-4748D01*
X11754Y-4860D01*
X11811Y-5085D01*
X11811Y-5366D01*
X11754Y-5591D01*
X11698Y-5704D01*
X11642Y-5760D01*
X11529Y-5816D01*
X11417Y-5816D01*
X11304Y-5760D01*
X11248Y-5704D01*
X11192Y-5591D01*
X11136Y-5366D01*
X11136Y-5085D01*
X11192Y-4860D01*
X11248Y-4748D01*
X11304Y-4691D01*
X11417Y-4635D01*
X12317Y-5704D02*
X12373Y-5760D01*
X12317Y-5816D01*
X12260Y-5760D01*
X12317Y-5704D01*
X12317Y-5816D01*
X13104Y-4635D02*
X13217Y-4635D01*
X13329Y-4691D01*
X13385Y-4748D01*
X13442Y-4860D01*
X13498Y-5085D01*
X13498Y-5366D01*
X13442Y-5591D01*
X13385Y-5704D01*
X13329Y-5760D01*
X13217Y-5816D01*
X13104Y-5816D01*
X12992Y-5760D01*
X12935Y-5704D01*
X12879Y-5591D01*
X12823Y-5366D01*
X12823Y-5085D01*
X12879Y-4860D01*
X12935Y-4748D01*
X12992Y-4691D01*
X13104Y-4635D01*
X13892Y-4635D02*
X14623Y-4635D01*
X14229Y-5085D01*
X14398Y-5085D01*
X14510Y-5141D01*
X14566Y-5197D01*
X14623Y-5310D01*
X14623Y-5591D01*
X14566Y-5704D01*
X14510Y-5760D01*
X14398Y-5816D01*
X14060Y-5816D01*
X13948Y-5760D01*
X13892Y-5704D01*
X15073Y-4748D02*
X15129Y-4691D01*
X15241Y-4635D01*
X15523Y-4635D01*
X15635Y-4691D01*
X15691Y-4748D01*
X15748Y-4860D01*
X15748Y-4973D01*
X15691Y-5141D01*
X15016Y-5816D01*
X15748Y-5816D01*
X16197Y-4635D02*
X16197Y-4860D01*
X16647Y-4635D02*
X16647Y-4860D01*
X18391Y-6266D02*
X18335Y-6210D01*
X18222Y-6041D01*
X18166Y-5929D01*
X18110Y-5760D01*
X18053Y-5479D01*
X18053Y-5254D01*
X18110Y-4973D01*
X18166Y-4804D01*
X18222Y-4691D01*
X18335Y-4523D01*
X18391Y-4466D01*
X19347Y-4635D02*
X19122Y-4635D01*
X19010Y-4691D01*
X18953Y-4748D01*
X18841Y-4916D01*
X18785Y-5141D01*
X18785Y-5591D01*
X18841Y-5704D01*
X18897Y-5760D01*
X19010Y-5816D01*
X19235Y-5816D01*
X19347Y-5760D01*
X19403Y-5704D01*
X19460Y-5591D01*
X19460Y-5310D01*
X19403Y-5197D01*
X19347Y-5141D01*
X19235Y-5085D01*
X19010Y-5085D01*
X18897Y-5141D01*
X18841Y-5197D01*
X18785Y-5310D01*
X20866Y-5816D02*
X20866Y-4635D01*
X21372Y-5816D02*
X21372Y-5197D01*
X21316Y-5085D01*
X21203Y-5029D01*
X21034Y-5029D01*
X20922Y-5085D01*
X20866Y-5141D01*
X22103Y-5816D02*
X21991Y-5760D01*
X21934Y-5704D01*
X21878Y-5591D01*
X21878Y-5254D01*
X21934Y-5141D01*
X21991Y-5085D01*
X22103Y-5029D01*
X22272Y-5029D01*
X22384Y-5085D01*
X22440Y-5141D01*
X22497Y-5254D01*
X22497Y-5591D01*
X22440Y-5704D01*
X22384Y-5760D01*
X22272Y-5816D01*
X22103Y-5816D01*
X23172Y-5816D02*
X23059Y-5760D01*
X23003Y-5647D01*
X23003Y-4635D01*
X24071Y-5760D02*
X23959Y-5816D01*
X23734Y-5816D01*
X23622Y-5760D01*
X23565Y-5647D01*
X23565Y-5197D01*
X23622Y-5085D01*
X23734Y-5029D01*
X23959Y-5029D01*
X24071Y-5085D01*
X24128Y-5197D01*
X24128Y-5310D01*
X23565Y-5422D01*
X24578Y-5760D02*
X24690Y-5816D01*
X24915Y-5816D01*
X25028Y-5760D01*
X25084Y-5647D01*
X25084Y-5591D01*
X25028Y-5479D01*
X24915Y-5422D01*
X24746Y-5422D01*
X24634Y-5366D01*
X24578Y-5254D01*
X24578Y-5197D01*
X24634Y-5085D01*
X24746Y-5029D01*
X24915Y-5029D01*
X25028Y-5085D01*
X25478Y-6266D02*
X25534Y-6210D01*
X25646Y-6041D01*
X25703Y-5929D01*
X25759Y-5760D01*
X25815Y-5479D01*
X25815Y-5254D01*
X25759Y-4973D01*
X25703Y-4804D01*
X25646Y-4691D01*
X25534Y-4523D01*
X25478Y-4466D01*
X-160Y-6737D02*
X-160Y-7057D01*
X-320Y-6897D02*
X0Y-6897D01*
X1293Y-6194D02*
X1406Y-6194D01*
X1518Y-6250D01*
X1574Y-6307D01*
X1631Y-6419D01*
X1687Y-6644D01*
X1687Y-6925D01*
X1631Y-7150D01*
X1574Y-7263D01*
X1518Y-7319D01*
X1406Y-7375D01*
X1293Y-7375D01*
X1181Y-7319D01*
X1124Y-7263D01*
X1068Y-7150D01*
X1012Y-6925D01*
X1012Y-6644D01*
X1068Y-6419D01*
X1124Y-6307D01*
X1181Y-6250D01*
X1293Y-6194D01*
X2193Y-7263D02*
X2249Y-7319D01*
X2193Y-7375D01*
X2137Y-7319D01*
X2193Y-7263D01*
X2193Y-7375D01*
X2924Y-6700D02*
X2812Y-6644D01*
X2755Y-6588D01*
X2699Y-6475D01*
X2699Y-6419D01*
X2755Y-6307D01*
X2812Y-6250D01*
X2924Y-6194D01*
X3149Y-6194D01*
X3262Y-6250D01*
X3318Y-6307D01*
X3374Y-6419D01*
X3374Y-6475D01*
X3318Y-6588D01*
X3262Y-6644D01*
X3149Y-6700D01*
X2924Y-6700D01*
X2812Y-6757D01*
X2755Y-6813D01*
X2699Y-6925D01*
X2699Y-7150D01*
X2755Y-7263D01*
X2812Y-7319D01*
X2924Y-7375D01*
X3149Y-7375D01*
X3262Y-7319D01*
X3318Y-7263D01*
X3374Y-7150D01*
X3374Y-6925D01*
X3318Y-6813D01*
X3262Y-6757D01*
X3149Y-6700D01*
X4499Y-7375D02*
X3824Y-7375D01*
X4161Y-7375D02*
X4161Y-6194D01*
X4049Y-6363D01*
X3937Y-6475D01*
X3824Y-6532D01*
X5005Y-7375D02*
X5005Y-6588D01*
X5005Y-6700D02*
X5061Y-6644D01*
X5174Y-6588D01*
X5343Y-6588D01*
X5455Y-6644D01*
X5511Y-6757D01*
X5511Y-7375D01*
X5511Y-6757D02*
X5568Y-6644D01*
X5680Y-6588D01*
X5849Y-6588D01*
X5961Y-6644D01*
X6017Y-6757D01*
X6017Y-7375D01*
X6580Y-7375D02*
X6580Y-6588D01*
X6580Y-6700D02*
X6636Y-6644D01*
X6749Y-6588D01*
X6917Y-6588D01*
X7030Y-6644D01*
X7086Y-6757D01*
X7086Y-7375D01*
X7086Y-6757D02*
X7142Y-6644D01*
X7255Y-6588D01*
X7424Y-6588D01*
X7536Y-6644D01*
X7592Y-6757D01*
X7592Y-7375D01*
X9898Y-6138D02*
X8886Y-7656D01*
X11417Y-6194D02*
X11529Y-6194D01*
X11642Y-6250D01*
X11698Y-6307D01*
X11754Y-6419D01*
X11811Y-6644D01*
X11811Y-6925D01*
X11754Y-7150D01*
X11698Y-7263D01*
X11642Y-7319D01*
X11529Y-7375D01*
X11417Y-7375D01*
X11304Y-7319D01*
X11248Y-7263D01*
X11192Y-7150D01*
X11136Y-6925D01*
X11136Y-6644D01*
X11192Y-6419D01*
X11248Y-6307D01*
X11304Y-6250D01*
X11417Y-6194D01*
X12317Y-7263D02*
X12373Y-7319D01*
X12317Y-7375D01*
X12260Y-7319D01*
X12317Y-7263D01*
X12317Y-7375D01*
X13104Y-6194D02*
X13217Y-6194D01*
X13329Y-6250D01*
X13385Y-6307D01*
X13442Y-6419D01*
X13498Y-6644D01*
X13498Y-6925D01*
X13442Y-7150D01*
X13385Y-7263D01*
X13329Y-7319D01*
X13217Y-7375D01*
X13104Y-7375D01*
X12992Y-7319D01*
X12935Y-7263D01*
X12879Y-7150D01*
X12823Y-6925D01*
X12823Y-6644D01*
X12879Y-6419D01*
X12935Y-6307D01*
X12992Y-6250D01*
X13104Y-6194D01*
X13892Y-6194D02*
X14623Y-6194D01*
X14229Y-6644D01*
X14398Y-6644D01*
X14510Y-6700D01*
X14566Y-6757D01*
X14623Y-6869D01*
X14623Y-7150D01*
X14566Y-7263D01*
X14510Y-7319D01*
X14398Y-7375D01*
X14060Y-7375D01*
X13948Y-7319D01*
X13892Y-7263D01*
X15073Y-6307D02*
X15129Y-6250D01*
X15241Y-6194D01*
X15523Y-6194D01*
X15635Y-6250D01*
X15691Y-6307D01*
X15748Y-6419D01*
X15748Y-6532D01*
X15691Y-6700D01*
X15016Y-7375D01*
X15748Y-7375D01*
X16197Y-6194D02*
X16197Y-6419D01*
X16647Y-6194D02*
X16647Y-6419D01*
X18391Y-7825D02*
X18335Y-7769D01*
X18222Y-7600D01*
X18166Y-7488D01*
X18110Y-7319D01*
X18053Y-7038D01*
X18053Y-6813D01*
X18110Y-6532D01*
X18166Y-6363D01*
X18222Y-6250D01*
X18335Y-6082D01*
X18391Y-6025D01*
X18728Y-6194D02*
X19460Y-6194D01*
X19066Y-6644D01*
X19235Y-6644D01*
X19347Y-6700D01*
X19403Y-6757D01*
X19460Y-6869D01*
X19460Y-7150D01*
X19403Y-7263D01*
X19347Y-7319D01*
X19235Y-7375D01*
X18897Y-7375D01*
X18785Y-7319D01*
X18728Y-7263D01*
X20191Y-6194D02*
X20303Y-6194D01*
X20416Y-6250D01*
X20472Y-6307D01*
X20528Y-6419D01*
X20584Y-6644D01*
X20584Y-6925D01*
X20528Y-7150D01*
X20472Y-7263D01*
X20416Y-7319D01*
X20303Y-7375D01*
X20191Y-7375D01*
X20078Y-7319D01*
X20022Y-7263D01*
X19966Y-7150D01*
X19910Y-6925D01*
X19910Y-6644D01*
X19966Y-6419D01*
X20022Y-6307D01*
X20078Y-6250D01*
X20191Y-6194D01*
X21991Y-7375D02*
X21991Y-6194D01*
X22497Y-7375D02*
X22497Y-6757D01*
X22440Y-6644D01*
X22328Y-6588D01*
X22159Y-6588D01*
X22047Y-6644D01*
X21991Y-6700D01*
X23228Y-7375D02*
X23115Y-7319D01*
X23059Y-7263D01*
X23003Y-7150D01*
X23003Y-6813D01*
X23059Y-6700D01*
X23115Y-6644D01*
X23228Y-6588D01*
X23397Y-6588D01*
X23509Y-6644D01*
X23565Y-6700D01*
X23622Y-6813D01*
X23622Y-7150D01*
X23565Y-7263D01*
X23509Y-7319D01*
X23397Y-7375D01*
X23228Y-7375D01*
X24296Y-7375D02*
X24184Y-7319D01*
X24128Y-7206D01*
X24128Y-6194D01*
X25196Y-7319D02*
X25084Y-7375D01*
X24859Y-7375D01*
X24746Y-7319D01*
X24690Y-7206D01*
X24690Y-6757D01*
X24746Y-6644D01*
X24859Y-6588D01*
X25084Y-6588D01*
X25196Y-6644D01*
X25253Y-6757D01*
X25253Y-6869D01*
X24690Y-6982D01*
X25703Y-7319D02*
X25815Y-7375D01*
X26040Y-7375D01*
X26152Y-7319D01*
X26209Y-7206D01*
X26209Y-7150D01*
X26152Y-7038D01*
X26040Y-6982D01*
X25871Y-6982D01*
X25759Y-6925D01*
X25703Y-6813D01*
X25703Y-6757D01*
X25759Y-6644D01*
X25871Y-6588D01*
X26040Y-6588D01*
X26152Y-6644D01*
X26602Y-7825D02*
X26659Y-7769D01*
X26771Y-7600D01*
X26827Y-7488D01*
X26884Y-7319D01*
X26940Y-7038D01*
X26940Y-6813D01*
X26884Y-6532D01*
X26827Y-6363D01*
X26771Y-6250D01*
X26659Y-6082D01*
X26602Y-6025D01*
G54D11*
X-57Y-8595D02*
X-57Y-8317D01*
X-336Y-8317D01*
X-336Y-8595D01*
X-57Y-8595D01*
G54D12*
X1687Y-8934D02*
X1012Y-8934D01*
X1349Y-8934D02*
X1349Y-7753D01*
X1237Y-7922D01*
X1124Y-8034D01*
X1012Y-8091D01*
X2193Y-8822D02*
X2249Y-8878D01*
X2193Y-8934D01*
X2137Y-8878D01*
X2193Y-8822D01*
X2193Y-8934D01*
X2980Y-7753D02*
X3093Y-7753D01*
X3205Y-7809D01*
X3262Y-7866D01*
X3318Y-7978D01*
X3374Y-8203D01*
X3374Y-8484D01*
X3318Y-8709D01*
X3262Y-8822D01*
X3205Y-8878D01*
X3093Y-8934D01*
X2980Y-8934D01*
X2868Y-8878D01*
X2812Y-8822D01*
X2755Y-8709D01*
X2699Y-8484D01*
X2699Y-8203D01*
X2755Y-7978D01*
X2812Y-7866D01*
X2868Y-7809D01*
X2980Y-7753D01*
X4105Y-7753D02*
X4218Y-7753D01*
X4330Y-7809D01*
X4386Y-7866D01*
X4443Y-7978D01*
X4499Y-8203D01*
X4499Y-8484D01*
X4443Y-8709D01*
X4386Y-8822D01*
X4330Y-8878D01*
X4218Y-8934D01*
X4105Y-8934D01*
X3993Y-8878D01*
X3937Y-8822D01*
X3880Y-8709D01*
X3824Y-8484D01*
X3824Y-8203D01*
X3880Y-7978D01*
X3937Y-7866D01*
X3993Y-7809D01*
X4105Y-7753D01*
X5005Y-8934D02*
X5005Y-8147D01*
X5005Y-8259D02*
X5061Y-8203D01*
X5174Y-8147D01*
X5343Y-8147D01*
X5455Y-8203D01*
X5511Y-8316D01*
X5511Y-8934D01*
X5511Y-8316D02*
X5568Y-8203D01*
X5680Y-8147D01*
X5849Y-8147D01*
X5961Y-8203D01*
X6017Y-8316D01*
X6017Y-8934D01*
X6580Y-8934D02*
X6580Y-8147D01*
X6580Y-8259D02*
X6636Y-8203D01*
X6749Y-8147D01*
X6917Y-8147D01*
X7030Y-8203D01*
X7086Y-8316D01*
X7086Y-8934D01*
X7086Y-8316D02*
X7142Y-8203D01*
X7255Y-8147D01*
X7424Y-8147D01*
X7536Y-8203D01*
X7592Y-8316D01*
X7592Y-8934D01*
X9898Y-7697D02*
X8886Y-9215D01*
X11417Y-7753D02*
X11529Y-7753D01*
X11642Y-7809D01*
X11698Y-7866D01*
X11754Y-7978D01*
X11811Y-8203D01*
X11811Y-8484D01*
X11754Y-8709D01*
X11698Y-8822D01*
X11642Y-8878D01*
X11529Y-8934D01*
X11417Y-8934D01*
X11304Y-8878D01*
X11248Y-8822D01*
X11192Y-8709D01*
X11136Y-8484D01*
X11136Y-8203D01*
X11192Y-7978D01*
X11248Y-7866D01*
X11304Y-7809D01*
X11417Y-7753D01*
X12317Y-8822D02*
X12373Y-8878D01*
X12317Y-8934D01*
X12260Y-8878D01*
X12317Y-8822D01*
X12317Y-8934D01*
X13104Y-7753D02*
X13217Y-7753D01*
X13329Y-7809D01*
X13385Y-7866D01*
X13442Y-7978D01*
X13498Y-8203D01*
X13498Y-8484D01*
X13442Y-8709D01*
X13385Y-8822D01*
X13329Y-8878D01*
X13217Y-8934D01*
X13104Y-8934D01*
X12992Y-8878D01*
X12935Y-8822D01*
X12879Y-8709D01*
X12823Y-8484D01*
X12823Y-8203D01*
X12879Y-7978D01*
X12935Y-7866D01*
X12992Y-7809D01*
X13104Y-7753D01*
X13892Y-7753D02*
X14623Y-7753D01*
X14229Y-8203D01*
X14398Y-8203D01*
X14510Y-8259D01*
X14566Y-8316D01*
X14623Y-8428D01*
X14623Y-8709D01*
X14566Y-8822D01*
X14510Y-8878D01*
X14398Y-8934D01*
X14060Y-8934D01*
X13948Y-8878D01*
X13892Y-8822D01*
X15185Y-8934D02*
X15410Y-8934D01*
X15523Y-8878D01*
X15579Y-8822D01*
X15691Y-8653D01*
X15748Y-8428D01*
X15748Y-7978D01*
X15691Y-7866D01*
X15635Y-7809D01*
X15523Y-7753D01*
X15298Y-7753D01*
X15185Y-7809D01*
X15129Y-7866D01*
X15073Y-7978D01*
X15073Y-8259D01*
X15129Y-8372D01*
X15185Y-8428D01*
X15298Y-8484D01*
X15523Y-8484D01*
X15635Y-8428D01*
X15691Y-8372D01*
X15748Y-8259D01*
X16197Y-7753D02*
X16197Y-7978D01*
X16647Y-7753D02*
X16647Y-7978D01*
X18391Y-9384D02*
X18335Y-9328D01*
X18222Y-9159D01*
X18166Y-9047D01*
X18110Y-8878D01*
X18053Y-8597D01*
X18053Y-8372D01*
X18110Y-8091D01*
X18166Y-7922D01*
X18222Y-7809D01*
X18335Y-7641D01*
X18391Y-7584D01*
X19010Y-8259D02*
X18897Y-8203D01*
X18841Y-8147D01*
X18785Y-8034D01*
X18785Y-7978D01*
X18841Y-7866D01*
X18897Y-7809D01*
X19010Y-7753D01*
X19235Y-7753D01*
X19347Y-7809D01*
X19403Y-7866D01*
X19460Y-7978D01*
X19460Y-8034D01*
X19403Y-8147D01*
X19347Y-8203D01*
X19235Y-8259D01*
X19010Y-8259D01*
X18897Y-8316D01*
X18841Y-8372D01*
X18785Y-8484D01*
X18785Y-8709D01*
X18841Y-8822D01*
X18897Y-8878D01*
X19010Y-8934D01*
X19235Y-8934D01*
X19347Y-8878D01*
X19403Y-8822D01*
X19460Y-8709D01*
X19460Y-8484D01*
X19403Y-8372D01*
X19347Y-8316D01*
X19235Y-8259D01*
X20191Y-7753D02*
X20303Y-7753D01*
X20416Y-7809D01*
X20472Y-7866D01*
X20528Y-7978D01*
X20584Y-8203D01*
X20584Y-8484D01*
X20528Y-8709D01*
X20472Y-8822D01*
X20416Y-8878D01*
X20303Y-8934D01*
X20191Y-8934D01*
X20078Y-8878D01*
X20022Y-8822D01*
X19966Y-8709D01*
X19910Y-8484D01*
X19910Y-8203D01*
X19966Y-7978D01*
X20022Y-7866D01*
X20078Y-7809D01*
X20191Y-7753D01*
X21991Y-8934D02*
X21991Y-7753D01*
X22497Y-8934D02*
X22497Y-8316D01*
X22440Y-8203D01*
X22328Y-8147D01*
X22159Y-8147D01*
X22047Y-8203D01*
X21991Y-8259D01*
X23228Y-8934D02*
X23115Y-8878D01*
X23059Y-8822D01*
X23003Y-8709D01*
X23003Y-8372D01*
X23059Y-8259D01*
X23115Y-8203D01*
X23228Y-8147D01*
X23397Y-8147D01*
X23509Y-8203D01*
X23565Y-8259D01*
X23622Y-8372D01*
X23622Y-8709D01*
X23565Y-8822D01*
X23509Y-8878D01*
X23397Y-8934D01*
X23228Y-8934D01*
X24296Y-8934D02*
X24184Y-8878D01*
X24128Y-8766D01*
X24128Y-7753D01*
X25196Y-8878D02*
X25084Y-8934D01*
X24859Y-8934D01*
X24746Y-8878D01*
X24690Y-8766D01*
X24690Y-8316D01*
X24746Y-8203D01*
X24859Y-8147D01*
X25084Y-8147D01*
X25196Y-8203D01*
X25253Y-8316D01*
X25253Y-8428D01*
X24690Y-8541D01*
X25703Y-8878D02*
X25815Y-8934D01*
X26040Y-8934D01*
X26152Y-8878D01*
X26209Y-8766D01*
X26209Y-8709D01*
X26152Y-8597D01*
X26040Y-8541D01*
X25871Y-8541D01*
X25759Y-8484D01*
X25703Y-8372D01*
X25703Y-8316D01*
X25759Y-8203D01*
X25871Y-8147D01*
X26040Y-8147D01*
X26152Y-8203D01*
X26602Y-9384D02*
X26659Y-9328D01*
X26771Y-9159D01*
X26827Y-9047D01*
X26884Y-8878D01*
X26940Y-8597D01*
X26940Y-8372D01*
X26884Y-8091D01*
X26827Y-7922D01*
X26771Y-7809D01*
X26659Y-7641D01*
X26602Y-7584D01*
G54D11*
X-197Y-10212D02*
X0Y-10015D01*
X-197Y-9818D01*
X-394Y-10015D01*
X-197Y-10212D01*
G54D12*
X1687Y-10493D02*
X1012Y-10493D01*
X1349Y-10493D02*
X1349Y-9312D01*
X1237Y-9481D01*
X1124Y-9593D01*
X1012Y-9650D01*
X2193Y-10381D02*
X2249Y-10437D01*
X2193Y-10493D01*
X2137Y-10437D01*
X2193Y-10381D01*
X2193Y-10493D01*
X2980Y-9312D02*
X3093Y-9312D01*
X3205Y-9368D01*
X3262Y-9425D01*
X3318Y-9537D01*
X3374Y-9762D01*
X3374Y-10043D01*
X3318Y-10268D01*
X3262Y-10381D01*
X3205Y-10437D01*
X3093Y-10493D01*
X2980Y-10493D01*
X2868Y-10437D01*
X2812Y-10381D01*
X2755Y-10268D01*
X2699Y-10043D01*
X2699Y-9762D01*
X2755Y-9537D01*
X2812Y-9425D01*
X2868Y-9368D01*
X2980Y-9312D01*
X4105Y-9312D02*
X4218Y-9312D01*
X4330Y-9368D01*
X4386Y-9425D01*
X4443Y-9537D01*
X4499Y-9762D01*
X4499Y-10043D01*
X4443Y-10268D01*
X4386Y-10381D01*
X4330Y-10437D01*
X4218Y-10493D01*
X4105Y-10493D01*
X3993Y-10437D01*
X3937Y-10381D01*
X3880Y-10268D01*
X3824Y-10043D01*
X3824Y-9762D01*
X3880Y-9537D01*
X3937Y-9425D01*
X3993Y-9368D01*
X4105Y-9312D01*
X5005Y-10493D02*
X5005Y-9706D01*
X5005Y-9818D02*
X5061Y-9762D01*
X5174Y-9706D01*
X5343Y-9706D01*
X5455Y-9762D01*
X5511Y-9875D01*
X5511Y-10493D01*
X5511Y-9875D02*
X5568Y-9762D01*
X5680Y-9706D01*
X5849Y-9706D01*
X5961Y-9762D01*
X6017Y-9875D01*
X6017Y-10493D01*
X6580Y-10493D02*
X6580Y-9706D01*
X6580Y-9818D02*
X6636Y-9762D01*
X6749Y-9706D01*
X6917Y-9706D01*
X7030Y-9762D01*
X7086Y-9875D01*
X7086Y-10493D01*
X7086Y-9875D02*
X7142Y-9762D01*
X7255Y-9706D01*
X7424Y-9706D01*
X7536Y-9762D01*
X7592Y-9875D01*
X7592Y-10493D01*
X9898Y-9256D02*
X8886Y-10775D01*
X11417Y-9312D02*
X11529Y-9312D01*
X11642Y-9368D01*
X11698Y-9425D01*
X11754Y-9537D01*
X11811Y-9762D01*
X11811Y-10043D01*
X11754Y-10268D01*
X11698Y-10381D01*
X11642Y-10437D01*
X11529Y-10493D01*
X11417Y-10493D01*
X11304Y-10437D01*
X11248Y-10381D01*
X11192Y-10268D01*
X11136Y-10043D01*
X11136Y-9762D01*
X11192Y-9537D01*
X11248Y-9425D01*
X11304Y-9368D01*
X11417Y-9312D01*
X12317Y-10381D02*
X12373Y-10437D01*
X12317Y-10493D01*
X12260Y-10437D01*
X12317Y-10381D01*
X12317Y-10493D01*
X13104Y-9312D02*
X13217Y-9312D01*
X13329Y-9368D01*
X13385Y-9425D01*
X13442Y-9537D01*
X13498Y-9762D01*
X13498Y-10043D01*
X13442Y-10268D01*
X13385Y-10381D01*
X13329Y-10437D01*
X13217Y-10493D01*
X13104Y-10493D01*
X12992Y-10437D01*
X12935Y-10381D01*
X12879Y-10268D01*
X12823Y-10043D01*
X12823Y-9762D01*
X12879Y-9537D01*
X12935Y-9425D01*
X12992Y-9368D01*
X13104Y-9312D01*
X13892Y-9312D02*
X14623Y-9312D01*
X14229Y-9762D01*
X14398Y-9762D01*
X14510Y-9818D01*
X14566Y-9875D01*
X14623Y-9987D01*
X14623Y-10268D01*
X14566Y-10381D01*
X14510Y-10437D01*
X14398Y-10493D01*
X14060Y-10493D01*
X13948Y-10437D01*
X13892Y-10381D01*
X15185Y-10493D02*
X15410Y-10493D01*
X15523Y-10437D01*
X15579Y-10381D01*
X15691Y-10212D01*
X15748Y-9987D01*
X15748Y-9537D01*
X15691Y-9425D01*
X15635Y-9368D01*
X15523Y-9312D01*
X15298Y-9312D01*
X15185Y-9368D01*
X15129Y-9425D01*
X15073Y-9537D01*
X15073Y-9818D01*
X15129Y-9931D01*
X15185Y-9987D01*
X15298Y-10043D01*
X15523Y-10043D01*
X15635Y-9987D01*
X15691Y-9931D01*
X15748Y-9818D01*
X16197Y-9312D02*
X16197Y-9537D01*
X16647Y-9312D02*
X16647Y-9537D01*
X18391Y-10943D02*
X18335Y-10887D01*
X18222Y-10718D01*
X18166Y-10606D01*
X18110Y-10437D01*
X18053Y-10156D01*
X18053Y-9931D01*
X18110Y-9650D01*
X18166Y-9481D01*
X18222Y-9368D01*
X18335Y-9200D01*
X18391Y-9143D01*
X18728Y-9312D02*
X19460Y-9312D01*
X19066Y-9762D01*
X19235Y-9762D01*
X19347Y-9818D01*
X19403Y-9875D01*
X19460Y-9987D01*
X19460Y-10268D01*
X19403Y-10381D01*
X19347Y-10437D01*
X19235Y-10493D01*
X18897Y-10493D01*
X18785Y-10437D01*
X18728Y-10381D01*
X20472Y-9706D02*
X20472Y-10493D01*
X20191Y-9256D02*
X19910Y-10100D01*
X20641Y-10100D01*
X21991Y-10493D02*
X21991Y-9312D01*
X22497Y-10493D02*
X22497Y-9875D01*
X22440Y-9762D01*
X22328Y-9706D01*
X22159Y-9706D01*
X22047Y-9762D01*
X21991Y-9818D01*
X23228Y-10493D02*
X23115Y-10437D01*
X23059Y-10381D01*
X23003Y-10268D01*
X23003Y-9931D01*
X23059Y-9818D01*
X23115Y-9762D01*
X23228Y-9706D01*
X23397Y-9706D01*
X23509Y-9762D01*
X23565Y-9818D01*
X23622Y-9931D01*
X23622Y-10268D01*
X23565Y-10381D01*
X23509Y-10437D01*
X23397Y-10493D01*
X23228Y-10493D01*
X24296Y-10493D02*
X24184Y-10437D01*
X24128Y-10325D01*
X24128Y-9312D01*
X25196Y-10437D02*
X25084Y-10493D01*
X24859Y-10493D01*
X24746Y-10437D01*
X24690Y-10325D01*
X24690Y-9875D01*
X24746Y-9762D01*
X24859Y-9706D01*
X25084Y-9706D01*
X25196Y-9762D01*
X25253Y-9875D01*
X25253Y-9987D01*
X24690Y-10100D01*
X25703Y-10437D02*
X25815Y-10493D01*
X26040Y-10493D01*
X26152Y-10437D01*
X26209Y-10325D01*
X26209Y-10268D01*
X26152Y-10156D01*
X26040Y-10100D01*
X25871Y-10100D01*
X25759Y-10043D01*
X25703Y-9931D01*
X25703Y-9875D01*
X25759Y-9762D01*
X25871Y-9706D01*
X26040Y-9706D01*
X26152Y-9762D01*
X26602Y-10943D02*
X26659Y-10887D01*
X26771Y-10718D01*
X26827Y-10606D01*
X26884Y-10437D01*
X26940Y-10156D01*
X26940Y-9931D01*
X26884Y-9650D01*
X26827Y-9481D01*
X26771Y-9368D01*
X26659Y-9200D01*
X26602Y-9143D01*
X-400Y-11374D02*
X0Y-11774D01*
X0Y-11374D02*
X-400Y-11774D01*
G54D11*
X0Y-11574D02*
G75*
G03X0Y-11574I-200J0D01*
G74*
G01*
G54D12*
X1687Y-12052D02*
X1012Y-12052D01*
X1349Y-12052D02*
X1349Y-10871D01*
X1237Y-11040D01*
X1124Y-11152D01*
X1012Y-11209D01*
X2193Y-11940D02*
X2249Y-11996D01*
X2193Y-12052D01*
X2137Y-11996D01*
X2193Y-11940D01*
X2193Y-12052D01*
X2980Y-10871D02*
X3093Y-10871D01*
X3205Y-10928D01*
X3262Y-10984D01*
X3318Y-11096D01*
X3374Y-11321D01*
X3374Y-11602D01*
X3318Y-11827D01*
X3262Y-11940D01*
X3205Y-11996D01*
X3093Y-12052D01*
X2980Y-12052D01*
X2868Y-11996D01*
X2812Y-11940D01*
X2755Y-11827D01*
X2699Y-11602D01*
X2699Y-11321D01*
X2755Y-11096D01*
X2812Y-10984D01*
X2868Y-10928D01*
X2980Y-10871D01*
X3824Y-10984D02*
X3880Y-10928D01*
X3993Y-10871D01*
X4274Y-10871D01*
X4386Y-10928D01*
X4443Y-10984D01*
X4499Y-11096D01*
X4499Y-11209D01*
X4443Y-11377D01*
X3768Y-12052D01*
X4499Y-12052D01*
X5005Y-12052D02*
X5005Y-11265D01*
X5005Y-11377D02*
X5061Y-11321D01*
X5174Y-11265D01*
X5343Y-11265D01*
X5455Y-11321D01*
X5511Y-11434D01*
X5511Y-12052D01*
X5511Y-11434D02*
X5568Y-11321D01*
X5680Y-11265D01*
X5849Y-11265D01*
X5961Y-11321D01*
X6017Y-11434D01*
X6017Y-12052D01*
X6580Y-12052D02*
X6580Y-11265D01*
X6580Y-11377D02*
X6636Y-11321D01*
X6749Y-11265D01*
X6917Y-11265D01*
X7030Y-11321D01*
X7086Y-11434D01*
X7086Y-12052D01*
X7086Y-11434D02*
X7142Y-11321D01*
X7255Y-11265D01*
X7424Y-11265D01*
X7536Y-11321D01*
X7592Y-11434D01*
X7592Y-12052D01*
X9898Y-10815D02*
X8886Y-12334D01*
X11417Y-10871D02*
X11529Y-10871D01*
X11642Y-10928D01*
X11698Y-10984D01*
X11754Y-11096D01*
X11811Y-11321D01*
X11811Y-11602D01*
X11754Y-11827D01*
X11698Y-11940D01*
X11642Y-11996D01*
X11529Y-12052D01*
X11417Y-12052D01*
X11304Y-11996D01*
X11248Y-11940D01*
X11192Y-11827D01*
X11136Y-11602D01*
X11136Y-11321D01*
X11192Y-11096D01*
X11248Y-10984D01*
X11304Y-10928D01*
X11417Y-10871D01*
X12317Y-11940D02*
X12373Y-11996D01*
X12317Y-12052D01*
X12260Y-11996D01*
X12317Y-11940D01*
X12317Y-12052D01*
X13104Y-10871D02*
X13217Y-10871D01*
X13329Y-10928D01*
X13385Y-10984D01*
X13442Y-11096D01*
X13498Y-11321D01*
X13498Y-11602D01*
X13442Y-11827D01*
X13385Y-11940D01*
X13329Y-11996D01*
X13217Y-12052D01*
X13104Y-12052D01*
X12992Y-11996D01*
X12935Y-11940D01*
X12879Y-11827D01*
X12823Y-11602D01*
X12823Y-11321D01*
X12879Y-11096D01*
X12935Y-10984D01*
X12992Y-10928D01*
X13104Y-10871D01*
X14510Y-11265D02*
X14510Y-12052D01*
X14229Y-10815D02*
X13948Y-11659D01*
X14679Y-11659D01*
X15354Y-10871D02*
X15466Y-10871D01*
X15579Y-10928D01*
X15635Y-10984D01*
X15691Y-11096D01*
X15748Y-11321D01*
X15748Y-11602D01*
X15691Y-11827D01*
X15635Y-11940D01*
X15579Y-11996D01*
X15466Y-12052D01*
X15354Y-12052D01*
X15241Y-11996D01*
X15185Y-11940D01*
X15129Y-11827D01*
X15073Y-11602D01*
X15073Y-11321D01*
X15129Y-11096D01*
X15185Y-10984D01*
X15241Y-10928D01*
X15354Y-10871D01*
X16197Y-10871D02*
X16197Y-11096D01*
X16647Y-10871D02*
X16647Y-11096D01*
X18391Y-12502D02*
X18335Y-12446D01*
X18222Y-12277D01*
X18166Y-12165D01*
X18110Y-11996D01*
X18053Y-11715D01*
X18053Y-11490D01*
X18110Y-11209D01*
X18166Y-11040D01*
X18222Y-10928D01*
X18335Y-10759D01*
X18391Y-10703D01*
X18897Y-12052D02*
X19122Y-12052D01*
X19235Y-11996D01*
X19291Y-11940D01*
X19403Y-11771D01*
X19460Y-11546D01*
X19460Y-11096D01*
X19403Y-10984D01*
X19347Y-10928D01*
X19235Y-10871D01*
X19010Y-10871D01*
X18897Y-10928D01*
X18841Y-10984D01*
X18785Y-11096D01*
X18785Y-11377D01*
X18841Y-11490D01*
X18897Y-11546D01*
X19010Y-11602D01*
X19235Y-11602D01*
X19347Y-11546D01*
X19403Y-11490D01*
X19460Y-11377D01*
X20866Y-12052D02*
X20866Y-10871D01*
X21372Y-12052D02*
X21372Y-11434D01*
X21316Y-11321D01*
X21203Y-11265D01*
X21034Y-11265D01*
X20922Y-11321D01*
X20866Y-11377D01*
X22103Y-12052D02*
X21991Y-11996D01*
X21934Y-11940D01*
X21878Y-11827D01*
X21878Y-11490D01*
X21934Y-11377D01*
X21991Y-11321D01*
X22103Y-11265D01*
X22272Y-11265D01*
X22384Y-11321D01*
X22440Y-11377D01*
X22497Y-11490D01*
X22497Y-11827D01*
X22440Y-11940D01*
X22384Y-11996D01*
X22272Y-12052D01*
X22103Y-12052D01*
X23172Y-12052D02*
X23059Y-11996D01*
X23003Y-11884D01*
X23003Y-10871D01*
X24071Y-11996D02*
X23959Y-12052D01*
X23734Y-12052D01*
X23622Y-11996D01*
X23565Y-11884D01*
X23565Y-11434D01*
X23622Y-11321D01*
X23734Y-11265D01*
X23959Y-11265D01*
X24071Y-11321D01*
X24128Y-11434D01*
X24128Y-11546D01*
X23565Y-11659D01*
X24578Y-11996D02*
X24690Y-12052D01*
X24915Y-12052D01*
X25028Y-11996D01*
X25084Y-11884D01*
X25084Y-11827D01*
X25028Y-11715D01*
X24915Y-11659D01*
X24746Y-11659D01*
X24634Y-11602D01*
X24578Y-11490D01*
X24578Y-11434D01*
X24634Y-11321D01*
X24746Y-11265D01*
X24915Y-11265D01*
X25028Y-11321D01*
X25478Y-12502D02*
X25534Y-12446D01*
X25646Y-12277D01*
X25703Y-12165D01*
X25759Y-11996D01*
X25815Y-11715D01*
X25815Y-11490D01*
X25759Y-11209D01*
X25703Y-11040D01*
X25646Y-10928D01*
X25534Y-10759D01*
X25478Y-10703D01*
M02*
