G04 (created by PCBNEW (2013-07-07 BZR 4022)-stable) date 23.08.2017 13:38:22*
%MOIN*%
G04 Gerber Fmt 3.4, Leading zero omitted, Abs format*
%FSLAX34Y34*%
G01*
G70*
G90*
G04 APERTURE LIST*
%ADD10C,0.00590551*%
G04 APERTURE END LIST*
G54D10*
X61250Y-20000D02*
X61250Y-31500D01*
X68250Y-19000D02*
X62250Y-19000D01*
X69250Y-31500D02*
X69250Y-20000D01*
X61250Y-20000D02*
G75*
G02X62250Y-19000I1000J0D01*
G74*
G01*
X68250Y-19000D02*
G75*
G02X69250Y-20000I0J-1000D01*
G74*
G01*
X69250Y-31500D02*
X61250Y-31500D01*
X55206Y-32925D02*
X62293Y-32925D01*
X62293Y-32925D02*
X62293Y-37255D01*
X62293Y-37255D02*
X55206Y-37255D01*
X55206Y-37255D02*
X55206Y-32925D01*
X55206Y-32925D02*
X55206Y-38830D01*
X55206Y-38830D02*
X62293Y-38830D01*
X62293Y-38830D02*
X62293Y-37255D01*
X69099Y-30465D02*
X69099Y-30784D01*
X69081Y-30821D01*
X69062Y-30840D01*
X69024Y-30859D01*
X68949Y-30859D01*
X68912Y-30840D01*
X68893Y-30821D01*
X68874Y-30784D01*
X68874Y-30465D01*
X68481Y-30859D02*
X68706Y-30859D01*
X68593Y-30859D02*
X68593Y-30465D01*
X68631Y-30521D01*
X68668Y-30559D01*
X68706Y-30578D01*
X68940Y-31153D02*
X68883Y-31171D01*
X68865Y-31190D01*
X68846Y-31228D01*
X68846Y-31284D01*
X68865Y-31321D01*
X68883Y-31340D01*
X68921Y-31359D01*
X69071Y-31359D01*
X69071Y-30965D01*
X68940Y-30965D01*
X68902Y-30984D01*
X68883Y-31003D01*
X68865Y-31040D01*
X68865Y-31078D01*
X68883Y-31115D01*
X68902Y-31134D01*
X68940Y-31153D01*
X69071Y-31153D01*
X68490Y-31359D02*
X68677Y-31359D01*
X68677Y-30965D01*
X68359Y-30965D02*
X68359Y-31284D01*
X68340Y-31321D01*
X68321Y-31340D01*
X68284Y-31359D01*
X68209Y-31359D01*
X68171Y-31340D01*
X68152Y-31321D01*
X68134Y-31284D01*
X68134Y-30965D01*
X67946Y-31153D02*
X67815Y-31153D01*
X67759Y-31359D02*
X67946Y-31359D01*
X67946Y-30965D01*
X67759Y-30965D01*
X67459Y-31153D02*
X67590Y-31153D01*
X67590Y-31359D02*
X67590Y-30965D01*
X67402Y-30965D01*
X67027Y-31359D02*
X67159Y-31171D01*
X67252Y-31359D02*
X67252Y-30965D01*
X67102Y-30965D01*
X67065Y-30984D01*
X67046Y-31003D01*
X67027Y-31040D01*
X67027Y-31096D01*
X67046Y-31134D01*
X67065Y-31153D01*
X67102Y-31171D01*
X67252Y-31171D01*
X66952Y-31396D02*
X66652Y-31396D01*
X66371Y-31359D02*
X66559Y-31359D01*
X66559Y-30965D01*
X66240Y-31153D02*
X66109Y-31153D01*
X66053Y-31359D02*
X66240Y-31359D01*
X66240Y-30965D01*
X66053Y-30965D01*
X65978Y-31396D02*
X65678Y-31396D01*
X65584Y-30965D02*
X65584Y-31284D01*
X65565Y-31321D01*
X65546Y-31340D01*
X65509Y-31359D01*
X65434Y-31359D01*
X65396Y-31340D01*
X65378Y-31321D01*
X65359Y-31284D01*
X65359Y-30965D01*
X65190Y-31246D02*
X65003Y-31246D01*
X65228Y-31359D02*
X65096Y-30965D01*
X64965Y-31359D01*
X64609Y-31359D02*
X64740Y-31171D01*
X64834Y-31359D02*
X64834Y-30965D01*
X64684Y-30965D01*
X64646Y-30984D01*
X64628Y-31003D01*
X64609Y-31040D01*
X64609Y-31096D01*
X64628Y-31134D01*
X64646Y-31153D01*
X64684Y-31171D01*
X64834Y-31171D01*
X64497Y-30965D02*
X64272Y-30965D01*
X64384Y-31359D02*
X64384Y-30965D01*
X64234Y-31396D02*
X63934Y-31396D01*
X63709Y-31153D02*
X63840Y-31153D01*
X63840Y-31359D02*
X63840Y-30965D01*
X63653Y-30965D01*
X63278Y-31359D02*
X63409Y-31171D01*
X63503Y-31359D02*
X63503Y-30965D01*
X63353Y-30965D01*
X63315Y-30984D01*
X63297Y-31003D01*
X63278Y-31040D01*
X63278Y-31096D01*
X63297Y-31134D01*
X63315Y-31153D01*
X63353Y-31171D01*
X63503Y-31171D01*
X63203Y-31396D02*
X62903Y-31396D01*
X62678Y-31153D02*
X62622Y-31171D01*
X62603Y-31190D01*
X62584Y-31228D01*
X62584Y-31284D01*
X62603Y-31321D01*
X62622Y-31340D01*
X62659Y-31359D01*
X62809Y-31359D01*
X62809Y-30965D01*
X62678Y-30965D01*
X62640Y-30984D01*
X62622Y-31003D01*
X62603Y-31040D01*
X62603Y-31078D01*
X62622Y-31115D01*
X62640Y-31134D01*
X62678Y-31153D01*
X62809Y-31153D01*
X62228Y-31359D02*
X62416Y-31359D01*
X62416Y-30965D01*
X62097Y-31153D02*
X61966Y-31153D01*
X61909Y-31359D02*
X62097Y-31359D01*
X62097Y-30965D01*
X61909Y-30965D01*
X62099Y-37465D02*
X62099Y-37784D01*
X62081Y-37821D01*
X62062Y-37840D01*
X62024Y-37859D01*
X61949Y-37859D01*
X61912Y-37840D01*
X61893Y-37821D01*
X61874Y-37784D01*
X61874Y-37465D01*
X61706Y-37503D02*
X61687Y-37484D01*
X61650Y-37465D01*
X61556Y-37465D01*
X61518Y-37484D01*
X61500Y-37503D01*
X61481Y-37540D01*
X61481Y-37578D01*
X61500Y-37634D01*
X61725Y-37859D01*
X61481Y-37859D01*
X58777Y-37840D02*
X58721Y-37859D01*
X58627Y-37859D01*
X58590Y-37840D01*
X58571Y-37821D01*
X58552Y-37784D01*
X58552Y-37746D01*
X58571Y-37709D01*
X58590Y-37690D01*
X58627Y-37671D01*
X58702Y-37653D01*
X58740Y-37634D01*
X58759Y-37615D01*
X58777Y-37578D01*
X58777Y-37540D01*
X58759Y-37503D01*
X58740Y-37484D01*
X58702Y-37465D01*
X58609Y-37465D01*
X58552Y-37484D01*
X58384Y-37653D02*
X58252Y-37653D01*
X58196Y-37859D02*
X58384Y-37859D01*
X58384Y-37465D01*
X58196Y-37465D01*
X58028Y-37859D02*
X58028Y-37465D01*
X57803Y-37859D01*
X57803Y-37465D01*
X57615Y-37709D02*
X57315Y-37709D01*
X56921Y-37859D02*
X57146Y-37859D01*
X57034Y-37859D02*
X57034Y-37465D01*
X57071Y-37521D01*
X57109Y-37559D01*
X57146Y-37578D01*
X56790Y-37465D02*
X56546Y-37465D01*
X56678Y-37615D01*
X56621Y-37615D01*
X56584Y-37634D01*
X56565Y-37653D01*
X56546Y-37690D01*
X56546Y-37784D01*
X56565Y-37821D01*
X56584Y-37840D01*
X56621Y-37859D01*
X56734Y-37859D01*
X56771Y-37840D01*
X56790Y-37821D01*
X56415Y-37465D02*
X56153Y-37465D01*
X56321Y-37859D01*
X55834Y-37465D02*
X55909Y-37465D01*
X55947Y-37484D01*
X55965Y-37503D01*
X56003Y-37559D01*
X56022Y-37634D01*
X56022Y-37784D01*
X56003Y-37821D01*
X55984Y-37840D01*
X55947Y-37859D01*
X55872Y-37859D01*
X55834Y-37840D01*
X55815Y-37821D01*
X55797Y-37784D01*
X55797Y-37690D01*
X55815Y-37653D01*
X55834Y-37634D01*
X55872Y-37615D01*
X55947Y-37615D01*
X55984Y-37634D01*
X56003Y-37653D01*
X56022Y-37690D01*
X55647Y-37503D02*
X55628Y-37484D01*
X55590Y-37465D01*
X55497Y-37465D01*
X55459Y-37484D01*
X55440Y-37503D01*
X55422Y-37540D01*
X55422Y-37578D01*
X55440Y-37634D01*
X55665Y-37859D01*
X55422Y-37859D01*
M02*
