G04 (created by PCBNEW (2013-07-07 BZR 4022)-stable) date 23.08.2017 13:38:22*
%MOIN*%
G04 Gerber Fmt 3.4, Leading zero omitted, Abs format*
%FSLAX34Y34*%
G01*
G70*
G90*
G04 APERTURE LIST*
%ADD10C,0.00590551*%
%ADD11C,0.0590551*%
%ADD12C,0.06*%
%ADD13C,0.0787*%
%ADD14R,0.06X0.06*%
%ADD15R,0.055X0.055*%
%ADD16C,0.055*%
%ADD17C,0.0591*%
%ADD18R,0.0590551X0.23622*%
%ADD19R,0.0590551X0.0590551*%
%ADD20C,0.1378*%
G04 APERTURE END LIST*
G54D10*
G54D11*
X68750Y-30000D03*
X67750Y-30000D03*
X66750Y-30000D03*
X65750Y-30000D03*
X64750Y-30000D03*
X63750Y-30000D03*
X62750Y-30000D03*
X61750Y-30000D03*
G54D12*
X54500Y-22000D03*
X54500Y-21000D03*
X54500Y-23000D03*
G54D13*
X51000Y-22969D03*
X51000Y-18969D03*
X52250Y-28781D03*
X52250Y-32781D03*
X53500Y-28781D03*
X53500Y-32781D03*
X66750Y-24969D03*
X66750Y-20969D03*
X51000Y-28781D03*
X51000Y-32781D03*
X68000Y-24969D03*
X68000Y-20969D03*
X61281Y-22500D03*
X65281Y-22500D03*
X65269Y-25000D03*
X61269Y-25000D03*
X61281Y-23750D03*
X65281Y-23750D03*
X56000Y-21031D03*
X56000Y-25031D03*
X52500Y-19031D03*
X52500Y-23031D03*
X65269Y-28800D03*
X61269Y-28800D03*
X61281Y-27500D03*
X65281Y-27500D03*
X65969Y-41000D03*
X61969Y-41000D03*
X65969Y-39750D03*
X61969Y-39750D03*
X69250Y-20981D03*
X69250Y-24981D03*
X61281Y-26250D03*
X65281Y-26250D03*
G54D14*
X59500Y-21000D03*
G54D12*
X58500Y-21000D03*
X57500Y-21000D03*
G54D14*
X53500Y-34500D03*
G54D12*
X52500Y-34500D03*
G54D14*
X64500Y-21000D03*
G54D12*
X65500Y-21000D03*
G54D14*
X61500Y-21000D03*
G54D12*
X62500Y-21000D03*
G54D15*
X66500Y-27500D03*
G54D16*
X69500Y-27500D03*
G54D15*
X56500Y-29250D03*
G54D16*
X59500Y-29250D03*
G54D15*
X56500Y-28250D03*
G54D16*
X59500Y-28250D03*
G54D15*
X59500Y-27250D03*
G54D16*
X56500Y-27250D03*
G54D15*
X59500Y-26250D03*
G54D16*
X56500Y-26250D03*
G54D15*
X67750Y-42750D03*
G54D16*
X67750Y-39750D03*
G54D17*
X57500Y-23750D03*
X59500Y-23750D03*
X57500Y-22250D03*
X59500Y-22250D03*
X67250Y-26250D03*
X69250Y-26250D03*
G54D12*
X52250Y-36750D03*
X51250Y-36750D03*
X53250Y-36750D03*
X68500Y-19600D03*
X69500Y-19600D03*
X67500Y-19600D03*
X52000Y-24500D03*
X51000Y-24500D03*
X53000Y-24500D03*
X54250Y-26000D03*
X54250Y-27000D03*
X54250Y-25000D03*
G54D18*
X54547Y-18500D03*
X55531Y-18500D03*
X56515Y-18500D03*
X57500Y-18500D03*
X58484Y-18500D03*
X59468Y-18500D03*
X61547Y-18500D03*
X62531Y-18500D03*
X63515Y-18500D03*
X64500Y-18500D03*
X65484Y-18500D03*
X66468Y-18500D03*
X65952Y-43750D03*
X64968Y-43750D03*
X63984Y-43750D03*
X63000Y-43750D03*
X62015Y-43750D03*
X61031Y-43750D03*
X58952Y-43750D03*
X57968Y-43750D03*
X56984Y-43750D03*
X56000Y-43750D03*
X55015Y-43750D03*
X54031Y-43750D03*
G54D19*
X55750Y-33500D03*
G54D11*
X55750Y-34500D03*
X55750Y-35500D03*
X55750Y-36500D03*
X57750Y-36500D03*
X58750Y-36500D03*
X59750Y-36500D03*
X61750Y-36500D03*
X61750Y-35500D03*
X61750Y-34500D03*
X61750Y-33500D03*
G54D12*
X52000Y-27500D03*
X53000Y-27500D03*
X51000Y-27500D03*
G54D11*
X67750Y-32500D03*
X66750Y-32500D03*
X65750Y-32500D03*
X64750Y-32500D03*
X63750Y-32500D03*
X62750Y-32500D03*
X61750Y-32500D03*
X60750Y-32500D03*
X59750Y-32500D03*
X58750Y-32500D03*
X57750Y-32500D03*
X56750Y-32500D03*
X55750Y-32500D03*
X54750Y-33500D03*
X66750Y-37500D03*
X54750Y-34500D03*
X54750Y-35500D03*
X54750Y-36500D03*
X54750Y-37500D03*
X54750Y-38500D03*
X55750Y-38500D03*
X56750Y-38500D03*
X57750Y-38500D03*
X58750Y-38500D03*
X59750Y-38500D03*
X60750Y-38500D03*
X61750Y-38500D03*
X62750Y-38500D03*
X63750Y-38500D03*
X64750Y-38500D03*
X65750Y-38500D03*
X66750Y-38500D03*
X54750Y-32500D03*
X67750Y-38500D03*
X62750Y-37500D03*
X63750Y-37500D03*
X64750Y-37500D03*
G54D20*
X52219Y-17469D03*
X67967Y-17469D03*
X67967Y-45028D03*
X52219Y-45028D03*
M02*
