G04 (created by PCBNEW (2013-07-07 BZR 4022)-stable) date 23.08.2017 13:38:22*
%MOIN*%
G04 Gerber Fmt 3.4, Leading zero omitted, Abs format*
%FSLAX34Y34*%
G01*
G70*
G90*
G04 APERTURE LIST*
%ADD10C,0.00590551*%
%ADD11C,0.011811*%
%ADD12C,0.0590551*%
%ADD13C,0.06*%
%ADD14C,0.0787*%
%ADD15R,0.06X0.06*%
%ADD16R,0.055X0.055*%
%ADD17C,0.055*%
%ADD18C,0.0591*%
%ADD19R,0.0590551X0.23622*%
%ADD20R,0.0590551X0.0590551*%
%ADD21C,0.035*%
%ADD22C,0.01*%
%ADD23C,0.0393701*%
G04 APERTURE END LIST*
G54D10*
G54D11*
X50870Y-43292D02*
X50842Y-43207D01*
X50814Y-43179D01*
X50757Y-43151D01*
X50673Y-43151D01*
X50617Y-43179D01*
X50589Y-43207D01*
X50560Y-43264D01*
X50560Y-43488D01*
X51151Y-43488D01*
X51151Y-43292D01*
X51123Y-43235D01*
X51095Y-43207D01*
X51039Y-43179D01*
X50982Y-43179D01*
X50926Y-43207D01*
X50898Y-43235D01*
X50870Y-43292D01*
X50870Y-43488D01*
X51151Y-42785D02*
X51151Y-42673D01*
X51123Y-42617D01*
X51067Y-42560D01*
X50954Y-42532D01*
X50757Y-42532D01*
X50645Y-42560D01*
X50589Y-42617D01*
X50560Y-42673D01*
X50560Y-42785D01*
X50589Y-42842D01*
X50645Y-42898D01*
X50757Y-42926D01*
X50954Y-42926D01*
X51067Y-42898D01*
X51123Y-42842D01*
X51151Y-42785D01*
X51151Y-42364D02*
X51151Y-42026D01*
X50560Y-42195D02*
X51151Y-42195D01*
G54D12*
X68750Y-30000D03*
X67750Y-30000D03*
X66750Y-30000D03*
X65750Y-30000D03*
X64750Y-30000D03*
X63750Y-30000D03*
X62750Y-30000D03*
X61750Y-30000D03*
G54D13*
X54500Y-22000D03*
X54500Y-21000D03*
X54500Y-23000D03*
G54D14*
X51000Y-22969D03*
X51000Y-18969D03*
X52250Y-28781D03*
X52250Y-32781D03*
X53500Y-28781D03*
X53500Y-32781D03*
X66750Y-24969D03*
X66750Y-20969D03*
X51000Y-28781D03*
X51000Y-32781D03*
X68000Y-24969D03*
X68000Y-20969D03*
X61281Y-22500D03*
X65281Y-22500D03*
X65269Y-25000D03*
X61269Y-25000D03*
X61281Y-23750D03*
X65281Y-23750D03*
X56000Y-21031D03*
X56000Y-25031D03*
X52500Y-19031D03*
X52500Y-23031D03*
X65269Y-28800D03*
X61269Y-28800D03*
X61281Y-27500D03*
X65281Y-27500D03*
X65969Y-41000D03*
X61969Y-41000D03*
X65969Y-39750D03*
X61969Y-39750D03*
X69250Y-20981D03*
X69250Y-24981D03*
X61281Y-26250D03*
X65281Y-26250D03*
G54D15*
X59500Y-21000D03*
G54D13*
X58500Y-21000D03*
X57500Y-21000D03*
G54D15*
X53500Y-34500D03*
G54D13*
X52500Y-34500D03*
G54D15*
X64500Y-21000D03*
G54D13*
X65500Y-21000D03*
G54D15*
X61500Y-21000D03*
G54D13*
X62500Y-21000D03*
G54D16*
X66500Y-27500D03*
G54D17*
X69500Y-27500D03*
G54D16*
X56500Y-29250D03*
G54D17*
X59500Y-29250D03*
G54D16*
X56500Y-28250D03*
G54D17*
X59500Y-28250D03*
G54D16*
X59500Y-27250D03*
G54D17*
X56500Y-27250D03*
G54D16*
X59500Y-26250D03*
G54D17*
X56500Y-26250D03*
G54D16*
X67750Y-42750D03*
G54D17*
X67750Y-39750D03*
G54D18*
X57500Y-23750D03*
X59500Y-23750D03*
X57500Y-22250D03*
X59500Y-22250D03*
X67250Y-26250D03*
X69250Y-26250D03*
G54D13*
X52250Y-36750D03*
X51250Y-36750D03*
X53250Y-36750D03*
X68500Y-19600D03*
X69500Y-19600D03*
X67500Y-19600D03*
X52000Y-24500D03*
X51000Y-24500D03*
X53000Y-24500D03*
X54250Y-26000D03*
X54250Y-27000D03*
X54250Y-25000D03*
G54D19*
X54547Y-18500D03*
X55531Y-18500D03*
X56515Y-18500D03*
X57500Y-18500D03*
X58484Y-18500D03*
X59468Y-18500D03*
X61547Y-18500D03*
X62531Y-18500D03*
X63515Y-18500D03*
X64500Y-18500D03*
X65484Y-18500D03*
X66468Y-18500D03*
X65952Y-43750D03*
X64968Y-43750D03*
X63984Y-43750D03*
X63000Y-43750D03*
X62015Y-43750D03*
X61031Y-43750D03*
X58952Y-43750D03*
X57968Y-43750D03*
X56984Y-43750D03*
X56000Y-43750D03*
X55015Y-43750D03*
X54031Y-43750D03*
G54D20*
X55750Y-33500D03*
G54D12*
X55750Y-34500D03*
X55750Y-35500D03*
X55750Y-36500D03*
X57750Y-36500D03*
X58750Y-36500D03*
X59750Y-36500D03*
X61750Y-36500D03*
X61750Y-35500D03*
X61750Y-34500D03*
X61750Y-33500D03*
G54D13*
X52000Y-27500D03*
X53000Y-27500D03*
X51000Y-27500D03*
G54D12*
X67750Y-32500D03*
X66750Y-32500D03*
X65750Y-32500D03*
X64750Y-32500D03*
X63750Y-32500D03*
X62750Y-32500D03*
X61750Y-32500D03*
X60750Y-32500D03*
X59750Y-32500D03*
X58750Y-32500D03*
X57750Y-32500D03*
X56750Y-32500D03*
X55750Y-32500D03*
X54750Y-33500D03*
X66750Y-37500D03*
X54750Y-34500D03*
X54750Y-35500D03*
X54750Y-36500D03*
X54750Y-37500D03*
X54750Y-38500D03*
X55750Y-38500D03*
X56750Y-38500D03*
X57750Y-38500D03*
X58750Y-38500D03*
X59750Y-38500D03*
X60750Y-38500D03*
X61750Y-38500D03*
X62750Y-38500D03*
X63750Y-38500D03*
X64750Y-38500D03*
X65750Y-38500D03*
X66750Y-38500D03*
X54750Y-32500D03*
X67750Y-38500D03*
X62750Y-37500D03*
X63750Y-37500D03*
X64750Y-37500D03*
G54D21*
X63000Y-39500D03*
X57500Y-25500D03*
X58300Y-26400D03*
X69100Y-37600D03*
X60000Y-37200D03*
X56750Y-37500D03*
X56250Y-38000D03*
X65300Y-37000D03*
X65900Y-25600D03*
X57750Y-28000D03*
X60500Y-26500D03*
X60500Y-22000D03*
X63700Y-39800D03*
X51200Y-40400D03*
X68300Y-28800D03*
X60800Y-37500D03*
G54D22*
X53000Y-27500D02*
X53000Y-25250D01*
X54000Y-23000D02*
X54500Y-23000D01*
X53750Y-23250D02*
X54000Y-23000D01*
X53750Y-24500D02*
X53750Y-23250D01*
X53000Y-25250D02*
X53750Y-24500D01*
X53000Y-27500D02*
X53000Y-28281D01*
X53000Y-28281D02*
X53500Y-28781D01*
X61281Y-26250D02*
X62000Y-26969D01*
X63000Y-39500D02*
X63000Y-43750D01*
X62500Y-39000D02*
X63000Y-39500D01*
X62250Y-39000D02*
X62500Y-39000D01*
X61500Y-39000D02*
X62250Y-39000D01*
X61250Y-38750D02*
X61500Y-39000D01*
X61250Y-29750D02*
X61250Y-38750D01*
X61500Y-29500D02*
X61250Y-29750D01*
X62000Y-29000D02*
X61500Y-29500D01*
X62000Y-26969D02*
X62000Y-29000D01*
X57500Y-25500D02*
X57500Y-23750D01*
X57500Y-23750D02*
X56000Y-23750D01*
X54700Y-27000D02*
X54250Y-27000D01*
X55000Y-26700D02*
X54700Y-27000D01*
X55000Y-24750D02*
X55000Y-26700D01*
X56000Y-23750D02*
X55000Y-24750D01*
X62015Y-43750D02*
X62015Y-41046D01*
X62015Y-41046D02*
X61969Y-41000D01*
X61750Y-30000D02*
X61750Y-32500D01*
X63750Y-30000D02*
X63750Y-30750D01*
X62750Y-31750D02*
X62750Y-32500D01*
X63750Y-30750D02*
X62750Y-31750D01*
X65750Y-30000D02*
X65750Y-32500D01*
X66750Y-30000D02*
X66750Y-32500D01*
G54D23*
X59500Y-23750D02*
X59500Y-25200D01*
X59500Y-25200D02*
X58300Y-26400D01*
X61969Y-39750D02*
X61450Y-39750D01*
X61031Y-40168D02*
X61031Y-43750D01*
X61450Y-39750D02*
X61031Y-40168D01*
X67750Y-32500D02*
X67750Y-37500D01*
X67750Y-37500D02*
X66750Y-38500D01*
G54D22*
X58750Y-38450D02*
X58750Y-38500D01*
X60000Y-37200D02*
X58750Y-38450D01*
X55750Y-33500D02*
X56500Y-34250D01*
X56750Y-34500D02*
X56750Y-37500D01*
X56500Y-34250D02*
X56750Y-34500D01*
X55750Y-34500D02*
X56250Y-35000D01*
X56250Y-35000D02*
X56250Y-38000D01*
X52000Y-23531D02*
X52500Y-23031D01*
X52000Y-24500D02*
X52000Y-23531D01*
X56515Y-18500D02*
X56515Y-19734D01*
X53031Y-19031D02*
X52500Y-19031D01*
X54250Y-20250D02*
X53031Y-19031D01*
X56000Y-20250D02*
X54250Y-20250D01*
X56515Y-19734D02*
X56000Y-20250D01*
X57500Y-18500D02*
X57500Y-19531D01*
X56031Y-21000D02*
X54500Y-21000D01*
X57500Y-19531D02*
X56031Y-21000D01*
X53750Y-22000D02*
X54500Y-22000D01*
X53250Y-22500D02*
X53750Y-22000D01*
X53250Y-23500D02*
X53250Y-22500D01*
X53000Y-23750D02*
X53250Y-23500D01*
X53000Y-24500D02*
X53000Y-23750D01*
X52250Y-32781D02*
X52250Y-33500D01*
X52250Y-35500D02*
X52250Y-36750D01*
X52000Y-35250D02*
X52250Y-35500D01*
X52000Y-33750D02*
X52000Y-35250D01*
X52250Y-33500D02*
X52000Y-33750D01*
X65969Y-39750D02*
X65969Y-39669D01*
X65300Y-39000D02*
X65300Y-37000D01*
X65969Y-39669D02*
X65300Y-39000D01*
X65969Y-41000D02*
X65969Y-39750D01*
X65281Y-23750D02*
X65900Y-24369D01*
X65900Y-24369D02*
X65900Y-25600D01*
X68500Y-19600D02*
X68500Y-20000D01*
X68500Y-20469D02*
X68000Y-20969D01*
X68500Y-20000D02*
X68500Y-20469D01*
X55750Y-38500D02*
X55750Y-41500D01*
X55015Y-42234D02*
X55015Y-43750D01*
X55750Y-41500D02*
X55015Y-42234D01*
X61281Y-22500D02*
X61281Y-23750D01*
X53500Y-34500D02*
X53500Y-32781D01*
X57750Y-38500D02*
X57750Y-41000D01*
X58952Y-42202D02*
X58952Y-43750D01*
X57750Y-41000D02*
X58952Y-42202D01*
X56750Y-38500D02*
X56750Y-42000D01*
X56984Y-42234D02*
X56984Y-43750D01*
X56750Y-42000D02*
X56984Y-42234D01*
X53250Y-36750D02*
X53250Y-36000D01*
X52500Y-35250D02*
X52500Y-34500D01*
X53250Y-36000D02*
X52500Y-35250D01*
X69250Y-24981D02*
X69250Y-25350D01*
X69250Y-25350D02*
X67200Y-27400D01*
X69250Y-25031D02*
X69250Y-25350D01*
X63750Y-34950D02*
X63750Y-37500D01*
X64800Y-33900D02*
X63750Y-34950D01*
X66100Y-33900D02*
X64800Y-33900D01*
X67200Y-32800D02*
X66100Y-33900D01*
X67200Y-27400D02*
X67200Y-32800D01*
X63750Y-37500D02*
X64300Y-38050D01*
X65000Y-43718D02*
X64968Y-43750D01*
X65000Y-39800D02*
X65000Y-43718D01*
X64300Y-39100D02*
X65000Y-39800D01*
X64300Y-38050D02*
X64300Y-39100D01*
X58500Y-21500D02*
X58500Y-21000D01*
X58750Y-21750D02*
X58500Y-21500D01*
X58750Y-25250D02*
X58750Y-21750D01*
X57750Y-26250D02*
X58750Y-25250D01*
X57750Y-27250D02*
X57750Y-26250D01*
X57750Y-28000D02*
X57750Y-27250D01*
X56500Y-29250D02*
X56500Y-29750D01*
X56750Y-30000D02*
X56750Y-32500D01*
X56500Y-29750D02*
X56750Y-30000D01*
X58484Y-18500D02*
X58484Y-20984D01*
X58484Y-20984D02*
X58500Y-21000D01*
X59500Y-26250D02*
X59150Y-26250D01*
X58750Y-27000D02*
X58750Y-32500D01*
X58750Y-26650D02*
X58750Y-27000D01*
X59150Y-26250D02*
X58750Y-26650D01*
X60500Y-26500D02*
X60500Y-22000D01*
X65484Y-18500D02*
X65484Y-20984D01*
X65484Y-20984D02*
X65500Y-21000D01*
X51000Y-28781D02*
X51000Y-31000D01*
X63700Y-38550D02*
X63750Y-38500D01*
X63700Y-39800D02*
X63700Y-38550D01*
X50700Y-39900D02*
X51200Y-40400D01*
X50700Y-36200D02*
X50700Y-39900D01*
X51600Y-35300D02*
X50700Y-36200D01*
X51600Y-31600D02*
X51600Y-35300D01*
X51000Y-31000D02*
X51600Y-31600D01*
X65952Y-42247D02*
X65952Y-43750D01*
X66400Y-41800D02*
X65952Y-42247D01*
X67400Y-41800D02*
X66400Y-41800D01*
X68300Y-40900D02*
X67400Y-41800D01*
X68300Y-34400D02*
X68300Y-40900D01*
X68300Y-31500D02*
X68300Y-34400D01*
X68300Y-28800D02*
X68300Y-31500D01*
X61281Y-27500D02*
X61281Y-28788D01*
X60500Y-31500D02*
X60200Y-31800D01*
X60200Y-31800D02*
X60200Y-33000D01*
X60200Y-33000D02*
X60800Y-33600D01*
X60800Y-33600D02*
X60800Y-37500D01*
X60500Y-29569D02*
X60500Y-31500D01*
X61281Y-28788D02*
X60500Y-29569D01*
X61281Y-27500D02*
X61281Y-27519D01*
X66750Y-24969D02*
X66300Y-25419D01*
X62750Y-38450D02*
X62750Y-38500D01*
X62200Y-37900D02*
X62750Y-38450D01*
X62200Y-32900D02*
X62200Y-37900D01*
X62200Y-29700D02*
X62200Y-32900D01*
X65000Y-26900D02*
X62200Y-29700D01*
X66000Y-26900D02*
X65000Y-26900D01*
X66300Y-26600D02*
X66000Y-26900D01*
X66300Y-26300D02*
X66300Y-26600D01*
X66300Y-25419D02*
X66300Y-26300D01*
X55750Y-26500D02*
X55750Y-26200D01*
X57500Y-21250D02*
X58250Y-22000D01*
X58250Y-22000D02*
X58250Y-25250D01*
X55750Y-26500D02*
X55750Y-28000D01*
X55750Y-28000D02*
X56000Y-28250D01*
X56500Y-28250D02*
X56000Y-28250D01*
X57500Y-21250D02*
X57500Y-21000D01*
X58250Y-25450D02*
X58250Y-25250D01*
X57800Y-25900D02*
X58250Y-25450D01*
X56950Y-25900D02*
X57800Y-25900D01*
X56750Y-25700D02*
X56950Y-25900D01*
X56250Y-25700D02*
X56750Y-25700D01*
X55750Y-26200D02*
X56250Y-25700D01*
X57750Y-32500D02*
X57750Y-28750D01*
X57750Y-28750D02*
X57250Y-28250D01*
X57250Y-28250D02*
X56500Y-28250D01*
X62500Y-21000D02*
X62500Y-21250D01*
X60000Y-21750D02*
X60000Y-27250D01*
X60250Y-21500D02*
X60000Y-21750D01*
X62250Y-21500D02*
X60250Y-21500D01*
X62500Y-21250D02*
X62250Y-21500D01*
X60000Y-27250D02*
X60000Y-29750D01*
X60000Y-29750D02*
X59750Y-30000D01*
X59750Y-30000D02*
X59750Y-32500D01*
X60000Y-27250D02*
X59500Y-27250D01*
X62531Y-18500D02*
X62531Y-20968D01*
X62531Y-20968D02*
X62500Y-21000D01*
G54D10*
G36*
X57459Y-26200D02*
X57450Y-26250D01*
X57450Y-27250D01*
X57450Y-27698D01*
X57389Y-27758D01*
X57325Y-27915D01*
X57325Y-27964D01*
X57250Y-27950D01*
X57029Y-27950D01*
X57029Y-27325D01*
X57018Y-27117D01*
X56960Y-26977D01*
X56867Y-26952D01*
X56797Y-27023D01*
X56797Y-26882D01*
X56772Y-26789D01*
X56669Y-26753D01*
X56772Y-26710D01*
X56797Y-26617D01*
X56500Y-26320D01*
X56202Y-26617D01*
X56227Y-26710D01*
X56330Y-26746D01*
X56227Y-26789D01*
X56202Y-26882D01*
X56500Y-27179D01*
X56797Y-26882D01*
X56797Y-27023D01*
X56570Y-27250D01*
X56867Y-27547D01*
X56960Y-27522D01*
X57029Y-27325D01*
X57029Y-27950D01*
X57025Y-27950D01*
X57025Y-27925D01*
X56987Y-27833D01*
X56916Y-27763D01*
X56824Y-27725D01*
X56737Y-27724D01*
X56772Y-27710D01*
X56797Y-27617D01*
X56500Y-27320D01*
X56202Y-27617D01*
X56227Y-27710D01*
X56268Y-27724D01*
X56175Y-27724D01*
X56083Y-27762D01*
X56050Y-27796D01*
X56050Y-27525D01*
X56132Y-27547D01*
X56429Y-27250D01*
X56132Y-26952D01*
X56050Y-26974D01*
X56050Y-26525D01*
X56132Y-26547D01*
X56429Y-26250D01*
X56423Y-26244D01*
X56494Y-26173D01*
X56500Y-26179D01*
X56505Y-26173D01*
X56576Y-26244D01*
X56570Y-26250D01*
X56867Y-26547D01*
X56960Y-26522D01*
X57029Y-26325D01*
X57023Y-26200D01*
X57459Y-26200D01*
X57459Y-26200D01*
G37*
G54D22*
X57459Y-26200D02*
X57450Y-26250D01*
X57450Y-27250D01*
X57450Y-27698D01*
X57389Y-27758D01*
X57325Y-27915D01*
X57325Y-27964D01*
X57250Y-27950D01*
X57029Y-27950D01*
X57029Y-27325D01*
X57018Y-27117D01*
X56960Y-26977D01*
X56867Y-26952D01*
X56797Y-27023D01*
X56797Y-26882D01*
X56772Y-26789D01*
X56669Y-26753D01*
X56772Y-26710D01*
X56797Y-26617D01*
X56500Y-26320D01*
X56202Y-26617D01*
X56227Y-26710D01*
X56330Y-26746D01*
X56227Y-26789D01*
X56202Y-26882D01*
X56500Y-27179D01*
X56797Y-26882D01*
X56797Y-27023D01*
X56570Y-27250D01*
X56867Y-27547D01*
X56960Y-27522D01*
X57029Y-27325D01*
X57029Y-27950D01*
X57025Y-27950D01*
X57025Y-27925D01*
X56987Y-27833D01*
X56916Y-27763D01*
X56824Y-27725D01*
X56737Y-27724D01*
X56772Y-27710D01*
X56797Y-27617D01*
X56500Y-27320D01*
X56202Y-27617D01*
X56227Y-27710D01*
X56268Y-27724D01*
X56175Y-27724D01*
X56083Y-27762D01*
X56050Y-27796D01*
X56050Y-27525D01*
X56132Y-27547D01*
X56429Y-27250D01*
X56132Y-26952D01*
X56050Y-26974D01*
X56050Y-26525D01*
X56132Y-26547D01*
X56429Y-26250D01*
X56423Y-26244D01*
X56494Y-26173D01*
X56500Y-26179D01*
X56505Y-26173D01*
X56576Y-26244D01*
X56570Y-26250D01*
X56867Y-26547D01*
X56960Y-26522D01*
X57029Y-26325D01*
X57023Y-26200D01*
X57459Y-26200D01*
G54D10*
G36*
X59576Y-29255D02*
X59505Y-29326D01*
X59500Y-29320D01*
X59202Y-29617D01*
X59227Y-29710D01*
X59424Y-29779D01*
X59552Y-29772D01*
X59537Y-29787D01*
X59472Y-29885D01*
X59450Y-30000D01*
X59450Y-32033D01*
X59441Y-32037D01*
X59288Y-32190D01*
X59250Y-32282D01*
X59212Y-32191D01*
X59059Y-32038D01*
X59050Y-32034D01*
X59050Y-29525D01*
X59132Y-29547D01*
X59429Y-29250D01*
X59132Y-28952D01*
X59050Y-28974D01*
X59050Y-28525D01*
X59132Y-28547D01*
X59429Y-28250D01*
X59132Y-27952D01*
X59050Y-27974D01*
X59050Y-27703D01*
X59083Y-27736D01*
X59175Y-27774D01*
X59262Y-27775D01*
X59227Y-27789D01*
X59202Y-27882D01*
X59500Y-28179D01*
X59505Y-28173D01*
X59576Y-28244D01*
X59570Y-28250D01*
X59576Y-28255D01*
X59505Y-28326D01*
X59500Y-28320D01*
X59202Y-28617D01*
X59227Y-28710D01*
X59330Y-28746D01*
X59227Y-28789D01*
X59202Y-28882D01*
X59500Y-29179D01*
X59505Y-29173D01*
X59576Y-29244D01*
X59570Y-29250D01*
X59576Y-29255D01*
X59576Y-29255D01*
G37*
G54D22*
X59576Y-29255D02*
X59505Y-29326D01*
X59500Y-29320D01*
X59202Y-29617D01*
X59227Y-29710D01*
X59424Y-29779D01*
X59552Y-29772D01*
X59537Y-29787D01*
X59472Y-29885D01*
X59450Y-30000D01*
X59450Y-32033D01*
X59441Y-32037D01*
X59288Y-32190D01*
X59250Y-32282D01*
X59212Y-32191D01*
X59059Y-32038D01*
X59050Y-32034D01*
X59050Y-29525D01*
X59132Y-29547D01*
X59429Y-29250D01*
X59132Y-28952D01*
X59050Y-28974D01*
X59050Y-28525D01*
X59132Y-28547D01*
X59429Y-28250D01*
X59132Y-27952D01*
X59050Y-27974D01*
X59050Y-27703D01*
X59083Y-27736D01*
X59175Y-27774D01*
X59262Y-27775D01*
X59227Y-27789D01*
X59202Y-27882D01*
X59500Y-28179D01*
X59505Y-28173D01*
X59576Y-28244D01*
X59570Y-28250D01*
X59576Y-28255D01*
X59505Y-28326D01*
X59500Y-28320D01*
X59202Y-28617D01*
X59227Y-28710D01*
X59330Y-28746D01*
X59227Y-28789D01*
X59202Y-28882D01*
X59500Y-29179D01*
X59505Y-29173D01*
X59576Y-29244D01*
X59570Y-29250D01*
X59576Y-29255D01*
G54D10*
G36*
X60950Y-37992D02*
X60858Y-37954D01*
X60642Y-37954D01*
X60441Y-38037D01*
X60288Y-38190D01*
X60250Y-38282D01*
X60212Y-38191D01*
X60059Y-38038D01*
X59858Y-37954D01*
X59669Y-37954D01*
X59999Y-37624D01*
X60084Y-37625D01*
X60240Y-37560D01*
X60360Y-37441D01*
X60424Y-37284D01*
X60425Y-37115D01*
X60360Y-36959D01*
X60241Y-36839D01*
X60198Y-36822D01*
X60211Y-36809D01*
X60295Y-36608D01*
X60295Y-36392D01*
X60212Y-36191D01*
X60059Y-36038D01*
X59858Y-35954D01*
X59642Y-35954D01*
X59441Y-36037D01*
X59288Y-36190D01*
X59252Y-36275D01*
X59227Y-36214D01*
X59132Y-36188D01*
X59061Y-36258D01*
X59061Y-36117D01*
X59035Y-36022D01*
X58830Y-35949D01*
X58613Y-35960D01*
X58464Y-36022D01*
X58438Y-36117D01*
X58750Y-36429D01*
X59061Y-36117D01*
X59061Y-36258D01*
X58820Y-36500D01*
X59132Y-36811D01*
X59227Y-36785D01*
X59250Y-36719D01*
X59287Y-36808D01*
X59440Y-36961D01*
X59609Y-37032D01*
X59575Y-37115D01*
X59574Y-37200D01*
X59061Y-37713D01*
X59061Y-36882D01*
X58750Y-36570D01*
X58679Y-36641D01*
X58679Y-36500D01*
X58367Y-36188D01*
X58272Y-36214D01*
X58249Y-36280D01*
X58212Y-36191D01*
X58059Y-36038D01*
X57858Y-35954D01*
X57642Y-35954D01*
X57441Y-36037D01*
X57288Y-36190D01*
X57204Y-36391D01*
X57204Y-36607D01*
X57287Y-36808D01*
X57440Y-36961D01*
X57641Y-37045D01*
X57857Y-37045D01*
X58058Y-36962D01*
X58211Y-36809D01*
X58247Y-36724D01*
X58272Y-36785D01*
X58367Y-36811D01*
X58679Y-36500D01*
X58679Y-36641D01*
X58438Y-36882D01*
X58464Y-36977D01*
X58669Y-37050D01*
X58886Y-37039D01*
X59035Y-36977D01*
X59061Y-36882D01*
X59061Y-37713D01*
X58820Y-37954D01*
X58642Y-37954D01*
X58441Y-38037D01*
X58288Y-38190D01*
X58250Y-38282D01*
X58212Y-38191D01*
X58059Y-38038D01*
X57858Y-37954D01*
X57642Y-37954D01*
X57441Y-38037D01*
X57288Y-38190D01*
X57250Y-38282D01*
X57212Y-38191D01*
X57059Y-38038D01*
X56858Y-37954D01*
X56675Y-37954D01*
X56675Y-37924D01*
X56834Y-37925D01*
X56990Y-37860D01*
X57110Y-37741D01*
X57174Y-37584D01*
X57175Y-37415D01*
X57110Y-37259D01*
X57050Y-37198D01*
X57050Y-34500D01*
X57027Y-34385D01*
X56962Y-34287D01*
X56962Y-34287D01*
X56712Y-34037D01*
X56712Y-34037D01*
X56712Y-34037D01*
X56295Y-33621D01*
X56295Y-33155D01*
X56257Y-33063D01*
X56187Y-32992D01*
X56095Y-32954D01*
X56066Y-32954D01*
X56211Y-32809D01*
X56249Y-32717D01*
X56287Y-32808D01*
X56440Y-32961D01*
X56641Y-33045D01*
X56857Y-33045D01*
X57058Y-32962D01*
X57211Y-32809D01*
X57249Y-32717D01*
X57287Y-32808D01*
X57440Y-32961D01*
X57641Y-33045D01*
X57857Y-33045D01*
X58058Y-32962D01*
X58211Y-32809D01*
X58249Y-32717D01*
X58287Y-32808D01*
X58440Y-32961D01*
X58641Y-33045D01*
X58857Y-33045D01*
X59058Y-32962D01*
X59211Y-32809D01*
X59249Y-32717D01*
X59287Y-32808D01*
X59440Y-32961D01*
X59641Y-33045D01*
X59857Y-33045D01*
X59905Y-33025D01*
X59922Y-33114D01*
X59987Y-33212D01*
X60500Y-33724D01*
X60500Y-37198D01*
X60439Y-37258D01*
X60375Y-37415D01*
X60374Y-37584D01*
X60439Y-37740D01*
X60558Y-37860D01*
X60715Y-37924D01*
X60884Y-37925D01*
X60950Y-37897D01*
X60950Y-37992D01*
X60950Y-37992D01*
G37*
G54D22*
X60950Y-37992D02*
X60858Y-37954D01*
X60642Y-37954D01*
X60441Y-38037D01*
X60288Y-38190D01*
X60250Y-38282D01*
X60212Y-38191D01*
X60059Y-38038D01*
X59858Y-37954D01*
X59669Y-37954D01*
X59999Y-37624D01*
X60084Y-37625D01*
X60240Y-37560D01*
X60360Y-37441D01*
X60424Y-37284D01*
X60425Y-37115D01*
X60360Y-36959D01*
X60241Y-36839D01*
X60198Y-36822D01*
X60211Y-36809D01*
X60295Y-36608D01*
X60295Y-36392D01*
X60212Y-36191D01*
X60059Y-36038D01*
X59858Y-35954D01*
X59642Y-35954D01*
X59441Y-36037D01*
X59288Y-36190D01*
X59252Y-36275D01*
X59227Y-36214D01*
X59132Y-36188D01*
X59061Y-36258D01*
X59061Y-36117D01*
X59035Y-36022D01*
X58830Y-35949D01*
X58613Y-35960D01*
X58464Y-36022D01*
X58438Y-36117D01*
X58750Y-36429D01*
X59061Y-36117D01*
X59061Y-36258D01*
X58820Y-36500D01*
X59132Y-36811D01*
X59227Y-36785D01*
X59250Y-36719D01*
X59287Y-36808D01*
X59440Y-36961D01*
X59609Y-37032D01*
X59575Y-37115D01*
X59574Y-37200D01*
X59061Y-37713D01*
X59061Y-36882D01*
X58750Y-36570D01*
X58679Y-36641D01*
X58679Y-36500D01*
X58367Y-36188D01*
X58272Y-36214D01*
X58249Y-36280D01*
X58212Y-36191D01*
X58059Y-36038D01*
X57858Y-35954D01*
X57642Y-35954D01*
X57441Y-36037D01*
X57288Y-36190D01*
X57204Y-36391D01*
X57204Y-36607D01*
X57287Y-36808D01*
X57440Y-36961D01*
X57641Y-37045D01*
X57857Y-37045D01*
X58058Y-36962D01*
X58211Y-36809D01*
X58247Y-36724D01*
X58272Y-36785D01*
X58367Y-36811D01*
X58679Y-36500D01*
X58679Y-36641D01*
X58438Y-36882D01*
X58464Y-36977D01*
X58669Y-37050D01*
X58886Y-37039D01*
X59035Y-36977D01*
X59061Y-36882D01*
X59061Y-37713D01*
X58820Y-37954D01*
X58642Y-37954D01*
X58441Y-38037D01*
X58288Y-38190D01*
X58250Y-38282D01*
X58212Y-38191D01*
X58059Y-38038D01*
X57858Y-37954D01*
X57642Y-37954D01*
X57441Y-38037D01*
X57288Y-38190D01*
X57250Y-38282D01*
X57212Y-38191D01*
X57059Y-38038D01*
X56858Y-37954D01*
X56675Y-37954D01*
X56675Y-37924D01*
X56834Y-37925D01*
X56990Y-37860D01*
X57110Y-37741D01*
X57174Y-37584D01*
X57175Y-37415D01*
X57110Y-37259D01*
X57050Y-37198D01*
X57050Y-34500D01*
X57027Y-34385D01*
X56962Y-34287D01*
X56962Y-34287D01*
X56712Y-34037D01*
X56712Y-34037D01*
X56712Y-34037D01*
X56295Y-33621D01*
X56295Y-33155D01*
X56257Y-33063D01*
X56187Y-32992D01*
X56095Y-32954D01*
X56066Y-32954D01*
X56211Y-32809D01*
X56249Y-32717D01*
X56287Y-32808D01*
X56440Y-32961D01*
X56641Y-33045D01*
X56857Y-33045D01*
X57058Y-32962D01*
X57211Y-32809D01*
X57249Y-32717D01*
X57287Y-32808D01*
X57440Y-32961D01*
X57641Y-33045D01*
X57857Y-33045D01*
X58058Y-32962D01*
X58211Y-32809D01*
X58249Y-32717D01*
X58287Y-32808D01*
X58440Y-32961D01*
X58641Y-33045D01*
X58857Y-33045D01*
X59058Y-32962D01*
X59211Y-32809D01*
X59249Y-32717D01*
X59287Y-32808D01*
X59440Y-32961D01*
X59641Y-33045D01*
X59857Y-33045D01*
X59905Y-33025D01*
X59922Y-33114D01*
X59987Y-33212D01*
X60500Y-33724D01*
X60500Y-37198D01*
X60439Y-37258D01*
X60375Y-37415D01*
X60374Y-37584D01*
X60439Y-37740D01*
X60558Y-37860D01*
X60715Y-37924D01*
X60884Y-37925D01*
X60950Y-37897D01*
X60950Y-37992D01*
G54D10*
G36*
X66900Y-29471D02*
X66858Y-29454D01*
X66642Y-29454D01*
X66441Y-29537D01*
X66288Y-29690D01*
X66250Y-29782D01*
X66212Y-29691D01*
X66059Y-29538D01*
X65912Y-29477D01*
X65912Y-28672D01*
X65814Y-28435D01*
X65663Y-28284D01*
X65663Y-27953D01*
X65281Y-27570D01*
X64898Y-27953D01*
X64936Y-28058D01*
X65176Y-28147D01*
X65432Y-28138D01*
X65625Y-28058D01*
X65663Y-27953D01*
X65663Y-28284D01*
X65633Y-28254D01*
X65397Y-28156D01*
X65141Y-28156D01*
X64904Y-28254D01*
X64723Y-28435D01*
X64625Y-28671D01*
X64625Y-28927D01*
X64723Y-29164D01*
X64904Y-29345D01*
X65140Y-29443D01*
X65396Y-29443D01*
X65633Y-29345D01*
X65814Y-29164D01*
X65912Y-28928D01*
X65912Y-28672D01*
X65912Y-29477D01*
X65858Y-29454D01*
X65642Y-29454D01*
X65441Y-29537D01*
X65288Y-29690D01*
X65250Y-29782D01*
X65212Y-29691D01*
X65059Y-29538D01*
X64858Y-29454D01*
X64642Y-29454D01*
X64441Y-29537D01*
X64288Y-29690D01*
X64250Y-29782D01*
X64212Y-29691D01*
X64059Y-29538D01*
X63858Y-29454D01*
X63642Y-29454D01*
X63441Y-29537D01*
X63288Y-29690D01*
X63252Y-29775D01*
X63227Y-29714D01*
X63132Y-29688D01*
X62820Y-30000D01*
X63132Y-30311D01*
X63227Y-30285D01*
X63250Y-30219D01*
X63287Y-30308D01*
X63440Y-30461D01*
X63450Y-30465D01*
X63450Y-30625D01*
X62537Y-31537D01*
X62500Y-31594D01*
X62500Y-30489D01*
X62669Y-30550D01*
X62886Y-30539D01*
X63035Y-30477D01*
X63061Y-30382D01*
X62750Y-30070D01*
X62744Y-30076D01*
X62673Y-30005D01*
X62679Y-30000D01*
X62673Y-29994D01*
X62744Y-29923D01*
X62750Y-29929D01*
X63061Y-29617D01*
X63035Y-29522D01*
X62862Y-29461D01*
X64651Y-27672D01*
X64722Y-27844D01*
X64827Y-27882D01*
X65210Y-27500D01*
X65204Y-27494D01*
X65275Y-27423D01*
X65281Y-27429D01*
X65286Y-27423D01*
X65357Y-27494D01*
X65351Y-27500D01*
X65734Y-27882D01*
X65839Y-27844D01*
X65928Y-27604D01*
X65919Y-27348D01*
X65857Y-27200D01*
X65975Y-27200D01*
X65974Y-27274D01*
X65974Y-27824D01*
X66012Y-27916D01*
X66083Y-27986D01*
X66175Y-28024D01*
X66274Y-28025D01*
X66824Y-28025D01*
X66900Y-27993D01*
X66900Y-29471D01*
X66900Y-29471D01*
G37*
G54D22*
X66900Y-29471D02*
X66858Y-29454D01*
X66642Y-29454D01*
X66441Y-29537D01*
X66288Y-29690D01*
X66250Y-29782D01*
X66212Y-29691D01*
X66059Y-29538D01*
X65912Y-29477D01*
X65912Y-28672D01*
X65814Y-28435D01*
X65663Y-28284D01*
X65663Y-27953D01*
X65281Y-27570D01*
X64898Y-27953D01*
X64936Y-28058D01*
X65176Y-28147D01*
X65432Y-28138D01*
X65625Y-28058D01*
X65663Y-27953D01*
X65663Y-28284D01*
X65633Y-28254D01*
X65397Y-28156D01*
X65141Y-28156D01*
X64904Y-28254D01*
X64723Y-28435D01*
X64625Y-28671D01*
X64625Y-28927D01*
X64723Y-29164D01*
X64904Y-29345D01*
X65140Y-29443D01*
X65396Y-29443D01*
X65633Y-29345D01*
X65814Y-29164D01*
X65912Y-28928D01*
X65912Y-28672D01*
X65912Y-29477D01*
X65858Y-29454D01*
X65642Y-29454D01*
X65441Y-29537D01*
X65288Y-29690D01*
X65250Y-29782D01*
X65212Y-29691D01*
X65059Y-29538D01*
X64858Y-29454D01*
X64642Y-29454D01*
X64441Y-29537D01*
X64288Y-29690D01*
X64250Y-29782D01*
X64212Y-29691D01*
X64059Y-29538D01*
X63858Y-29454D01*
X63642Y-29454D01*
X63441Y-29537D01*
X63288Y-29690D01*
X63252Y-29775D01*
X63227Y-29714D01*
X63132Y-29688D01*
X62820Y-30000D01*
X63132Y-30311D01*
X63227Y-30285D01*
X63250Y-30219D01*
X63287Y-30308D01*
X63440Y-30461D01*
X63450Y-30465D01*
X63450Y-30625D01*
X62537Y-31537D01*
X62500Y-31594D01*
X62500Y-30489D01*
X62669Y-30550D01*
X62886Y-30539D01*
X63035Y-30477D01*
X63061Y-30382D01*
X62750Y-30070D01*
X62744Y-30076D01*
X62673Y-30005D01*
X62679Y-30000D01*
X62673Y-29994D01*
X62744Y-29923D01*
X62750Y-29929D01*
X63061Y-29617D01*
X63035Y-29522D01*
X62862Y-29461D01*
X64651Y-27672D01*
X64722Y-27844D01*
X64827Y-27882D01*
X65210Y-27500D01*
X65204Y-27494D01*
X65275Y-27423D01*
X65281Y-27429D01*
X65286Y-27423D01*
X65357Y-27494D01*
X65351Y-27500D01*
X65734Y-27882D01*
X65839Y-27844D01*
X65928Y-27604D01*
X65919Y-27348D01*
X65857Y-27200D01*
X65975Y-27200D01*
X65974Y-27274D01*
X65974Y-27824D01*
X66012Y-27916D01*
X66083Y-27986D01*
X66175Y-28024D01*
X66274Y-28025D01*
X66824Y-28025D01*
X66900Y-27993D01*
X66900Y-29471D01*
G54D10*
G36*
X67826Y-32505D02*
X67755Y-32576D01*
X67750Y-32570D01*
X67744Y-32576D01*
X67673Y-32505D01*
X67679Y-32500D01*
X67673Y-32494D01*
X67744Y-32423D01*
X67750Y-32429D01*
X67755Y-32423D01*
X67826Y-32494D01*
X67820Y-32500D01*
X67826Y-32505D01*
X67826Y-32505D01*
G37*
G54D22*
X67826Y-32505D02*
X67755Y-32576D01*
X67750Y-32570D01*
X67744Y-32576D01*
X67673Y-32505D01*
X67679Y-32500D01*
X67673Y-32494D01*
X67744Y-32423D01*
X67750Y-32429D01*
X67755Y-32423D01*
X67826Y-32494D01*
X67820Y-32500D01*
X67826Y-32505D01*
G54D10*
G36*
X68000Y-40775D02*
X67275Y-41500D01*
X67061Y-41500D01*
X67061Y-38882D01*
X66750Y-38570D01*
X66438Y-38882D01*
X66464Y-38977D01*
X66669Y-39050D01*
X66886Y-39039D01*
X67035Y-38977D01*
X67061Y-38882D01*
X67061Y-41500D01*
X66400Y-41500D01*
X66373Y-41505D01*
X66514Y-41364D01*
X66612Y-41128D01*
X66612Y-40872D01*
X66514Y-40635D01*
X66333Y-40454D01*
X66269Y-40427D01*
X66269Y-40322D01*
X66333Y-40295D01*
X66514Y-40114D01*
X66612Y-39878D01*
X66612Y-39622D01*
X66514Y-39385D01*
X66333Y-39204D01*
X66097Y-39106D01*
X65841Y-39106D01*
X65833Y-39109D01*
X65769Y-39045D01*
X65857Y-39045D01*
X66058Y-38962D01*
X66211Y-38809D01*
X66247Y-38724D01*
X66272Y-38785D01*
X66367Y-38811D01*
X66679Y-38500D01*
X66367Y-38188D01*
X66272Y-38214D01*
X66249Y-38280D01*
X66212Y-38191D01*
X66059Y-38038D01*
X65858Y-37954D01*
X65642Y-37954D01*
X65600Y-37971D01*
X65600Y-37301D01*
X65660Y-37241D01*
X65724Y-37084D01*
X65725Y-36915D01*
X65660Y-36759D01*
X65541Y-36639D01*
X65384Y-36575D01*
X65215Y-36574D01*
X65059Y-36639D01*
X64939Y-36758D01*
X64875Y-36915D01*
X64875Y-36961D01*
X64858Y-36954D01*
X64642Y-36954D01*
X64441Y-37037D01*
X64288Y-37190D01*
X64250Y-37282D01*
X64212Y-37191D01*
X64059Y-37038D01*
X64050Y-37034D01*
X64050Y-35074D01*
X64924Y-34200D01*
X66100Y-34200D01*
X66100Y-34199D01*
X66214Y-34177D01*
X66214Y-34177D01*
X66312Y-34112D01*
X67412Y-33012D01*
X67412Y-33012D01*
X67456Y-32946D01*
X67464Y-32977D01*
X67669Y-33050D01*
X67886Y-33039D01*
X68000Y-32991D01*
X68000Y-34400D01*
X68000Y-38013D01*
X67858Y-37954D01*
X67642Y-37954D01*
X67441Y-38037D01*
X67295Y-38183D01*
X67295Y-37392D01*
X67212Y-37191D01*
X67059Y-37038D01*
X66858Y-36954D01*
X66642Y-36954D01*
X66441Y-37037D01*
X66288Y-37190D01*
X66204Y-37391D01*
X66204Y-37607D01*
X66287Y-37808D01*
X66440Y-37961D01*
X66525Y-37997D01*
X66464Y-38022D01*
X66438Y-38117D01*
X66750Y-38429D01*
X67061Y-38117D01*
X67035Y-38022D01*
X66969Y-37999D01*
X67058Y-37962D01*
X67211Y-37809D01*
X67295Y-37608D01*
X67295Y-37392D01*
X67295Y-38183D01*
X67288Y-38190D01*
X67252Y-38275D01*
X67227Y-38214D01*
X67132Y-38188D01*
X66820Y-38500D01*
X67132Y-38811D01*
X67227Y-38785D01*
X67250Y-38719D01*
X67287Y-38808D01*
X67440Y-38961D01*
X67641Y-39045D01*
X67857Y-39045D01*
X68000Y-38986D01*
X68000Y-39281D01*
X67825Y-39220D01*
X67617Y-39231D01*
X67477Y-39289D01*
X67452Y-39382D01*
X67750Y-39679D01*
X67755Y-39673D01*
X67826Y-39744D01*
X67820Y-39750D01*
X67826Y-39755D01*
X67755Y-39826D01*
X67750Y-39820D01*
X67679Y-39891D01*
X67679Y-39750D01*
X67382Y-39452D01*
X67289Y-39477D01*
X67220Y-39674D01*
X67231Y-39882D01*
X67289Y-40022D01*
X67382Y-40047D01*
X67679Y-39750D01*
X67679Y-39891D01*
X67452Y-40117D01*
X67477Y-40210D01*
X67674Y-40279D01*
X67882Y-40268D01*
X68000Y-40219D01*
X68000Y-40775D01*
X68000Y-40775D01*
G37*
G54D22*
X68000Y-40775D02*
X67275Y-41500D01*
X67061Y-41500D01*
X67061Y-38882D01*
X66750Y-38570D01*
X66438Y-38882D01*
X66464Y-38977D01*
X66669Y-39050D01*
X66886Y-39039D01*
X67035Y-38977D01*
X67061Y-38882D01*
X67061Y-41500D01*
X66400Y-41500D01*
X66373Y-41505D01*
X66514Y-41364D01*
X66612Y-41128D01*
X66612Y-40872D01*
X66514Y-40635D01*
X66333Y-40454D01*
X66269Y-40427D01*
X66269Y-40322D01*
X66333Y-40295D01*
X66514Y-40114D01*
X66612Y-39878D01*
X66612Y-39622D01*
X66514Y-39385D01*
X66333Y-39204D01*
X66097Y-39106D01*
X65841Y-39106D01*
X65833Y-39109D01*
X65769Y-39045D01*
X65857Y-39045D01*
X66058Y-38962D01*
X66211Y-38809D01*
X66247Y-38724D01*
X66272Y-38785D01*
X66367Y-38811D01*
X66679Y-38500D01*
X66367Y-38188D01*
X66272Y-38214D01*
X66249Y-38280D01*
X66212Y-38191D01*
X66059Y-38038D01*
X65858Y-37954D01*
X65642Y-37954D01*
X65600Y-37971D01*
X65600Y-37301D01*
X65660Y-37241D01*
X65724Y-37084D01*
X65725Y-36915D01*
X65660Y-36759D01*
X65541Y-36639D01*
X65384Y-36575D01*
X65215Y-36574D01*
X65059Y-36639D01*
X64939Y-36758D01*
X64875Y-36915D01*
X64875Y-36961D01*
X64858Y-36954D01*
X64642Y-36954D01*
X64441Y-37037D01*
X64288Y-37190D01*
X64250Y-37282D01*
X64212Y-37191D01*
X64059Y-37038D01*
X64050Y-37034D01*
X64050Y-35074D01*
X64924Y-34200D01*
X66100Y-34200D01*
X66100Y-34199D01*
X66214Y-34177D01*
X66214Y-34177D01*
X66312Y-34112D01*
X67412Y-33012D01*
X67412Y-33012D01*
X67456Y-32946D01*
X67464Y-32977D01*
X67669Y-33050D01*
X67886Y-33039D01*
X68000Y-32991D01*
X68000Y-34400D01*
X68000Y-38013D01*
X67858Y-37954D01*
X67642Y-37954D01*
X67441Y-38037D01*
X67295Y-38183D01*
X67295Y-37392D01*
X67212Y-37191D01*
X67059Y-37038D01*
X66858Y-36954D01*
X66642Y-36954D01*
X66441Y-37037D01*
X66288Y-37190D01*
X66204Y-37391D01*
X66204Y-37607D01*
X66287Y-37808D01*
X66440Y-37961D01*
X66525Y-37997D01*
X66464Y-38022D01*
X66438Y-38117D01*
X66750Y-38429D01*
X67061Y-38117D01*
X67035Y-38022D01*
X66969Y-37999D01*
X67058Y-37962D01*
X67211Y-37809D01*
X67295Y-37608D01*
X67295Y-37392D01*
X67295Y-38183D01*
X67288Y-38190D01*
X67252Y-38275D01*
X67227Y-38214D01*
X67132Y-38188D01*
X66820Y-38500D01*
X67132Y-38811D01*
X67227Y-38785D01*
X67250Y-38719D01*
X67287Y-38808D01*
X67440Y-38961D01*
X67641Y-39045D01*
X67857Y-39045D01*
X68000Y-38986D01*
X68000Y-39281D01*
X67825Y-39220D01*
X67617Y-39231D01*
X67477Y-39289D01*
X67452Y-39382D01*
X67750Y-39679D01*
X67755Y-39673D01*
X67826Y-39744D01*
X67820Y-39750D01*
X67826Y-39755D01*
X67755Y-39826D01*
X67750Y-39820D01*
X67679Y-39891D01*
X67679Y-39750D01*
X67382Y-39452D01*
X67289Y-39477D01*
X67220Y-39674D01*
X67231Y-39882D01*
X67289Y-40022D01*
X67382Y-40047D01*
X67679Y-39750D01*
X67679Y-39891D01*
X67452Y-40117D01*
X67477Y-40210D01*
X67674Y-40279D01*
X67882Y-40268D01*
X68000Y-40219D01*
X68000Y-40775D01*
G54D10*
G36*
X69950Y-46950D02*
X68906Y-46950D01*
X68906Y-44842D01*
X68763Y-44496D01*
X68499Y-44232D01*
X68275Y-44139D01*
X68275Y-42975D01*
X68275Y-42425D01*
X68237Y-42333D01*
X68166Y-42263D01*
X68074Y-42225D01*
X67975Y-42224D01*
X67425Y-42224D01*
X67333Y-42262D01*
X67263Y-42333D01*
X67225Y-42425D01*
X67224Y-42524D01*
X67224Y-43074D01*
X67262Y-43166D01*
X67333Y-43236D01*
X67425Y-43274D01*
X67524Y-43275D01*
X68074Y-43275D01*
X68166Y-43237D01*
X68236Y-43166D01*
X68274Y-43074D01*
X68275Y-42975D01*
X68275Y-44139D01*
X68154Y-44089D01*
X67781Y-44088D01*
X67435Y-44231D01*
X67171Y-44495D01*
X67028Y-44840D01*
X67027Y-45213D01*
X67170Y-45559D01*
X67434Y-45823D01*
X67779Y-45966D01*
X68152Y-45967D01*
X68498Y-45824D01*
X68762Y-45560D01*
X68905Y-45215D01*
X68906Y-44842D01*
X68906Y-46950D01*
X60981Y-46950D01*
X60981Y-45118D01*
X60981Y-43800D01*
X60981Y-43700D01*
X60981Y-42381D01*
X60918Y-42318D01*
X60686Y-42318D01*
X60594Y-42356D01*
X60524Y-42427D01*
X60486Y-42518D01*
X60486Y-42618D01*
X60486Y-43637D01*
X60548Y-43700D01*
X60981Y-43700D01*
X60981Y-43800D01*
X60548Y-43800D01*
X60486Y-43862D01*
X60486Y-44881D01*
X60486Y-44981D01*
X60524Y-45072D01*
X60594Y-45143D01*
X60686Y-45181D01*
X60918Y-45181D01*
X60981Y-45118D01*
X60981Y-46950D01*
X53981Y-46950D01*
X53981Y-45118D01*
X53981Y-43800D01*
X53981Y-43700D01*
X53981Y-42381D01*
X53918Y-42318D01*
X53686Y-42318D01*
X53594Y-42356D01*
X53524Y-42427D01*
X53486Y-42518D01*
X53486Y-42618D01*
X53486Y-43637D01*
X53548Y-43700D01*
X53981Y-43700D01*
X53981Y-43800D01*
X53548Y-43800D01*
X53486Y-43862D01*
X53486Y-44881D01*
X53486Y-44981D01*
X53524Y-45072D01*
X53594Y-45143D01*
X53686Y-45181D01*
X53918Y-45181D01*
X53981Y-45118D01*
X53981Y-46950D01*
X53158Y-46950D01*
X53158Y-44842D01*
X53015Y-44496D01*
X52751Y-44232D01*
X52406Y-44089D01*
X52033Y-44088D01*
X51687Y-44231D01*
X51423Y-44495D01*
X51280Y-44840D01*
X51279Y-45213D01*
X51422Y-45559D01*
X51686Y-45823D01*
X52031Y-45966D01*
X52404Y-45967D01*
X52750Y-45824D01*
X53014Y-45560D01*
X53157Y-45215D01*
X53158Y-44842D01*
X53158Y-46950D01*
X50300Y-46950D01*
X50300Y-43938D01*
X51640Y-43938D01*
X51640Y-41661D01*
X50300Y-41661D01*
X50300Y-15550D01*
X69950Y-15550D01*
X69950Y-19303D01*
X69885Y-19284D01*
X69815Y-19355D01*
X69815Y-19214D01*
X69787Y-19118D01*
X69581Y-19045D01*
X69363Y-19056D01*
X69212Y-19118D01*
X69184Y-19214D01*
X69500Y-19529D01*
X69815Y-19214D01*
X69815Y-19355D01*
X69570Y-19600D01*
X69885Y-19915D01*
X69950Y-19896D01*
X69950Y-27214D01*
X69945Y-27203D01*
X69897Y-27155D01*
X69897Y-21085D01*
X69888Y-20829D01*
X69815Y-20652D01*
X69815Y-19985D01*
X69500Y-19670D01*
X69184Y-19985D01*
X69212Y-20081D01*
X69418Y-20154D01*
X69636Y-20143D01*
X69787Y-20081D01*
X69815Y-19985D01*
X69815Y-20652D01*
X69808Y-20636D01*
X69703Y-20598D01*
X69632Y-20668D01*
X69320Y-20981D01*
X69703Y-21363D01*
X69808Y-21325D01*
X69897Y-21085D01*
X69897Y-27155D01*
X69893Y-27151D01*
X69893Y-24853D01*
X69795Y-24616D01*
X69632Y-24453D01*
X69632Y-21434D01*
X69250Y-21051D01*
X68867Y-21434D01*
X68905Y-21539D01*
X69145Y-21628D01*
X69401Y-21619D01*
X69594Y-21539D01*
X69632Y-21434D01*
X69632Y-24453D01*
X69614Y-24435D01*
X69378Y-24337D01*
X69122Y-24337D01*
X68885Y-24435D01*
X68704Y-24616D01*
X68627Y-24802D01*
X68545Y-24604D01*
X68364Y-24423D01*
X68128Y-24325D01*
X67872Y-24325D01*
X67635Y-24423D01*
X67454Y-24604D01*
X67374Y-24796D01*
X67295Y-24604D01*
X67132Y-24441D01*
X67132Y-21422D01*
X66750Y-21039D01*
X66679Y-21110D01*
X66679Y-20969D01*
X66296Y-20586D01*
X66191Y-20624D01*
X66102Y-20864D01*
X66111Y-21120D01*
X66191Y-21313D01*
X66296Y-21351D01*
X66679Y-20969D01*
X66679Y-21110D01*
X66367Y-21422D01*
X66405Y-21527D01*
X66645Y-21616D01*
X66901Y-21607D01*
X67094Y-21527D01*
X67132Y-21422D01*
X67132Y-24441D01*
X67114Y-24423D01*
X66878Y-24325D01*
X66622Y-24325D01*
X66385Y-24423D01*
X66204Y-24604D01*
X66200Y-24615D01*
X66200Y-24369D01*
X66177Y-24254D01*
X66112Y-24156D01*
X66112Y-24156D01*
X65928Y-23973D01*
X65928Y-22604D01*
X65919Y-22348D01*
X65839Y-22155D01*
X65734Y-22117D01*
X65663Y-22187D01*
X65663Y-22046D01*
X65625Y-21941D01*
X65385Y-21852D01*
X65129Y-21861D01*
X64936Y-21941D01*
X64898Y-22046D01*
X65281Y-22429D01*
X65663Y-22046D01*
X65663Y-22187D01*
X65351Y-22500D01*
X65734Y-22882D01*
X65839Y-22844D01*
X65928Y-22604D01*
X65928Y-23973D01*
X65897Y-23942D01*
X65924Y-23878D01*
X65924Y-23622D01*
X65826Y-23385D01*
X65645Y-23204D01*
X65459Y-23127D01*
X65625Y-23058D01*
X65663Y-22953D01*
X65281Y-22570D01*
X65210Y-22641D01*
X65210Y-22500D01*
X64827Y-22117D01*
X64722Y-22155D01*
X64633Y-22395D01*
X64642Y-22651D01*
X64722Y-22844D01*
X64827Y-22882D01*
X65210Y-22500D01*
X65210Y-22641D01*
X64898Y-22953D01*
X64936Y-23058D01*
X65111Y-23123D01*
X64916Y-23204D01*
X64735Y-23385D01*
X64637Y-23621D01*
X64637Y-23877D01*
X64735Y-24114D01*
X64916Y-24295D01*
X65102Y-24372D01*
X64904Y-24454D01*
X64723Y-24635D01*
X64625Y-24871D01*
X64625Y-25127D01*
X64723Y-25364D01*
X64904Y-25545D01*
X65102Y-25627D01*
X64916Y-25704D01*
X64735Y-25885D01*
X64637Y-26121D01*
X64637Y-26377D01*
X64735Y-26614D01*
X64800Y-26679D01*
X64787Y-26687D01*
X61987Y-29487D01*
X61977Y-29503D01*
X61937Y-29487D01*
X62212Y-29212D01*
X62212Y-29212D01*
X62277Y-29114D01*
X62299Y-29000D01*
X62300Y-29000D01*
X62300Y-26969D01*
X62277Y-26854D01*
X62212Y-26756D01*
X62212Y-26756D01*
X61897Y-26442D01*
X61924Y-26378D01*
X61924Y-26122D01*
X61826Y-25885D01*
X61645Y-25704D01*
X61447Y-25622D01*
X61633Y-25545D01*
X61814Y-25364D01*
X61912Y-25128D01*
X61912Y-24872D01*
X61814Y-24635D01*
X61633Y-24454D01*
X61447Y-24377D01*
X61645Y-24295D01*
X61826Y-24114D01*
X61924Y-23878D01*
X61924Y-23622D01*
X61826Y-23385D01*
X61645Y-23204D01*
X61581Y-23177D01*
X61581Y-23072D01*
X61645Y-23045D01*
X61826Y-22864D01*
X61924Y-22628D01*
X61924Y-22372D01*
X61826Y-22135D01*
X61645Y-21954D01*
X61409Y-21856D01*
X61153Y-21856D01*
X60925Y-21950D01*
X60925Y-21915D01*
X60877Y-21800D01*
X62250Y-21800D01*
X62250Y-21799D01*
X62364Y-21777D01*
X62364Y-21777D01*
X62462Y-21712D01*
X62634Y-21539D01*
X62811Y-21466D01*
X62965Y-21311D01*
X63049Y-21109D01*
X63050Y-20891D01*
X62966Y-20688D01*
X62831Y-20553D01*
X62831Y-19931D01*
X62876Y-19931D01*
X62968Y-19893D01*
X63023Y-19837D01*
X63078Y-19892D01*
X63170Y-19931D01*
X63269Y-19931D01*
X63860Y-19931D01*
X63952Y-19893D01*
X64007Y-19837D01*
X64062Y-19892D01*
X64154Y-19931D01*
X64254Y-19931D01*
X64844Y-19931D01*
X64936Y-19893D01*
X64992Y-19837D01*
X65047Y-19892D01*
X65139Y-19931D01*
X65184Y-19931D01*
X65184Y-20538D01*
X65050Y-20672D01*
X65050Y-20650D01*
X65012Y-20558D01*
X64941Y-20488D01*
X64849Y-20450D01*
X64750Y-20449D01*
X64150Y-20449D01*
X64058Y-20487D01*
X63988Y-20558D01*
X63950Y-20650D01*
X63949Y-20749D01*
X63949Y-21349D01*
X63987Y-21441D01*
X64058Y-21511D01*
X64150Y-21549D01*
X64249Y-21550D01*
X64849Y-21550D01*
X64941Y-21512D01*
X65011Y-21441D01*
X65049Y-21349D01*
X65049Y-21327D01*
X65188Y-21465D01*
X65390Y-21549D01*
X65608Y-21550D01*
X65811Y-21466D01*
X65965Y-21311D01*
X66049Y-21109D01*
X66050Y-20891D01*
X65966Y-20688D01*
X65811Y-20534D01*
X65784Y-20522D01*
X65784Y-19931D01*
X65829Y-19931D01*
X65920Y-19893D01*
X65976Y-19837D01*
X66031Y-19892D01*
X66123Y-19931D01*
X66222Y-19931D01*
X66813Y-19931D01*
X66905Y-19893D01*
X66975Y-19822D01*
X66986Y-19797D01*
X67033Y-19911D01*
X67188Y-20065D01*
X67390Y-20149D01*
X67608Y-20150D01*
X67811Y-20066D01*
X67965Y-19911D01*
X67999Y-19830D01*
X68033Y-19911D01*
X68188Y-20065D01*
X68200Y-20070D01*
X68200Y-20344D01*
X68192Y-20352D01*
X68128Y-20325D01*
X67872Y-20325D01*
X67635Y-20423D01*
X67454Y-20604D01*
X67377Y-20790D01*
X67308Y-20624D01*
X67203Y-20586D01*
X67132Y-20656D01*
X67132Y-20515D01*
X67094Y-20410D01*
X66854Y-20321D01*
X66598Y-20330D01*
X66405Y-20410D01*
X66367Y-20515D01*
X66750Y-20898D01*
X67132Y-20515D01*
X67132Y-20656D01*
X66820Y-20969D01*
X67203Y-21351D01*
X67308Y-21313D01*
X67373Y-21138D01*
X67454Y-21333D01*
X67635Y-21514D01*
X67871Y-21612D01*
X68127Y-21612D01*
X68364Y-21514D01*
X68545Y-21333D01*
X68620Y-21153D01*
X68691Y-21325D01*
X68796Y-21363D01*
X69179Y-20981D01*
X69173Y-20975D01*
X69244Y-20904D01*
X69250Y-20910D01*
X69632Y-20527D01*
X69594Y-20422D01*
X69354Y-20333D01*
X69098Y-20342D01*
X68905Y-20422D01*
X68867Y-20527D01*
X68822Y-20482D01*
X68791Y-20513D01*
X68799Y-20469D01*
X68800Y-20469D01*
X68800Y-20071D01*
X68811Y-20066D01*
X68965Y-19911D01*
X68997Y-19836D01*
X69018Y-19887D01*
X69114Y-19915D01*
X69429Y-19600D01*
X69114Y-19284D01*
X69018Y-19312D01*
X68999Y-19367D01*
X68966Y-19288D01*
X68906Y-19228D01*
X68906Y-17283D01*
X68763Y-16937D01*
X68499Y-16673D01*
X68154Y-16530D01*
X67781Y-16529D01*
X67435Y-16672D01*
X67171Y-16936D01*
X67028Y-17281D01*
X67027Y-17654D01*
X67170Y-18000D01*
X67434Y-18264D01*
X67779Y-18407D01*
X68152Y-18408D01*
X68498Y-18265D01*
X68762Y-18001D01*
X68905Y-17656D01*
X68906Y-17283D01*
X68906Y-19228D01*
X68811Y-19134D01*
X68609Y-19050D01*
X68391Y-19049D01*
X68188Y-19133D01*
X68034Y-19288D01*
X68000Y-19369D01*
X67966Y-19288D01*
X67811Y-19134D01*
X67609Y-19050D01*
X67391Y-19049D01*
X67188Y-19133D01*
X67034Y-19288D01*
X67013Y-19336D01*
X67013Y-17269D01*
X66975Y-17177D01*
X66905Y-17107D01*
X66813Y-17068D01*
X66714Y-17068D01*
X66123Y-17068D01*
X66031Y-17106D01*
X65976Y-17162D01*
X65921Y-17107D01*
X65829Y-17068D01*
X65730Y-17068D01*
X65139Y-17068D01*
X65047Y-17106D01*
X64992Y-17162D01*
X64937Y-17107D01*
X64845Y-17068D01*
X64745Y-17068D01*
X64155Y-17068D01*
X64063Y-17106D01*
X64007Y-17162D01*
X63952Y-17107D01*
X63860Y-17068D01*
X63761Y-17068D01*
X63170Y-17068D01*
X63079Y-17106D01*
X63023Y-17162D01*
X62968Y-17107D01*
X62876Y-17068D01*
X62777Y-17068D01*
X62186Y-17068D01*
X62094Y-17106D01*
X62039Y-17162D01*
X61983Y-17106D01*
X61892Y-17068D01*
X61659Y-17068D01*
X61597Y-17131D01*
X61597Y-18450D01*
X61605Y-18450D01*
X61605Y-18550D01*
X61597Y-18550D01*
X61597Y-19868D01*
X61659Y-19931D01*
X61892Y-19931D01*
X61983Y-19893D01*
X62039Y-19837D01*
X62094Y-19892D01*
X62186Y-19931D01*
X62231Y-19931D01*
X62231Y-20515D01*
X62188Y-20533D01*
X62050Y-20672D01*
X62050Y-20650D01*
X62012Y-20558D01*
X61941Y-20488D01*
X61849Y-20450D01*
X61750Y-20449D01*
X61497Y-20449D01*
X61497Y-19868D01*
X61497Y-18550D01*
X61497Y-18450D01*
X61497Y-17131D01*
X61434Y-17068D01*
X61202Y-17068D01*
X61110Y-17106D01*
X61040Y-17177D01*
X61002Y-17268D01*
X61001Y-17368D01*
X61001Y-18387D01*
X61064Y-18450D01*
X61497Y-18450D01*
X61497Y-18550D01*
X61064Y-18550D01*
X61001Y-18612D01*
X61001Y-19631D01*
X61002Y-19731D01*
X61040Y-19822D01*
X61110Y-19893D01*
X61202Y-19931D01*
X61434Y-19931D01*
X61497Y-19868D01*
X61497Y-20449D01*
X61150Y-20449D01*
X61058Y-20487D01*
X60988Y-20558D01*
X60950Y-20650D01*
X60949Y-20749D01*
X60949Y-21200D01*
X60250Y-21200D01*
X60135Y-21222D01*
X60050Y-21279D01*
X60050Y-21250D01*
X60050Y-20749D01*
X60049Y-20650D01*
X60013Y-20563D01*
X60013Y-19631D01*
X60013Y-17368D01*
X60013Y-17268D01*
X59975Y-17177D01*
X59905Y-17106D01*
X59813Y-17068D01*
X59581Y-17068D01*
X59518Y-17131D01*
X59518Y-18450D01*
X59951Y-18450D01*
X60013Y-18387D01*
X60013Y-17368D01*
X60013Y-19631D01*
X60013Y-18612D01*
X59951Y-18550D01*
X59518Y-18550D01*
X59518Y-19868D01*
X59581Y-19931D01*
X59813Y-19931D01*
X59905Y-19893D01*
X59975Y-19822D01*
X60013Y-19731D01*
X60013Y-19631D01*
X60013Y-20563D01*
X60011Y-20558D01*
X59941Y-20487D01*
X59849Y-20449D01*
X59612Y-20450D01*
X59550Y-20512D01*
X59550Y-20950D01*
X59987Y-20950D01*
X60050Y-20887D01*
X60050Y-20749D01*
X60050Y-21250D01*
X60050Y-21112D01*
X59987Y-21050D01*
X59550Y-21050D01*
X59550Y-21487D01*
X59612Y-21550D01*
X59779Y-21550D01*
X59722Y-21635D01*
X59701Y-21742D01*
X59580Y-21699D01*
X59363Y-21710D01*
X59214Y-21772D01*
X59188Y-21867D01*
X59500Y-22179D01*
X59505Y-22173D01*
X59576Y-22244D01*
X59570Y-22250D01*
X59576Y-22255D01*
X59505Y-22326D01*
X59500Y-22320D01*
X59188Y-22632D01*
X59214Y-22727D01*
X59419Y-22800D01*
X59636Y-22789D01*
X59700Y-22762D01*
X59700Y-23242D01*
X59580Y-23199D01*
X59363Y-23210D01*
X59214Y-23272D01*
X59188Y-23367D01*
X59500Y-23679D01*
X59505Y-23673D01*
X59576Y-23744D01*
X59570Y-23750D01*
X59576Y-23755D01*
X59505Y-23826D01*
X59500Y-23820D01*
X59188Y-24132D01*
X59214Y-24227D01*
X59419Y-24300D01*
X59636Y-24289D01*
X59700Y-24262D01*
X59700Y-25724D01*
X59175Y-25724D01*
X59083Y-25762D01*
X59013Y-25833D01*
X58975Y-25925D01*
X58974Y-26013D01*
X58937Y-26037D01*
X58537Y-26437D01*
X58472Y-26535D01*
X58450Y-26650D01*
X58450Y-27000D01*
X58450Y-32033D01*
X58441Y-32037D01*
X58288Y-32190D01*
X58250Y-32282D01*
X58212Y-32191D01*
X58059Y-32038D01*
X58050Y-32034D01*
X58050Y-28750D01*
X58027Y-28635D01*
X57962Y-28537D01*
X57962Y-28537D01*
X57844Y-28420D01*
X57990Y-28360D01*
X58110Y-28241D01*
X58174Y-28084D01*
X58175Y-27915D01*
X58110Y-27759D01*
X58050Y-27698D01*
X58050Y-27250D01*
X58050Y-26374D01*
X58962Y-25462D01*
X58962Y-25462D01*
X59027Y-25364D01*
X59049Y-25250D01*
X59050Y-25250D01*
X59050Y-24042D01*
X59117Y-24061D01*
X59429Y-23750D01*
X59117Y-23438D01*
X59050Y-23457D01*
X59050Y-22542D01*
X59117Y-22561D01*
X59429Y-22250D01*
X59117Y-21938D01*
X59050Y-21957D01*
X59050Y-21750D01*
X59027Y-21635D01*
X58962Y-21537D01*
X58962Y-21537D01*
X58851Y-21426D01*
X58950Y-21327D01*
X58950Y-21349D01*
X58988Y-21441D01*
X59058Y-21512D01*
X59150Y-21550D01*
X59387Y-21550D01*
X59450Y-21487D01*
X59450Y-21050D01*
X59442Y-21050D01*
X59442Y-20950D01*
X59450Y-20950D01*
X59450Y-20512D01*
X59387Y-20450D01*
X59150Y-20449D01*
X59058Y-20487D01*
X58988Y-20558D01*
X58950Y-20650D01*
X58950Y-20672D01*
X58811Y-20534D01*
X58784Y-20522D01*
X58784Y-19931D01*
X58829Y-19931D01*
X58920Y-19893D01*
X58976Y-19837D01*
X59031Y-19893D01*
X59123Y-19931D01*
X59356Y-19931D01*
X59418Y-19868D01*
X59418Y-18550D01*
X59410Y-18550D01*
X59410Y-18450D01*
X59418Y-18450D01*
X59418Y-17131D01*
X59356Y-17068D01*
X59123Y-17068D01*
X59031Y-17106D01*
X58976Y-17162D01*
X58921Y-17107D01*
X58829Y-17068D01*
X58730Y-17068D01*
X58139Y-17068D01*
X58047Y-17106D01*
X57992Y-17162D01*
X57937Y-17107D01*
X57845Y-17068D01*
X57745Y-17068D01*
X57155Y-17068D01*
X57063Y-17106D01*
X57007Y-17162D01*
X56952Y-17107D01*
X56860Y-17068D01*
X56761Y-17068D01*
X56170Y-17068D01*
X56079Y-17106D01*
X56023Y-17162D01*
X55968Y-17107D01*
X55876Y-17068D01*
X55777Y-17068D01*
X55186Y-17068D01*
X55094Y-17106D01*
X55039Y-17162D01*
X54984Y-17107D01*
X54892Y-17068D01*
X54793Y-17068D01*
X54202Y-17068D01*
X54110Y-17106D01*
X54040Y-17177D01*
X54002Y-17268D01*
X54001Y-17368D01*
X54001Y-19577D01*
X53243Y-18818D01*
X53145Y-18753D01*
X53076Y-18739D01*
X53045Y-18666D01*
X52864Y-18485D01*
X52628Y-18387D01*
X52455Y-18387D01*
X52750Y-18265D01*
X53014Y-18001D01*
X53157Y-17656D01*
X53158Y-17283D01*
X53015Y-16937D01*
X52751Y-16673D01*
X52406Y-16530D01*
X52033Y-16529D01*
X51687Y-16672D01*
X51423Y-16936D01*
X51280Y-17281D01*
X51279Y-17654D01*
X51422Y-18000D01*
X51686Y-18264D01*
X52031Y-18407D01*
X52322Y-18408D01*
X52135Y-18485D01*
X51954Y-18666D01*
X51856Y-18902D01*
X51856Y-19158D01*
X51954Y-19395D01*
X52135Y-19576D01*
X52371Y-19674D01*
X52627Y-19674D01*
X52864Y-19576D01*
X53008Y-19432D01*
X54037Y-20462D01*
X54037Y-20462D01*
X54135Y-20527D01*
X54185Y-20537D01*
X54034Y-20688D01*
X53950Y-20890D01*
X53949Y-21108D01*
X54033Y-21311D01*
X54188Y-21465D01*
X54269Y-21499D01*
X54188Y-21533D01*
X54034Y-21688D01*
X54029Y-21700D01*
X53750Y-21700D01*
X53635Y-21722D01*
X53537Y-21787D01*
X53037Y-22287D01*
X52972Y-22385D01*
X52950Y-22500D01*
X52950Y-22570D01*
X52864Y-22485D01*
X52628Y-22387D01*
X52372Y-22387D01*
X52135Y-22485D01*
X51954Y-22666D01*
X51856Y-22902D01*
X51856Y-23158D01*
X51883Y-23223D01*
X51787Y-23318D01*
X51722Y-23416D01*
X51700Y-23531D01*
X51700Y-24028D01*
X51688Y-24033D01*
X51647Y-24074D01*
X51647Y-19073D01*
X51638Y-18817D01*
X51558Y-18624D01*
X51453Y-18586D01*
X51382Y-18656D01*
X51382Y-18515D01*
X51344Y-18410D01*
X51104Y-18321D01*
X50848Y-18330D01*
X50655Y-18410D01*
X50617Y-18515D01*
X51000Y-18898D01*
X51382Y-18515D01*
X51382Y-18656D01*
X51070Y-18969D01*
X51453Y-19351D01*
X51558Y-19313D01*
X51647Y-19073D01*
X51647Y-24074D01*
X51643Y-24078D01*
X51643Y-22841D01*
X51545Y-22604D01*
X51382Y-22441D01*
X51382Y-19422D01*
X51000Y-19039D01*
X50929Y-19110D01*
X50929Y-18969D01*
X50546Y-18586D01*
X50441Y-18624D01*
X50352Y-18864D01*
X50361Y-19120D01*
X50441Y-19313D01*
X50546Y-19351D01*
X50929Y-18969D01*
X50929Y-19110D01*
X50617Y-19422D01*
X50655Y-19527D01*
X50895Y-19616D01*
X51151Y-19607D01*
X51344Y-19527D01*
X51382Y-19422D01*
X51382Y-22441D01*
X51364Y-22423D01*
X51128Y-22325D01*
X50872Y-22325D01*
X50635Y-22423D01*
X50454Y-22604D01*
X50356Y-22840D01*
X50356Y-23096D01*
X50454Y-23333D01*
X50635Y-23514D01*
X50871Y-23612D01*
X51127Y-23612D01*
X51364Y-23514D01*
X51545Y-23333D01*
X51643Y-23097D01*
X51643Y-22841D01*
X51643Y-24078D01*
X51534Y-24188D01*
X51502Y-24263D01*
X51481Y-24212D01*
X51385Y-24184D01*
X51315Y-24255D01*
X51315Y-24114D01*
X51287Y-24018D01*
X51081Y-23945D01*
X50863Y-23956D01*
X50712Y-24018D01*
X50684Y-24114D01*
X51000Y-24429D01*
X51315Y-24114D01*
X51315Y-24255D01*
X51070Y-24500D01*
X51385Y-24815D01*
X51481Y-24787D01*
X51500Y-24732D01*
X51533Y-24811D01*
X51688Y-24965D01*
X51890Y-25049D01*
X52108Y-25050D01*
X52311Y-24966D01*
X52465Y-24811D01*
X52499Y-24730D01*
X52533Y-24811D01*
X52688Y-24965D01*
X52809Y-25016D01*
X52787Y-25037D01*
X52722Y-25135D01*
X52700Y-25250D01*
X52700Y-27028D01*
X52688Y-27033D01*
X52534Y-27188D01*
X52502Y-27263D01*
X52481Y-27212D01*
X52385Y-27184D01*
X52315Y-27255D01*
X52315Y-27114D01*
X52287Y-27018D01*
X52081Y-26945D01*
X51863Y-26956D01*
X51712Y-27018D01*
X51684Y-27114D01*
X52000Y-27429D01*
X52315Y-27114D01*
X52315Y-27255D01*
X52070Y-27500D01*
X52385Y-27815D01*
X52481Y-27787D01*
X52500Y-27732D01*
X52533Y-27811D01*
X52688Y-27965D01*
X52700Y-27970D01*
X52700Y-28281D01*
X52709Y-28330D01*
X52614Y-28235D01*
X52378Y-28137D01*
X52315Y-28137D01*
X52315Y-27885D01*
X52000Y-27570D01*
X51929Y-27641D01*
X51929Y-27500D01*
X51614Y-27184D01*
X51518Y-27212D01*
X51499Y-27267D01*
X51466Y-27188D01*
X51315Y-27037D01*
X51315Y-24885D01*
X51000Y-24570D01*
X50929Y-24641D01*
X50929Y-24500D01*
X50614Y-24184D01*
X50518Y-24212D01*
X50445Y-24418D01*
X50456Y-24636D01*
X50518Y-24787D01*
X50614Y-24815D01*
X50929Y-24500D01*
X50929Y-24641D01*
X50684Y-24885D01*
X50712Y-24981D01*
X50918Y-25054D01*
X51136Y-25043D01*
X51287Y-24981D01*
X51315Y-24885D01*
X51315Y-27037D01*
X51311Y-27034D01*
X51109Y-26950D01*
X50891Y-26949D01*
X50688Y-27033D01*
X50534Y-27188D01*
X50450Y-27390D01*
X50449Y-27608D01*
X50533Y-27811D01*
X50688Y-27965D01*
X50890Y-28049D01*
X51108Y-28050D01*
X51311Y-27966D01*
X51465Y-27811D01*
X51497Y-27736D01*
X51518Y-27787D01*
X51614Y-27815D01*
X51929Y-27500D01*
X51929Y-27641D01*
X51684Y-27885D01*
X51712Y-27981D01*
X51918Y-28054D01*
X52136Y-28043D01*
X52287Y-27981D01*
X52315Y-27885D01*
X52315Y-28137D01*
X52122Y-28137D01*
X51885Y-28235D01*
X51704Y-28416D01*
X51624Y-28608D01*
X51545Y-28416D01*
X51364Y-28235D01*
X51128Y-28137D01*
X50872Y-28137D01*
X50635Y-28235D01*
X50454Y-28416D01*
X50356Y-28652D01*
X50356Y-28908D01*
X50454Y-29145D01*
X50635Y-29326D01*
X50700Y-29353D01*
X50700Y-31000D01*
X50722Y-31114D01*
X50787Y-31212D01*
X51300Y-31724D01*
X51300Y-32205D01*
X51104Y-32133D01*
X50848Y-32142D01*
X50655Y-32222D01*
X50617Y-32327D01*
X51000Y-32710D01*
X51005Y-32704D01*
X51076Y-32775D01*
X51070Y-32781D01*
X51076Y-32786D01*
X51005Y-32857D01*
X51000Y-32851D01*
X50929Y-32922D01*
X50929Y-32781D01*
X50546Y-32398D01*
X50441Y-32436D01*
X50352Y-32676D01*
X50361Y-32932D01*
X50441Y-33125D01*
X50546Y-33163D01*
X50929Y-32781D01*
X50929Y-32922D01*
X50617Y-33234D01*
X50655Y-33339D01*
X50895Y-33428D01*
X51151Y-33419D01*
X51300Y-33357D01*
X51300Y-35175D01*
X50487Y-35987D01*
X50422Y-36085D01*
X50400Y-36200D01*
X50400Y-39900D01*
X50422Y-40014D01*
X50487Y-40112D01*
X50775Y-40399D01*
X50774Y-40484D01*
X50839Y-40640D01*
X50958Y-40760D01*
X51115Y-40824D01*
X51284Y-40825D01*
X51440Y-40760D01*
X51560Y-40641D01*
X51624Y-40484D01*
X51625Y-40315D01*
X51560Y-40159D01*
X51441Y-40039D01*
X51284Y-39975D01*
X51199Y-39974D01*
X51000Y-39775D01*
X51000Y-37244D01*
X51168Y-37304D01*
X51386Y-37293D01*
X51537Y-37231D01*
X51565Y-37135D01*
X51250Y-36820D01*
X51244Y-36826D01*
X51173Y-36755D01*
X51179Y-36750D01*
X51173Y-36744D01*
X51244Y-36673D01*
X51250Y-36679D01*
X51565Y-36364D01*
X51537Y-36268D01*
X51331Y-36195D01*
X51118Y-36205D01*
X51812Y-35512D01*
X51812Y-35512D01*
X51822Y-35496D01*
X51950Y-35624D01*
X51950Y-36278D01*
X51938Y-36283D01*
X51784Y-36438D01*
X51752Y-36513D01*
X51731Y-36462D01*
X51635Y-36434D01*
X51320Y-36750D01*
X51635Y-37065D01*
X51731Y-37037D01*
X51750Y-36982D01*
X51783Y-37061D01*
X51938Y-37215D01*
X52140Y-37299D01*
X52358Y-37300D01*
X52561Y-37216D01*
X52715Y-37061D01*
X52749Y-36980D01*
X52783Y-37061D01*
X52938Y-37215D01*
X53140Y-37299D01*
X53358Y-37300D01*
X53561Y-37216D01*
X53715Y-37061D01*
X53799Y-36859D01*
X53800Y-36641D01*
X53716Y-36438D01*
X53561Y-36284D01*
X53550Y-36279D01*
X53550Y-36000D01*
X53549Y-35999D01*
X53527Y-35885D01*
X53462Y-35787D01*
X53462Y-35787D01*
X52800Y-35125D01*
X52800Y-34971D01*
X52811Y-34966D01*
X52949Y-34827D01*
X52949Y-34849D01*
X52987Y-34941D01*
X53058Y-35011D01*
X53150Y-35049D01*
X53249Y-35050D01*
X53849Y-35050D01*
X53941Y-35012D01*
X54011Y-34941D01*
X54049Y-34849D01*
X54050Y-34750D01*
X54050Y-34150D01*
X54012Y-34058D01*
X53941Y-33988D01*
X53849Y-33950D01*
X53800Y-33950D01*
X53800Y-33353D01*
X53864Y-33326D01*
X54045Y-33145D01*
X54143Y-32909D01*
X54143Y-32653D01*
X54045Y-32416D01*
X53864Y-32235D01*
X53628Y-32137D01*
X53372Y-32137D01*
X53135Y-32235D01*
X52954Y-32416D01*
X52874Y-32608D01*
X52795Y-32416D01*
X52614Y-32235D01*
X52378Y-32137D01*
X52122Y-32137D01*
X51900Y-32229D01*
X51900Y-31600D01*
X51877Y-31485D01*
X51812Y-31387D01*
X51812Y-31387D01*
X51300Y-30875D01*
X51300Y-29353D01*
X51364Y-29326D01*
X51545Y-29145D01*
X51625Y-28953D01*
X51704Y-29145D01*
X51885Y-29326D01*
X52121Y-29424D01*
X52377Y-29424D01*
X52614Y-29326D01*
X52795Y-29145D01*
X52875Y-28953D01*
X52954Y-29145D01*
X53135Y-29326D01*
X53371Y-29424D01*
X53627Y-29424D01*
X53864Y-29326D01*
X54045Y-29145D01*
X54143Y-28909D01*
X54143Y-28653D01*
X54045Y-28416D01*
X53864Y-28235D01*
X53628Y-28137D01*
X53372Y-28137D01*
X53307Y-28164D01*
X53300Y-28156D01*
X53300Y-27971D01*
X53311Y-27966D01*
X53465Y-27811D01*
X53549Y-27609D01*
X53550Y-27391D01*
X53466Y-27188D01*
X53311Y-27034D01*
X53300Y-27029D01*
X53300Y-25374D01*
X53700Y-24974D01*
X53699Y-25108D01*
X53783Y-25311D01*
X53938Y-25465D01*
X54019Y-25499D01*
X53938Y-25533D01*
X53784Y-25688D01*
X53700Y-25890D01*
X53699Y-26108D01*
X53783Y-26311D01*
X53938Y-26465D01*
X54019Y-26499D01*
X53938Y-26533D01*
X53784Y-26688D01*
X53700Y-26890D01*
X53699Y-27108D01*
X53783Y-27311D01*
X53938Y-27465D01*
X54140Y-27549D01*
X54358Y-27550D01*
X54561Y-27466D01*
X54715Y-27311D01*
X54722Y-27295D01*
X54814Y-27277D01*
X54814Y-27277D01*
X54912Y-27212D01*
X55212Y-26912D01*
X55212Y-26912D01*
X55277Y-26814D01*
X55299Y-26700D01*
X55300Y-26700D01*
X55300Y-24874D01*
X55416Y-24757D01*
X55356Y-24902D01*
X55356Y-25158D01*
X55454Y-25395D01*
X55635Y-25576D01*
X55857Y-25668D01*
X55537Y-25987D01*
X55472Y-26085D01*
X55450Y-26200D01*
X55450Y-26500D01*
X55450Y-28000D01*
X55472Y-28114D01*
X55537Y-28212D01*
X55787Y-28462D01*
X55787Y-28462D01*
X55885Y-28527D01*
X55974Y-28545D01*
X55974Y-28574D01*
X56012Y-28666D01*
X56083Y-28736D01*
X56114Y-28749D01*
X56083Y-28762D01*
X56013Y-28833D01*
X55975Y-28925D01*
X55974Y-29024D01*
X55974Y-29574D01*
X56012Y-29666D01*
X56083Y-29736D01*
X56175Y-29774D01*
X56204Y-29774D01*
X56222Y-29864D01*
X56287Y-29962D01*
X56450Y-30124D01*
X56450Y-32033D01*
X56441Y-32037D01*
X56288Y-32190D01*
X56250Y-32282D01*
X56212Y-32191D01*
X56059Y-32038D01*
X55858Y-31954D01*
X55642Y-31954D01*
X55441Y-32037D01*
X55288Y-32190D01*
X55250Y-32282D01*
X55212Y-32191D01*
X55059Y-32038D01*
X54858Y-31954D01*
X54642Y-31954D01*
X54441Y-32037D01*
X54288Y-32190D01*
X54204Y-32391D01*
X54204Y-32607D01*
X54287Y-32808D01*
X54440Y-32961D01*
X54532Y-32999D01*
X54441Y-33037D01*
X54288Y-33190D01*
X54204Y-33391D01*
X54204Y-33607D01*
X54287Y-33808D01*
X54440Y-33961D01*
X54532Y-33999D01*
X54441Y-34037D01*
X54288Y-34190D01*
X54204Y-34391D01*
X54204Y-34607D01*
X54287Y-34808D01*
X54440Y-34961D01*
X54525Y-34997D01*
X54464Y-35022D01*
X54438Y-35117D01*
X54750Y-35429D01*
X55061Y-35117D01*
X55035Y-35022D01*
X54969Y-34999D01*
X55058Y-34962D01*
X55211Y-34809D01*
X55249Y-34717D01*
X55287Y-34808D01*
X55440Y-34961D01*
X55532Y-34999D01*
X55441Y-35037D01*
X55288Y-35190D01*
X55252Y-35275D01*
X55227Y-35214D01*
X55132Y-35188D01*
X54820Y-35500D01*
X55132Y-35811D01*
X55227Y-35785D01*
X55250Y-35719D01*
X55287Y-35808D01*
X55440Y-35961D01*
X55525Y-35997D01*
X55464Y-36022D01*
X55438Y-36117D01*
X55750Y-36429D01*
X55755Y-36423D01*
X55826Y-36494D01*
X55820Y-36500D01*
X55826Y-36505D01*
X55755Y-36576D01*
X55750Y-36570D01*
X55438Y-36882D01*
X55464Y-36977D01*
X55669Y-37050D01*
X55886Y-37039D01*
X55950Y-37012D01*
X55950Y-37698D01*
X55889Y-37758D01*
X55825Y-37915D01*
X55825Y-37954D01*
X55642Y-37954D01*
X55441Y-38037D01*
X55288Y-38190D01*
X55250Y-38282D01*
X55212Y-38191D01*
X55059Y-38038D01*
X54967Y-38000D01*
X55058Y-37962D01*
X55211Y-37809D01*
X55295Y-37608D01*
X55295Y-37392D01*
X55212Y-37191D01*
X55059Y-37038D01*
X54967Y-37000D01*
X55058Y-36962D01*
X55211Y-36809D01*
X55247Y-36724D01*
X55272Y-36785D01*
X55367Y-36811D01*
X55679Y-36500D01*
X55367Y-36188D01*
X55272Y-36214D01*
X55249Y-36280D01*
X55212Y-36191D01*
X55059Y-36038D01*
X54974Y-36002D01*
X55035Y-35977D01*
X55061Y-35882D01*
X54750Y-35570D01*
X54679Y-35641D01*
X54679Y-35500D01*
X54367Y-35188D01*
X54272Y-35214D01*
X54199Y-35419D01*
X54210Y-35636D01*
X54272Y-35785D01*
X54367Y-35811D01*
X54679Y-35500D01*
X54679Y-35641D01*
X54438Y-35882D01*
X54464Y-35977D01*
X54530Y-36000D01*
X54441Y-36037D01*
X54288Y-36190D01*
X54204Y-36391D01*
X54204Y-36607D01*
X54287Y-36808D01*
X54440Y-36961D01*
X54532Y-36999D01*
X54441Y-37037D01*
X54288Y-37190D01*
X54204Y-37391D01*
X54204Y-37607D01*
X54287Y-37808D01*
X54440Y-37961D01*
X54532Y-37999D01*
X54441Y-38037D01*
X54288Y-38190D01*
X54204Y-38391D01*
X54204Y-38607D01*
X54287Y-38808D01*
X54440Y-38961D01*
X54641Y-39045D01*
X54857Y-39045D01*
X55058Y-38962D01*
X55211Y-38809D01*
X55249Y-38717D01*
X55287Y-38808D01*
X55440Y-38961D01*
X55450Y-38965D01*
X55450Y-41375D01*
X54803Y-42022D01*
X54738Y-42119D01*
X54715Y-42234D01*
X54715Y-42318D01*
X54670Y-42318D01*
X54579Y-42356D01*
X54523Y-42412D01*
X54468Y-42356D01*
X54376Y-42318D01*
X54143Y-42318D01*
X54081Y-42381D01*
X54081Y-43700D01*
X54089Y-43700D01*
X54089Y-43800D01*
X54081Y-43800D01*
X54081Y-45118D01*
X54143Y-45181D01*
X54376Y-45181D01*
X54468Y-45143D01*
X54523Y-45087D01*
X54578Y-45142D01*
X54670Y-45181D01*
X54769Y-45181D01*
X55360Y-45181D01*
X55452Y-45143D01*
X55507Y-45087D01*
X55563Y-45143D01*
X55655Y-45181D01*
X55887Y-45181D01*
X55950Y-45118D01*
X55950Y-43800D01*
X55942Y-43800D01*
X55942Y-43700D01*
X55950Y-43700D01*
X55950Y-42381D01*
X55887Y-42318D01*
X55655Y-42318D01*
X55563Y-42356D01*
X55507Y-42412D01*
X55452Y-42357D01*
X55360Y-42318D01*
X55355Y-42318D01*
X55962Y-41712D01*
X55962Y-41712D01*
X56027Y-41614D01*
X56049Y-41500D01*
X56050Y-41500D01*
X56050Y-38966D01*
X56058Y-38962D01*
X56211Y-38809D01*
X56249Y-38717D01*
X56287Y-38808D01*
X56440Y-38961D01*
X56450Y-38965D01*
X56450Y-42000D01*
X56472Y-42114D01*
X56537Y-42212D01*
X56644Y-42318D01*
X56639Y-42318D01*
X56547Y-42356D01*
X56492Y-42412D01*
X56436Y-42356D01*
X56344Y-42318D01*
X56112Y-42318D01*
X56050Y-42381D01*
X56050Y-43700D01*
X56057Y-43700D01*
X56057Y-43800D01*
X56050Y-43800D01*
X56050Y-45118D01*
X56112Y-45181D01*
X56344Y-45181D01*
X56436Y-45143D01*
X56492Y-45087D01*
X56547Y-45142D01*
X56639Y-45181D01*
X56738Y-45181D01*
X57329Y-45181D01*
X57420Y-45143D01*
X57476Y-45087D01*
X57531Y-45143D01*
X57623Y-45181D01*
X57856Y-45181D01*
X57918Y-45118D01*
X57918Y-43800D01*
X57910Y-43800D01*
X57910Y-43700D01*
X57918Y-43700D01*
X57918Y-42381D01*
X57856Y-42318D01*
X57623Y-42318D01*
X57531Y-42356D01*
X57476Y-42412D01*
X57421Y-42357D01*
X57329Y-42318D01*
X57284Y-42318D01*
X57284Y-42234D01*
X57261Y-42119D01*
X57196Y-42022D01*
X57050Y-41875D01*
X57050Y-38966D01*
X57058Y-38962D01*
X57211Y-38809D01*
X57249Y-38717D01*
X57287Y-38808D01*
X57440Y-38961D01*
X57450Y-38965D01*
X57450Y-41000D01*
X57472Y-41114D01*
X57537Y-41212D01*
X58644Y-42318D01*
X58607Y-42318D01*
X58516Y-42356D01*
X58460Y-42412D01*
X58405Y-42356D01*
X58313Y-42318D01*
X58081Y-42318D01*
X58018Y-42381D01*
X58018Y-43700D01*
X58026Y-43700D01*
X58026Y-43800D01*
X58018Y-43800D01*
X58018Y-45118D01*
X58081Y-45181D01*
X58313Y-45181D01*
X58405Y-45143D01*
X58460Y-45087D01*
X58515Y-45142D01*
X58607Y-45181D01*
X58706Y-45181D01*
X59297Y-45181D01*
X59389Y-45143D01*
X59459Y-45072D01*
X59497Y-44981D01*
X59498Y-44881D01*
X59498Y-42519D01*
X59460Y-42427D01*
X59389Y-42357D01*
X59297Y-42318D01*
X59252Y-42318D01*
X59252Y-42202D01*
X59229Y-42087D01*
X59164Y-41990D01*
X59164Y-41990D01*
X58050Y-40875D01*
X58050Y-38966D01*
X58058Y-38962D01*
X58211Y-38809D01*
X58249Y-38717D01*
X58287Y-38808D01*
X58440Y-38961D01*
X58641Y-39045D01*
X58857Y-39045D01*
X59058Y-38962D01*
X59211Y-38809D01*
X59249Y-38717D01*
X59287Y-38808D01*
X59440Y-38961D01*
X59641Y-39045D01*
X59857Y-39045D01*
X60058Y-38962D01*
X60211Y-38809D01*
X60249Y-38717D01*
X60287Y-38808D01*
X60440Y-38961D01*
X60641Y-39045D01*
X60857Y-39045D01*
X61044Y-38968D01*
X61287Y-39212D01*
X61287Y-39212D01*
X61385Y-39277D01*
X61493Y-39298D01*
X61470Y-39322D01*
X61515Y-39367D01*
X61410Y-39405D01*
X61321Y-39645D01*
X61330Y-39901D01*
X61410Y-40094D01*
X61515Y-40132D01*
X61898Y-39750D01*
X61892Y-39744D01*
X61963Y-39673D01*
X61969Y-39679D01*
X61974Y-39673D01*
X62045Y-39744D01*
X62039Y-39750D01*
X62422Y-40132D01*
X62527Y-40094D01*
X62616Y-39854D01*
X62609Y-39668D01*
X62639Y-39740D01*
X62700Y-39801D01*
X62700Y-42318D01*
X62655Y-42318D01*
X62563Y-42356D01*
X62507Y-42412D01*
X62452Y-42357D01*
X62360Y-42318D01*
X62315Y-42318D01*
X62315Y-41552D01*
X62333Y-41545D01*
X62514Y-41364D01*
X62612Y-41128D01*
X62612Y-40872D01*
X62514Y-40635D01*
X62333Y-40454D01*
X62147Y-40377D01*
X62313Y-40308D01*
X62351Y-40203D01*
X61969Y-39820D01*
X61898Y-39891D01*
X61586Y-40203D01*
X61624Y-40308D01*
X61799Y-40373D01*
X61604Y-40454D01*
X61423Y-40635D01*
X61325Y-40871D01*
X61325Y-41127D01*
X61423Y-41364D01*
X61604Y-41545D01*
X61715Y-41591D01*
X61715Y-42318D01*
X61670Y-42318D01*
X61579Y-42356D01*
X61523Y-42412D01*
X61468Y-42356D01*
X61376Y-42318D01*
X61143Y-42318D01*
X61081Y-42381D01*
X61081Y-43700D01*
X61089Y-43700D01*
X61089Y-43800D01*
X61081Y-43800D01*
X61081Y-45118D01*
X61143Y-45181D01*
X61376Y-45181D01*
X61468Y-45143D01*
X61523Y-45087D01*
X61578Y-45142D01*
X61670Y-45181D01*
X61769Y-45181D01*
X62360Y-45181D01*
X62452Y-45143D01*
X62507Y-45087D01*
X62562Y-45142D01*
X62654Y-45181D01*
X62754Y-45181D01*
X63344Y-45181D01*
X63436Y-45143D01*
X63492Y-45087D01*
X63547Y-45142D01*
X63639Y-45181D01*
X63738Y-45181D01*
X64329Y-45181D01*
X64420Y-45143D01*
X64476Y-45087D01*
X64531Y-45142D01*
X64623Y-45181D01*
X64722Y-45181D01*
X65313Y-45181D01*
X65405Y-45143D01*
X65460Y-45087D01*
X65515Y-45142D01*
X65607Y-45181D01*
X65706Y-45181D01*
X66297Y-45181D01*
X66389Y-45143D01*
X66459Y-45072D01*
X66497Y-44981D01*
X66498Y-44881D01*
X66498Y-42519D01*
X66460Y-42427D01*
X66389Y-42357D01*
X66303Y-42321D01*
X66524Y-42100D01*
X67400Y-42100D01*
X67400Y-42099D01*
X67514Y-42077D01*
X67514Y-42077D01*
X67612Y-42012D01*
X68512Y-41112D01*
X68512Y-41112D01*
X68577Y-41014D01*
X68599Y-40900D01*
X68600Y-40900D01*
X68600Y-34400D01*
X68600Y-31500D01*
X68600Y-30528D01*
X68641Y-30545D01*
X68857Y-30545D01*
X69058Y-30462D01*
X69211Y-30309D01*
X69295Y-30108D01*
X69295Y-29892D01*
X69212Y-29691D01*
X69059Y-29538D01*
X68858Y-29454D01*
X68642Y-29454D01*
X68600Y-29471D01*
X68600Y-29101D01*
X68660Y-29041D01*
X68724Y-28884D01*
X68725Y-28715D01*
X68660Y-28559D01*
X68541Y-28439D01*
X68384Y-28375D01*
X68215Y-28374D01*
X68059Y-28439D01*
X67939Y-28558D01*
X67875Y-28715D01*
X67874Y-28884D01*
X67939Y-29040D01*
X68000Y-29101D01*
X68000Y-29513D01*
X67858Y-29454D01*
X67642Y-29454D01*
X67500Y-29513D01*
X67500Y-27524D01*
X68707Y-26317D01*
X68710Y-26386D01*
X68772Y-26535D01*
X68867Y-26561D01*
X69179Y-26250D01*
X69173Y-26244D01*
X69244Y-26173D01*
X69250Y-26179D01*
X69561Y-25867D01*
X69535Y-25772D01*
X69330Y-25699D01*
X69324Y-25700D01*
X69415Y-25608D01*
X69614Y-25526D01*
X69795Y-25345D01*
X69893Y-25109D01*
X69893Y-24853D01*
X69893Y-27151D01*
X69800Y-27057D01*
X69800Y-26330D01*
X69789Y-26113D01*
X69727Y-25964D01*
X69632Y-25938D01*
X69320Y-26250D01*
X69632Y-26561D01*
X69727Y-26535D01*
X69800Y-26330D01*
X69800Y-27057D01*
X69797Y-27055D01*
X69604Y-26975D01*
X69561Y-26975D01*
X69561Y-26632D01*
X69250Y-26320D01*
X68938Y-26632D01*
X68964Y-26727D01*
X69169Y-26800D01*
X69386Y-26789D01*
X69535Y-26727D01*
X69561Y-26632D01*
X69561Y-26975D01*
X69396Y-26974D01*
X69203Y-27054D01*
X69055Y-27202D01*
X68975Y-27395D01*
X68974Y-27603D01*
X69054Y-27797D01*
X69202Y-27944D01*
X69395Y-28024D01*
X69603Y-28025D01*
X69797Y-27945D01*
X69944Y-27797D01*
X69950Y-27785D01*
X69950Y-46950D01*
X69950Y-46950D01*
G37*
G54D22*
X69950Y-46950D02*
X68906Y-46950D01*
X68906Y-44842D01*
X68763Y-44496D01*
X68499Y-44232D01*
X68275Y-44139D01*
X68275Y-42975D01*
X68275Y-42425D01*
X68237Y-42333D01*
X68166Y-42263D01*
X68074Y-42225D01*
X67975Y-42224D01*
X67425Y-42224D01*
X67333Y-42262D01*
X67263Y-42333D01*
X67225Y-42425D01*
X67224Y-42524D01*
X67224Y-43074D01*
X67262Y-43166D01*
X67333Y-43236D01*
X67425Y-43274D01*
X67524Y-43275D01*
X68074Y-43275D01*
X68166Y-43237D01*
X68236Y-43166D01*
X68274Y-43074D01*
X68275Y-42975D01*
X68275Y-44139D01*
X68154Y-44089D01*
X67781Y-44088D01*
X67435Y-44231D01*
X67171Y-44495D01*
X67028Y-44840D01*
X67027Y-45213D01*
X67170Y-45559D01*
X67434Y-45823D01*
X67779Y-45966D01*
X68152Y-45967D01*
X68498Y-45824D01*
X68762Y-45560D01*
X68905Y-45215D01*
X68906Y-44842D01*
X68906Y-46950D01*
X60981Y-46950D01*
X60981Y-45118D01*
X60981Y-43800D01*
X60981Y-43700D01*
X60981Y-42381D01*
X60918Y-42318D01*
X60686Y-42318D01*
X60594Y-42356D01*
X60524Y-42427D01*
X60486Y-42518D01*
X60486Y-42618D01*
X60486Y-43637D01*
X60548Y-43700D01*
X60981Y-43700D01*
X60981Y-43800D01*
X60548Y-43800D01*
X60486Y-43862D01*
X60486Y-44881D01*
X60486Y-44981D01*
X60524Y-45072D01*
X60594Y-45143D01*
X60686Y-45181D01*
X60918Y-45181D01*
X60981Y-45118D01*
X60981Y-46950D01*
X53981Y-46950D01*
X53981Y-45118D01*
X53981Y-43800D01*
X53981Y-43700D01*
X53981Y-42381D01*
X53918Y-42318D01*
X53686Y-42318D01*
X53594Y-42356D01*
X53524Y-42427D01*
X53486Y-42518D01*
X53486Y-42618D01*
X53486Y-43637D01*
X53548Y-43700D01*
X53981Y-43700D01*
X53981Y-43800D01*
X53548Y-43800D01*
X53486Y-43862D01*
X53486Y-44881D01*
X53486Y-44981D01*
X53524Y-45072D01*
X53594Y-45143D01*
X53686Y-45181D01*
X53918Y-45181D01*
X53981Y-45118D01*
X53981Y-46950D01*
X53158Y-46950D01*
X53158Y-44842D01*
X53015Y-44496D01*
X52751Y-44232D01*
X52406Y-44089D01*
X52033Y-44088D01*
X51687Y-44231D01*
X51423Y-44495D01*
X51280Y-44840D01*
X51279Y-45213D01*
X51422Y-45559D01*
X51686Y-45823D01*
X52031Y-45966D01*
X52404Y-45967D01*
X52750Y-45824D01*
X53014Y-45560D01*
X53157Y-45215D01*
X53158Y-44842D01*
X53158Y-46950D01*
X50300Y-46950D01*
X50300Y-43938D01*
X51640Y-43938D01*
X51640Y-41661D01*
X50300Y-41661D01*
X50300Y-15550D01*
X69950Y-15550D01*
X69950Y-19303D01*
X69885Y-19284D01*
X69815Y-19355D01*
X69815Y-19214D01*
X69787Y-19118D01*
X69581Y-19045D01*
X69363Y-19056D01*
X69212Y-19118D01*
X69184Y-19214D01*
X69500Y-19529D01*
X69815Y-19214D01*
X69815Y-19355D01*
X69570Y-19600D01*
X69885Y-19915D01*
X69950Y-19896D01*
X69950Y-27214D01*
X69945Y-27203D01*
X69897Y-27155D01*
X69897Y-21085D01*
X69888Y-20829D01*
X69815Y-20652D01*
X69815Y-19985D01*
X69500Y-19670D01*
X69184Y-19985D01*
X69212Y-20081D01*
X69418Y-20154D01*
X69636Y-20143D01*
X69787Y-20081D01*
X69815Y-19985D01*
X69815Y-20652D01*
X69808Y-20636D01*
X69703Y-20598D01*
X69632Y-20668D01*
X69320Y-20981D01*
X69703Y-21363D01*
X69808Y-21325D01*
X69897Y-21085D01*
X69897Y-27155D01*
X69893Y-27151D01*
X69893Y-24853D01*
X69795Y-24616D01*
X69632Y-24453D01*
X69632Y-21434D01*
X69250Y-21051D01*
X68867Y-21434D01*
X68905Y-21539D01*
X69145Y-21628D01*
X69401Y-21619D01*
X69594Y-21539D01*
X69632Y-21434D01*
X69632Y-24453D01*
X69614Y-24435D01*
X69378Y-24337D01*
X69122Y-24337D01*
X68885Y-24435D01*
X68704Y-24616D01*
X68627Y-24802D01*
X68545Y-24604D01*
X68364Y-24423D01*
X68128Y-24325D01*
X67872Y-24325D01*
X67635Y-24423D01*
X67454Y-24604D01*
X67374Y-24796D01*
X67295Y-24604D01*
X67132Y-24441D01*
X67132Y-21422D01*
X66750Y-21039D01*
X66679Y-21110D01*
X66679Y-20969D01*
X66296Y-20586D01*
X66191Y-20624D01*
X66102Y-20864D01*
X66111Y-21120D01*
X66191Y-21313D01*
X66296Y-21351D01*
X66679Y-20969D01*
X66679Y-21110D01*
X66367Y-21422D01*
X66405Y-21527D01*
X66645Y-21616D01*
X66901Y-21607D01*
X67094Y-21527D01*
X67132Y-21422D01*
X67132Y-24441D01*
X67114Y-24423D01*
X66878Y-24325D01*
X66622Y-24325D01*
X66385Y-24423D01*
X66204Y-24604D01*
X66200Y-24615D01*
X66200Y-24369D01*
X66177Y-24254D01*
X66112Y-24156D01*
X66112Y-24156D01*
X65928Y-23973D01*
X65928Y-22604D01*
X65919Y-22348D01*
X65839Y-22155D01*
X65734Y-22117D01*
X65663Y-22187D01*
X65663Y-22046D01*
X65625Y-21941D01*
X65385Y-21852D01*
X65129Y-21861D01*
X64936Y-21941D01*
X64898Y-22046D01*
X65281Y-22429D01*
X65663Y-22046D01*
X65663Y-22187D01*
X65351Y-22500D01*
X65734Y-22882D01*
X65839Y-22844D01*
X65928Y-22604D01*
X65928Y-23973D01*
X65897Y-23942D01*
X65924Y-23878D01*
X65924Y-23622D01*
X65826Y-23385D01*
X65645Y-23204D01*
X65459Y-23127D01*
X65625Y-23058D01*
X65663Y-22953D01*
X65281Y-22570D01*
X65210Y-22641D01*
X65210Y-22500D01*
X64827Y-22117D01*
X64722Y-22155D01*
X64633Y-22395D01*
X64642Y-22651D01*
X64722Y-22844D01*
X64827Y-22882D01*
X65210Y-22500D01*
X65210Y-22641D01*
X64898Y-22953D01*
X64936Y-23058D01*
X65111Y-23123D01*
X64916Y-23204D01*
X64735Y-23385D01*
X64637Y-23621D01*
X64637Y-23877D01*
X64735Y-24114D01*
X64916Y-24295D01*
X65102Y-24372D01*
X64904Y-24454D01*
X64723Y-24635D01*
X64625Y-24871D01*
X64625Y-25127D01*
X64723Y-25364D01*
X64904Y-25545D01*
X65102Y-25627D01*
X64916Y-25704D01*
X64735Y-25885D01*
X64637Y-26121D01*
X64637Y-26377D01*
X64735Y-26614D01*
X64800Y-26679D01*
X64787Y-26687D01*
X61987Y-29487D01*
X61977Y-29503D01*
X61937Y-29487D01*
X62212Y-29212D01*
X62212Y-29212D01*
X62277Y-29114D01*
X62299Y-29000D01*
X62300Y-29000D01*
X62300Y-26969D01*
X62277Y-26854D01*
X62212Y-26756D01*
X62212Y-26756D01*
X61897Y-26442D01*
X61924Y-26378D01*
X61924Y-26122D01*
X61826Y-25885D01*
X61645Y-25704D01*
X61447Y-25622D01*
X61633Y-25545D01*
X61814Y-25364D01*
X61912Y-25128D01*
X61912Y-24872D01*
X61814Y-24635D01*
X61633Y-24454D01*
X61447Y-24377D01*
X61645Y-24295D01*
X61826Y-24114D01*
X61924Y-23878D01*
X61924Y-23622D01*
X61826Y-23385D01*
X61645Y-23204D01*
X61581Y-23177D01*
X61581Y-23072D01*
X61645Y-23045D01*
X61826Y-22864D01*
X61924Y-22628D01*
X61924Y-22372D01*
X61826Y-22135D01*
X61645Y-21954D01*
X61409Y-21856D01*
X61153Y-21856D01*
X60925Y-21950D01*
X60925Y-21915D01*
X60877Y-21800D01*
X62250Y-21800D01*
X62250Y-21799D01*
X62364Y-21777D01*
X62364Y-21777D01*
X62462Y-21712D01*
X62634Y-21539D01*
X62811Y-21466D01*
X62965Y-21311D01*
X63049Y-21109D01*
X63050Y-20891D01*
X62966Y-20688D01*
X62831Y-20553D01*
X62831Y-19931D01*
X62876Y-19931D01*
X62968Y-19893D01*
X63023Y-19837D01*
X63078Y-19892D01*
X63170Y-19931D01*
X63269Y-19931D01*
X63860Y-19931D01*
X63952Y-19893D01*
X64007Y-19837D01*
X64062Y-19892D01*
X64154Y-19931D01*
X64254Y-19931D01*
X64844Y-19931D01*
X64936Y-19893D01*
X64992Y-19837D01*
X65047Y-19892D01*
X65139Y-19931D01*
X65184Y-19931D01*
X65184Y-20538D01*
X65050Y-20672D01*
X65050Y-20650D01*
X65012Y-20558D01*
X64941Y-20488D01*
X64849Y-20450D01*
X64750Y-20449D01*
X64150Y-20449D01*
X64058Y-20487D01*
X63988Y-20558D01*
X63950Y-20650D01*
X63949Y-20749D01*
X63949Y-21349D01*
X63987Y-21441D01*
X64058Y-21511D01*
X64150Y-21549D01*
X64249Y-21550D01*
X64849Y-21550D01*
X64941Y-21512D01*
X65011Y-21441D01*
X65049Y-21349D01*
X65049Y-21327D01*
X65188Y-21465D01*
X65390Y-21549D01*
X65608Y-21550D01*
X65811Y-21466D01*
X65965Y-21311D01*
X66049Y-21109D01*
X66050Y-20891D01*
X65966Y-20688D01*
X65811Y-20534D01*
X65784Y-20522D01*
X65784Y-19931D01*
X65829Y-19931D01*
X65920Y-19893D01*
X65976Y-19837D01*
X66031Y-19892D01*
X66123Y-19931D01*
X66222Y-19931D01*
X66813Y-19931D01*
X66905Y-19893D01*
X66975Y-19822D01*
X66986Y-19797D01*
X67033Y-19911D01*
X67188Y-20065D01*
X67390Y-20149D01*
X67608Y-20150D01*
X67811Y-20066D01*
X67965Y-19911D01*
X67999Y-19830D01*
X68033Y-19911D01*
X68188Y-20065D01*
X68200Y-20070D01*
X68200Y-20344D01*
X68192Y-20352D01*
X68128Y-20325D01*
X67872Y-20325D01*
X67635Y-20423D01*
X67454Y-20604D01*
X67377Y-20790D01*
X67308Y-20624D01*
X67203Y-20586D01*
X67132Y-20656D01*
X67132Y-20515D01*
X67094Y-20410D01*
X66854Y-20321D01*
X66598Y-20330D01*
X66405Y-20410D01*
X66367Y-20515D01*
X66750Y-20898D01*
X67132Y-20515D01*
X67132Y-20656D01*
X66820Y-20969D01*
X67203Y-21351D01*
X67308Y-21313D01*
X67373Y-21138D01*
X67454Y-21333D01*
X67635Y-21514D01*
X67871Y-21612D01*
X68127Y-21612D01*
X68364Y-21514D01*
X68545Y-21333D01*
X68620Y-21153D01*
X68691Y-21325D01*
X68796Y-21363D01*
X69179Y-20981D01*
X69173Y-20975D01*
X69244Y-20904D01*
X69250Y-20910D01*
X69632Y-20527D01*
X69594Y-20422D01*
X69354Y-20333D01*
X69098Y-20342D01*
X68905Y-20422D01*
X68867Y-20527D01*
X68822Y-20482D01*
X68791Y-20513D01*
X68799Y-20469D01*
X68800Y-20469D01*
X68800Y-20071D01*
X68811Y-20066D01*
X68965Y-19911D01*
X68997Y-19836D01*
X69018Y-19887D01*
X69114Y-19915D01*
X69429Y-19600D01*
X69114Y-19284D01*
X69018Y-19312D01*
X68999Y-19367D01*
X68966Y-19288D01*
X68906Y-19228D01*
X68906Y-17283D01*
X68763Y-16937D01*
X68499Y-16673D01*
X68154Y-16530D01*
X67781Y-16529D01*
X67435Y-16672D01*
X67171Y-16936D01*
X67028Y-17281D01*
X67027Y-17654D01*
X67170Y-18000D01*
X67434Y-18264D01*
X67779Y-18407D01*
X68152Y-18408D01*
X68498Y-18265D01*
X68762Y-18001D01*
X68905Y-17656D01*
X68906Y-17283D01*
X68906Y-19228D01*
X68811Y-19134D01*
X68609Y-19050D01*
X68391Y-19049D01*
X68188Y-19133D01*
X68034Y-19288D01*
X68000Y-19369D01*
X67966Y-19288D01*
X67811Y-19134D01*
X67609Y-19050D01*
X67391Y-19049D01*
X67188Y-19133D01*
X67034Y-19288D01*
X67013Y-19336D01*
X67013Y-17269D01*
X66975Y-17177D01*
X66905Y-17107D01*
X66813Y-17068D01*
X66714Y-17068D01*
X66123Y-17068D01*
X66031Y-17106D01*
X65976Y-17162D01*
X65921Y-17107D01*
X65829Y-17068D01*
X65730Y-17068D01*
X65139Y-17068D01*
X65047Y-17106D01*
X64992Y-17162D01*
X64937Y-17107D01*
X64845Y-17068D01*
X64745Y-17068D01*
X64155Y-17068D01*
X64063Y-17106D01*
X64007Y-17162D01*
X63952Y-17107D01*
X63860Y-17068D01*
X63761Y-17068D01*
X63170Y-17068D01*
X63079Y-17106D01*
X63023Y-17162D01*
X62968Y-17107D01*
X62876Y-17068D01*
X62777Y-17068D01*
X62186Y-17068D01*
X62094Y-17106D01*
X62039Y-17162D01*
X61983Y-17106D01*
X61892Y-17068D01*
X61659Y-17068D01*
X61597Y-17131D01*
X61597Y-18450D01*
X61605Y-18450D01*
X61605Y-18550D01*
X61597Y-18550D01*
X61597Y-19868D01*
X61659Y-19931D01*
X61892Y-19931D01*
X61983Y-19893D01*
X62039Y-19837D01*
X62094Y-19892D01*
X62186Y-19931D01*
X62231Y-19931D01*
X62231Y-20515D01*
X62188Y-20533D01*
X62050Y-20672D01*
X62050Y-20650D01*
X62012Y-20558D01*
X61941Y-20488D01*
X61849Y-20450D01*
X61750Y-20449D01*
X61497Y-20449D01*
X61497Y-19868D01*
X61497Y-18550D01*
X61497Y-18450D01*
X61497Y-17131D01*
X61434Y-17068D01*
X61202Y-17068D01*
X61110Y-17106D01*
X61040Y-17177D01*
X61002Y-17268D01*
X61001Y-17368D01*
X61001Y-18387D01*
X61064Y-18450D01*
X61497Y-18450D01*
X61497Y-18550D01*
X61064Y-18550D01*
X61001Y-18612D01*
X61001Y-19631D01*
X61002Y-19731D01*
X61040Y-19822D01*
X61110Y-19893D01*
X61202Y-19931D01*
X61434Y-19931D01*
X61497Y-19868D01*
X61497Y-20449D01*
X61150Y-20449D01*
X61058Y-20487D01*
X60988Y-20558D01*
X60950Y-20650D01*
X60949Y-20749D01*
X60949Y-21200D01*
X60250Y-21200D01*
X60135Y-21222D01*
X60050Y-21279D01*
X60050Y-21250D01*
X60050Y-20749D01*
X60049Y-20650D01*
X60013Y-20563D01*
X60013Y-19631D01*
X60013Y-17368D01*
X60013Y-17268D01*
X59975Y-17177D01*
X59905Y-17106D01*
X59813Y-17068D01*
X59581Y-17068D01*
X59518Y-17131D01*
X59518Y-18450D01*
X59951Y-18450D01*
X60013Y-18387D01*
X60013Y-17368D01*
X60013Y-19631D01*
X60013Y-18612D01*
X59951Y-18550D01*
X59518Y-18550D01*
X59518Y-19868D01*
X59581Y-19931D01*
X59813Y-19931D01*
X59905Y-19893D01*
X59975Y-19822D01*
X60013Y-19731D01*
X60013Y-19631D01*
X60013Y-20563D01*
X60011Y-20558D01*
X59941Y-20487D01*
X59849Y-20449D01*
X59612Y-20450D01*
X59550Y-20512D01*
X59550Y-20950D01*
X59987Y-20950D01*
X60050Y-20887D01*
X60050Y-20749D01*
X60050Y-21250D01*
X60050Y-21112D01*
X59987Y-21050D01*
X59550Y-21050D01*
X59550Y-21487D01*
X59612Y-21550D01*
X59779Y-21550D01*
X59722Y-21635D01*
X59701Y-21742D01*
X59580Y-21699D01*
X59363Y-21710D01*
X59214Y-21772D01*
X59188Y-21867D01*
X59500Y-22179D01*
X59505Y-22173D01*
X59576Y-22244D01*
X59570Y-22250D01*
X59576Y-22255D01*
X59505Y-22326D01*
X59500Y-22320D01*
X59188Y-22632D01*
X59214Y-22727D01*
X59419Y-22800D01*
X59636Y-22789D01*
X59700Y-22762D01*
X59700Y-23242D01*
X59580Y-23199D01*
X59363Y-23210D01*
X59214Y-23272D01*
X59188Y-23367D01*
X59500Y-23679D01*
X59505Y-23673D01*
X59576Y-23744D01*
X59570Y-23750D01*
X59576Y-23755D01*
X59505Y-23826D01*
X59500Y-23820D01*
X59188Y-24132D01*
X59214Y-24227D01*
X59419Y-24300D01*
X59636Y-24289D01*
X59700Y-24262D01*
X59700Y-25724D01*
X59175Y-25724D01*
X59083Y-25762D01*
X59013Y-25833D01*
X58975Y-25925D01*
X58974Y-26013D01*
X58937Y-26037D01*
X58537Y-26437D01*
X58472Y-26535D01*
X58450Y-26650D01*
X58450Y-27000D01*
X58450Y-32033D01*
X58441Y-32037D01*
X58288Y-32190D01*
X58250Y-32282D01*
X58212Y-32191D01*
X58059Y-32038D01*
X58050Y-32034D01*
X58050Y-28750D01*
X58027Y-28635D01*
X57962Y-28537D01*
X57962Y-28537D01*
X57844Y-28420D01*
X57990Y-28360D01*
X58110Y-28241D01*
X58174Y-28084D01*
X58175Y-27915D01*
X58110Y-27759D01*
X58050Y-27698D01*
X58050Y-27250D01*
X58050Y-26374D01*
X58962Y-25462D01*
X58962Y-25462D01*
X59027Y-25364D01*
X59049Y-25250D01*
X59050Y-25250D01*
X59050Y-24042D01*
X59117Y-24061D01*
X59429Y-23750D01*
X59117Y-23438D01*
X59050Y-23457D01*
X59050Y-22542D01*
X59117Y-22561D01*
X59429Y-22250D01*
X59117Y-21938D01*
X59050Y-21957D01*
X59050Y-21750D01*
X59027Y-21635D01*
X58962Y-21537D01*
X58962Y-21537D01*
X58851Y-21426D01*
X58950Y-21327D01*
X58950Y-21349D01*
X58988Y-21441D01*
X59058Y-21512D01*
X59150Y-21550D01*
X59387Y-21550D01*
X59450Y-21487D01*
X59450Y-21050D01*
X59442Y-21050D01*
X59442Y-20950D01*
X59450Y-20950D01*
X59450Y-20512D01*
X59387Y-20450D01*
X59150Y-20449D01*
X59058Y-20487D01*
X58988Y-20558D01*
X58950Y-20650D01*
X58950Y-20672D01*
X58811Y-20534D01*
X58784Y-20522D01*
X58784Y-19931D01*
X58829Y-19931D01*
X58920Y-19893D01*
X58976Y-19837D01*
X59031Y-19893D01*
X59123Y-19931D01*
X59356Y-19931D01*
X59418Y-19868D01*
X59418Y-18550D01*
X59410Y-18550D01*
X59410Y-18450D01*
X59418Y-18450D01*
X59418Y-17131D01*
X59356Y-17068D01*
X59123Y-17068D01*
X59031Y-17106D01*
X58976Y-17162D01*
X58921Y-17107D01*
X58829Y-17068D01*
X58730Y-17068D01*
X58139Y-17068D01*
X58047Y-17106D01*
X57992Y-17162D01*
X57937Y-17107D01*
X57845Y-17068D01*
X57745Y-17068D01*
X57155Y-17068D01*
X57063Y-17106D01*
X57007Y-17162D01*
X56952Y-17107D01*
X56860Y-17068D01*
X56761Y-17068D01*
X56170Y-17068D01*
X56079Y-17106D01*
X56023Y-17162D01*
X55968Y-17107D01*
X55876Y-17068D01*
X55777Y-17068D01*
X55186Y-17068D01*
X55094Y-17106D01*
X55039Y-17162D01*
X54984Y-17107D01*
X54892Y-17068D01*
X54793Y-17068D01*
X54202Y-17068D01*
X54110Y-17106D01*
X54040Y-17177D01*
X54002Y-17268D01*
X54001Y-17368D01*
X54001Y-19577D01*
X53243Y-18818D01*
X53145Y-18753D01*
X53076Y-18739D01*
X53045Y-18666D01*
X52864Y-18485D01*
X52628Y-18387D01*
X52455Y-18387D01*
X52750Y-18265D01*
X53014Y-18001D01*
X53157Y-17656D01*
X53158Y-17283D01*
X53015Y-16937D01*
X52751Y-16673D01*
X52406Y-16530D01*
X52033Y-16529D01*
X51687Y-16672D01*
X51423Y-16936D01*
X51280Y-17281D01*
X51279Y-17654D01*
X51422Y-18000D01*
X51686Y-18264D01*
X52031Y-18407D01*
X52322Y-18408D01*
X52135Y-18485D01*
X51954Y-18666D01*
X51856Y-18902D01*
X51856Y-19158D01*
X51954Y-19395D01*
X52135Y-19576D01*
X52371Y-19674D01*
X52627Y-19674D01*
X52864Y-19576D01*
X53008Y-19432D01*
X54037Y-20462D01*
X54037Y-20462D01*
X54135Y-20527D01*
X54185Y-20537D01*
X54034Y-20688D01*
X53950Y-20890D01*
X53949Y-21108D01*
X54033Y-21311D01*
X54188Y-21465D01*
X54269Y-21499D01*
X54188Y-21533D01*
X54034Y-21688D01*
X54029Y-21700D01*
X53750Y-21700D01*
X53635Y-21722D01*
X53537Y-21787D01*
X53037Y-22287D01*
X52972Y-22385D01*
X52950Y-22500D01*
X52950Y-22570D01*
X52864Y-22485D01*
X52628Y-22387D01*
X52372Y-22387D01*
X52135Y-22485D01*
X51954Y-22666D01*
X51856Y-22902D01*
X51856Y-23158D01*
X51883Y-23223D01*
X51787Y-23318D01*
X51722Y-23416D01*
X51700Y-23531D01*
X51700Y-24028D01*
X51688Y-24033D01*
X51647Y-24074D01*
X51647Y-19073D01*
X51638Y-18817D01*
X51558Y-18624D01*
X51453Y-18586D01*
X51382Y-18656D01*
X51382Y-18515D01*
X51344Y-18410D01*
X51104Y-18321D01*
X50848Y-18330D01*
X50655Y-18410D01*
X50617Y-18515D01*
X51000Y-18898D01*
X51382Y-18515D01*
X51382Y-18656D01*
X51070Y-18969D01*
X51453Y-19351D01*
X51558Y-19313D01*
X51647Y-19073D01*
X51647Y-24074D01*
X51643Y-24078D01*
X51643Y-22841D01*
X51545Y-22604D01*
X51382Y-22441D01*
X51382Y-19422D01*
X51000Y-19039D01*
X50929Y-19110D01*
X50929Y-18969D01*
X50546Y-18586D01*
X50441Y-18624D01*
X50352Y-18864D01*
X50361Y-19120D01*
X50441Y-19313D01*
X50546Y-19351D01*
X50929Y-18969D01*
X50929Y-19110D01*
X50617Y-19422D01*
X50655Y-19527D01*
X50895Y-19616D01*
X51151Y-19607D01*
X51344Y-19527D01*
X51382Y-19422D01*
X51382Y-22441D01*
X51364Y-22423D01*
X51128Y-22325D01*
X50872Y-22325D01*
X50635Y-22423D01*
X50454Y-22604D01*
X50356Y-22840D01*
X50356Y-23096D01*
X50454Y-23333D01*
X50635Y-23514D01*
X50871Y-23612D01*
X51127Y-23612D01*
X51364Y-23514D01*
X51545Y-23333D01*
X51643Y-23097D01*
X51643Y-22841D01*
X51643Y-24078D01*
X51534Y-24188D01*
X51502Y-24263D01*
X51481Y-24212D01*
X51385Y-24184D01*
X51315Y-24255D01*
X51315Y-24114D01*
X51287Y-24018D01*
X51081Y-23945D01*
X50863Y-23956D01*
X50712Y-24018D01*
X50684Y-24114D01*
X51000Y-24429D01*
X51315Y-24114D01*
X51315Y-24255D01*
X51070Y-24500D01*
X51385Y-24815D01*
X51481Y-24787D01*
X51500Y-24732D01*
X51533Y-24811D01*
X51688Y-24965D01*
X51890Y-25049D01*
X52108Y-25050D01*
X52311Y-24966D01*
X52465Y-24811D01*
X52499Y-24730D01*
X52533Y-24811D01*
X52688Y-24965D01*
X52809Y-25016D01*
X52787Y-25037D01*
X52722Y-25135D01*
X52700Y-25250D01*
X52700Y-27028D01*
X52688Y-27033D01*
X52534Y-27188D01*
X52502Y-27263D01*
X52481Y-27212D01*
X52385Y-27184D01*
X52315Y-27255D01*
X52315Y-27114D01*
X52287Y-27018D01*
X52081Y-26945D01*
X51863Y-26956D01*
X51712Y-27018D01*
X51684Y-27114D01*
X52000Y-27429D01*
X52315Y-27114D01*
X52315Y-27255D01*
X52070Y-27500D01*
X52385Y-27815D01*
X52481Y-27787D01*
X52500Y-27732D01*
X52533Y-27811D01*
X52688Y-27965D01*
X52700Y-27970D01*
X52700Y-28281D01*
X52709Y-28330D01*
X52614Y-28235D01*
X52378Y-28137D01*
X52315Y-28137D01*
X52315Y-27885D01*
X52000Y-27570D01*
X51929Y-27641D01*
X51929Y-27500D01*
X51614Y-27184D01*
X51518Y-27212D01*
X51499Y-27267D01*
X51466Y-27188D01*
X51315Y-27037D01*
X51315Y-24885D01*
X51000Y-24570D01*
X50929Y-24641D01*
X50929Y-24500D01*
X50614Y-24184D01*
X50518Y-24212D01*
X50445Y-24418D01*
X50456Y-24636D01*
X50518Y-24787D01*
X50614Y-24815D01*
X50929Y-24500D01*
X50929Y-24641D01*
X50684Y-24885D01*
X50712Y-24981D01*
X50918Y-25054D01*
X51136Y-25043D01*
X51287Y-24981D01*
X51315Y-24885D01*
X51315Y-27037D01*
X51311Y-27034D01*
X51109Y-26950D01*
X50891Y-26949D01*
X50688Y-27033D01*
X50534Y-27188D01*
X50450Y-27390D01*
X50449Y-27608D01*
X50533Y-27811D01*
X50688Y-27965D01*
X50890Y-28049D01*
X51108Y-28050D01*
X51311Y-27966D01*
X51465Y-27811D01*
X51497Y-27736D01*
X51518Y-27787D01*
X51614Y-27815D01*
X51929Y-27500D01*
X51929Y-27641D01*
X51684Y-27885D01*
X51712Y-27981D01*
X51918Y-28054D01*
X52136Y-28043D01*
X52287Y-27981D01*
X52315Y-27885D01*
X52315Y-28137D01*
X52122Y-28137D01*
X51885Y-28235D01*
X51704Y-28416D01*
X51624Y-28608D01*
X51545Y-28416D01*
X51364Y-28235D01*
X51128Y-28137D01*
X50872Y-28137D01*
X50635Y-28235D01*
X50454Y-28416D01*
X50356Y-28652D01*
X50356Y-28908D01*
X50454Y-29145D01*
X50635Y-29326D01*
X50700Y-29353D01*
X50700Y-31000D01*
X50722Y-31114D01*
X50787Y-31212D01*
X51300Y-31724D01*
X51300Y-32205D01*
X51104Y-32133D01*
X50848Y-32142D01*
X50655Y-32222D01*
X50617Y-32327D01*
X51000Y-32710D01*
X51005Y-32704D01*
X51076Y-32775D01*
X51070Y-32781D01*
X51076Y-32786D01*
X51005Y-32857D01*
X51000Y-32851D01*
X50929Y-32922D01*
X50929Y-32781D01*
X50546Y-32398D01*
X50441Y-32436D01*
X50352Y-32676D01*
X50361Y-32932D01*
X50441Y-33125D01*
X50546Y-33163D01*
X50929Y-32781D01*
X50929Y-32922D01*
X50617Y-33234D01*
X50655Y-33339D01*
X50895Y-33428D01*
X51151Y-33419D01*
X51300Y-33357D01*
X51300Y-35175D01*
X50487Y-35987D01*
X50422Y-36085D01*
X50400Y-36200D01*
X50400Y-39900D01*
X50422Y-40014D01*
X50487Y-40112D01*
X50775Y-40399D01*
X50774Y-40484D01*
X50839Y-40640D01*
X50958Y-40760D01*
X51115Y-40824D01*
X51284Y-40825D01*
X51440Y-40760D01*
X51560Y-40641D01*
X51624Y-40484D01*
X51625Y-40315D01*
X51560Y-40159D01*
X51441Y-40039D01*
X51284Y-39975D01*
X51199Y-39974D01*
X51000Y-39775D01*
X51000Y-37244D01*
X51168Y-37304D01*
X51386Y-37293D01*
X51537Y-37231D01*
X51565Y-37135D01*
X51250Y-36820D01*
X51244Y-36826D01*
X51173Y-36755D01*
X51179Y-36750D01*
X51173Y-36744D01*
X51244Y-36673D01*
X51250Y-36679D01*
X51565Y-36364D01*
X51537Y-36268D01*
X51331Y-36195D01*
X51118Y-36205D01*
X51812Y-35512D01*
X51812Y-35512D01*
X51822Y-35496D01*
X51950Y-35624D01*
X51950Y-36278D01*
X51938Y-36283D01*
X51784Y-36438D01*
X51752Y-36513D01*
X51731Y-36462D01*
X51635Y-36434D01*
X51320Y-36750D01*
X51635Y-37065D01*
X51731Y-37037D01*
X51750Y-36982D01*
X51783Y-37061D01*
X51938Y-37215D01*
X52140Y-37299D01*
X52358Y-37300D01*
X52561Y-37216D01*
X52715Y-37061D01*
X52749Y-36980D01*
X52783Y-37061D01*
X52938Y-37215D01*
X53140Y-37299D01*
X53358Y-37300D01*
X53561Y-37216D01*
X53715Y-37061D01*
X53799Y-36859D01*
X53800Y-36641D01*
X53716Y-36438D01*
X53561Y-36284D01*
X53550Y-36279D01*
X53550Y-36000D01*
X53549Y-35999D01*
X53527Y-35885D01*
X53462Y-35787D01*
X53462Y-35787D01*
X52800Y-35125D01*
X52800Y-34971D01*
X52811Y-34966D01*
X52949Y-34827D01*
X52949Y-34849D01*
X52987Y-34941D01*
X53058Y-35011D01*
X53150Y-35049D01*
X53249Y-35050D01*
X53849Y-35050D01*
X53941Y-35012D01*
X54011Y-34941D01*
X54049Y-34849D01*
X54050Y-34750D01*
X54050Y-34150D01*
X54012Y-34058D01*
X53941Y-33988D01*
X53849Y-33950D01*
X53800Y-33950D01*
X53800Y-33353D01*
X53864Y-33326D01*
X54045Y-33145D01*
X54143Y-32909D01*
X54143Y-32653D01*
X54045Y-32416D01*
X53864Y-32235D01*
X53628Y-32137D01*
X53372Y-32137D01*
X53135Y-32235D01*
X52954Y-32416D01*
X52874Y-32608D01*
X52795Y-32416D01*
X52614Y-32235D01*
X52378Y-32137D01*
X52122Y-32137D01*
X51900Y-32229D01*
X51900Y-31600D01*
X51877Y-31485D01*
X51812Y-31387D01*
X51812Y-31387D01*
X51300Y-30875D01*
X51300Y-29353D01*
X51364Y-29326D01*
X51545Y-29145D01*
X51625Y-28953D01*
X51704Y-29145D01*
X51885Y-29326D01*
X52121Y-29424D01*
X52377Y-29424D01*
X52614Y-29326D01*
X52795Y-29145D01*
X52875Y-28953D01*
X52954Y-29145D01*
X53135Y-29326D01*
X53371Y-29424D01*
X53627Y-29424D01*
X53864Y-29326D01*
X54045Y-29145D01*
X54143Y-28909D01*
X54143Y-28653D01*
X54045Y-28416D01*
X53864Y-28235D01*
X53628Y-28137D01*
X53372Y-28137D01*
X53307Y-28164D01*
X53300Y-28156D01*
X53300Y-27971D01*
X53311Y-27966D01*
X53465Y-27811D01*
X53549Y-27609D01*
X53550Y-27391D01*
X53466Y-27188D01*
X53311Y-27034D01*
X53300Y-27029D01*
X53300Y-25374D01*
X53700Y-24974D01*
X53699Y-25108D01*
X53783Y-25311D01*
X53938Y-25465D01*
X54019Y-25499D01*
X53938Y-25533D01*
X53784Y-25688D01*
X53700Y-25890D01*
X53699Y-26108D01*
X53783Y-26311D01*
X53938Y-26465D01*
X54019Y-26499D01*
X53938Y-26533D01*
X53784Y-26688D01*
X53700Y-26890D01*
X53699Y-27108D01*
X53783Y-27311D01*
X53938Y-27465D01*
X54140Y-27549D01*
X54358Y-27550D01*
X54561Y-27466D01*
X54715Y-27311D01*
X54722Y-27295D01*
X54814Y-27277D01*
X54814Y-27277D01*
X54912Y-27212D01*
X55212Y-26912D01*
X55212Y-26912D01*
X55277Y-26814D01*
X55299Y-26700D01*
X55300Y-26700D01*
X55300Y-24874D01*
X55416Y-24757D01*
X55356Y-24902D01*
X55356Y-25158D01*
X55454Y-25395D01*
X55635Y-25576D01*
X55857Y-25668D01*
X55537Y-25987D01*
X55472Y-26085D01*
X55450Y-26200D01*
X55450Y-26500D01*
X55450Y-28000D01*
X55472Y-28114D01*
X55537Y-28212D01*
X55787Y-28462D01*
X55787Y-28462D01*
X55885Y-28527D01*
X55974Y-28545D01*
X55974Y-28574D01*
X56012Y-28666D01*
X56083Y-28736D01*
X56114Y-28749D01*
X56083Y-28762D01*
X56013Y-28833D01*
X55975Y-28925D01*
X55974Y-29024D01*
X55974Y-29574D01*
X56012Y-29666D01*
X56083Y-29736D01*
X56175Y-29774D01*
X56204Y-29774D01*
X56222Y-29864D01*
X56287Y-29962D01*
X56450Y-30124D01*
X56450Y-32033D01*
X56441Y-32037D01*
X56288Y-32190D01*
X56250Y-32282D01*
X56212Y-32191D01*
X56059Y-32038D01*
X55858Y-31954D01*
X55642Y-31954D01*
X55441Y-32037D01*
X55288Y-32190D01*
X55250Y-32282D01*
X55212Y-32191D01*
X55059Y-32038D01*
X54858Y-31954D01*
X54642Y-31954D01*
X54441Y-32037D01*
X54288Y-32190D01*
X54204Y-32391D01*
X54204Y-32607D01*
X54287Y-32808D01*
X54440Y-32961D01*
X54532Y-32999D01*
X54441Y-33037D01*
X54288Y-33190D01*
X54204Y-33391D01*
X54204Y-33607D01*
X54287Y-33808D01*
X54440Y-33961D01*
X54532Y-33999D01*
X54441Y-34037D01*
X54288Y-34190D01*
X54204Y-34391D01*
X54204Y-34607D01*
X54287Y-34808D01*
X54440Y-34961D01*
X54525Y-34997D01*
X54464Y-35022D01*
X54438Y-35117D01*
X54750Y-35429D01*
X55061Y-35117D01*
X55035Y-35022D01*
X54969Y-34999D01*
X55058Y-34962D01*
X55211Y-34809D01*
X55249Y-34717D01*
X55287Y-34808D01*
X55440Y-34961D01*
X55532Y-34999D01*
X55441Y-35037D01*
X55288Y-35190D01*
X55252Y-35275D01*
X55227Y-35214D01*
X55132Y-35188D01*
X54820Y-35500D01*
X55132Y-35811D01*
X55227Y-35785D01*
X55250Y-35719D01*
X55287Y-35808D01*
X55440Y-35961D01*
X55525Y-35997D01*
X55464Y-36022D01*
X55438Y-36117D01*
X55750Y-36429D01*
X55755Y-36423D01*
X55826Y-36494D01*
X55820Y-36500D01*
X55826Y-36505D01*
X55755Y-36576D01*
X55750Y-36570D01*
X55438Y-36882D01*
X55464Y-36977D01*
X55669Y-37050D01*
X55886Y-37039D01*
X55950Y-37012D01*
X55950Y-37698D01*
X55889Y-37758D01*
X55825Y-37915D01*
X55825Y-37954D01*
X55642Y-37954D01*
X55441Y-38037D01*
X55288Y-38190D01*
X55250Y-38282D01*
X55212Y-38191D01*
X55059Y-38038D01*
X54967Y-38000D01*
X55058Y-37962D01*
X55211Y-37809D01*
X55295Y-37608D01*
X55295Y-37392D01*
X55212Y-37191D01*
X55059Y-37038D01*
X54967Y-37000D01*
X55058Y-36962D01*
X55211Y-36809D01*
X55247Y-36724D01*
X55272Y-36785D01*
X55367Y-36811D01*
X55679Y-36500D01*
X55367Y-36188D01*
X55272Y-36214D01*
X55249Y-36280D01*
X55212Y-36191D01*
X55059Y-36038D01*
X54974Y-36002D01*
X55035Y-35977D01*
X55061Y-35882D01*
X54750Y-35570D01*
X54679Y-35641D01*
X54679Y-35500D01*
X54367Y-35188D01*
X54272Y-35214D01*
X54199Y-35419D01*
X54210Y-35636D01*
X54272Y-35785D01*
X54367Y-35811D01*
X54679Y-35500D01*
X54679Y-35641D01*
X54438Y-35882D01*
X54464Y-35977D01*
X54530Y-36000D01*
X54441Y-36037D01*
X54288Y-36190D01*
X54204Y-36391D01*
X54204Y-36607D01*
X54287Y-36808D01*
X54440Y-36961D01*
X54532Y-36999D01*
X54441Y-37037D01*
X54288Y-37190D01*
X54204Y-37391D01*
X54204Y-37607D01*
X54287Y-37808D01*
X54440Y-37961D01*
X54532Y-37999D01*
X54441Y-38037D01*
X54288Y-38190D01*
X54204Y-38391D01*
X54204Y-38607D01*
X54287Y-38808D01*
X54440Y-38961D01*
X54641Y-39045D01*
X54857Y-39045D01*
X55058Y-38962D01*
X55211Y-38809D01*
X55249Y-38717D01*
X55287Y-38808D01*
X55440Y-38961D01*
X55450Y-38965D01*
X55450Y-41375D01*
X54803Y-42022D01*
X54738Y-42119D01*
X54715Y-42234D01*
X54715Y-42318D01*
X54670Y-42318D01*
X54579Y-42356D01*
X54523Y-42412D01*
X54468Y-42356D01*
X54376Y-42318D01*
X54143Y-42318D01*
X54081Y-42381D01*
X54081Y-43700D01*
X54089Y-43700D01*
X54089Y-43800D01*
X54081Y-43800D01*
X54081Y-45118D01*
X54143Y-45181D01*
X54376Y-45181D01*
X54468Y-45143D01*
X54523Y-45087D01*
X54578Y-45142D01*
X54670Y-45181D01*
X54769Y-45181D01*
X55360Y-45181D01*
X55452Y-45143D01*
X55507Y-45087D01*
X55563Y-45143D01*
X55655Y-45181D01*
X55887Y-45181D01*
X55950Y-45118D01*
X55950Y-43800D01*
X55942Y-43800D01*
X55942Y-43700D01*
X55950Y-43700D01*
X55950Y-42381D01*
X55887Y-42318D01*
X55655Y-42318D01*
X55563Y-42356D01*
X55507Y-42412D01*
X55452Y-42357D01*
X55360Y-42318D01*
X55355Y-42318D01*
X55962Y-41712D01*
X55962Y-41712D01*
X56027Y-41614D01*
X56049Y-41500D01*
X56050Y-41500D01*
X56050Y-38966D01*
X56058Y-38962D01*
X56211Y-38809D01*
X56249Y-38717D01*
X56287Y-38808D01*
X56440Y-38961D01*
X56450Y-38965D01*
X56450Y-42000D01*
X56472Y-42114D01*
X56537Y-42212D01*
X56644Y-42318D01*
X56639Y-42318D01*
X56547Y-42356D01*
X56492Y-42412D01*
X56436Y-42356D01*
X56344Y-42318D01*
X56112Y-42318D01*
X56050Y-42381D01*
X56050Y-43700D01*
X56057Y-43700D01*
X56057Y-43800D01*
X56050Y-43800D01*
X56050Y-45118D01*
X56112Y-45181D01*
X56344Y-45181D01*
X56436Y-45143D01*
X56492Y-45087D01*
X56547Y-45142D01*
X56639Y-45181D01*
X56738Y-45181D01*
X57329Y-45181D01*
X57420Y-45143D01*
X57476Y-45087D01*
X57531Y-45143D01*
X57623Y-45181D01*
X57856Y-45181D01*
X57918Y-45118D01*
X57918Y-43800D01*
X57910Y-43800D01*
X57910Y-43700D01*
X57918Y-43700D01*
X57918Y-42381D01*
X57856Y-42318D01*
X57623Y-42318D01*
X57531Y-42356D01*
X57476Y-42412D01*
X57421Y-42357D01*
X57329Y-42318D01*
X57284Y-42318D01*
X57284Y-42234D01*
X57261Y-42119D01*
X57196Y-42022D01*
X57050Y-41875D01*
X57050Y-38966D01*
X57058Y-38962D01*
X57211Y-38809D01*
X57249Y-38717D01*
X57287Y-38808D01*
X57440Y-38961D01*
X57450Y-38965D01*
X57450Y-41000D01*
X57472Y-41114D01*
X57537Y-41212D01*
X58644Y-42318D01*
X58607Y-42318D01*
X58516Y-42356D01*
X58460Y-42412D01*
X58405Y-42356D01*
X58313Y-42318D01*
X58081Y-42318D01*
X58018Y-42381D01*
X58018Y-43700D01*
X58026Y-43700D01*
X58026Y-43800D01*
X58018Y-43800D01*
X58018Y-45118D01*
X58081Y-45181D01*
X58313Y-45181D01*
X58405Y-45143D01*
X58460Y-45087D01*
X58515Y-45142D01*
X58607Y-45181D01*
X58706Y-45181D01*
X59297Y-45181D01*
X59389Y-45143D01*
X59459Y-45072D01*
X59497Y-44981D01*
X59498Y-44881D01*
X59498Y-42519D01*
X59460Y-42427D01*
X59389Y-42357D01*
X59297Y-42318D01*
X59252Y-42318D01*
X59252Y-42202D01*
X59229Y-42087D01*
X59164Y-41990D01*
X59164Y-41990D01*
X58050Y-40875D01*
X58050Y-38966D01*
X58058Y-38962D01*
X58211Y-38809D01*
X58249Y-38717D01*
X58287Y-38808D01*
X58440Y-38961D01*
X58641Y-39045D01*
X58857Y-39045D01*
X59058Y-38962D01*
X59211Y-38809D01*
X59249Y-38717D01*
X59287Y-38808D01*
X59440Y-38961D01*
X59641Y-39045D01*
X59857Y-39045D01*
X60058Y-38962D01*
X60211Y-38809D01*
X60249Y-38717D01*
X60287Y-38808D01*
X60440Y-38961D01*
X60641Y-39045D01*
X60857Y-39045D01*
X61044Y-38968D01*
X61287Y-39212D01*
X61287Y-39212D01*
X61385Y-39277D01*
X61493Y-39298D01*
X61470Y-39322D01*
X61515Y-39367D01*
X61410Y-39405D01*
X61321Y-39645D01*
X61330Y-39901D01*
X61410Y-40094D01*
X61515Y-40132D01*
X61898Y-39750D01*
X61892Y-39744D01*
X61963Y-39673D01*
X61969Y-39679D01*
X61974Y-39673D01*
X62045Y-39744D01*
X62039Y-39750D01*
X62422Y-40132D01*
X62527Y-40094D01*
X62616Y-39854D01*
X62609Y-39668D01*
X62639Y-39740D01*
X62700Y-39801D01*
X62700Y-42318D01*
X62655Y-42318D01*
X62563Y-42356D01*
X62507Y-42412D01*
X62452Y-42357D01*
X62360Y-42318D01*
X62315Y-42318D01*
X62315Y-41552D01*
X62333Y-41545D01*
X62514Y-41364D01*
X62612Y-41128D01*
X62612Y-40872D01*
X62514Y-40635D01*
X62333Y-40454D01*
X62147Y-40377D01*
X62313Y-40308D01*
X62351Y-40203D01*
X61969Y-39820D01*
X61898Y-39891D01*
X61586Y-40203D01*
X61624Y-40308D01*
X61799Y-40373D01*
X61604Y-40454D01*
X61423Y-40635D01*
X61325Y-40871D01*
X61325Y-41127D01*
X61423Y-41364D01*
X61604Y-41545D01*
X61715Y-41591D01*
X61715Y-42318D01*
X61670Y-42318D01*
X61579Y-42356D01*
X61523Y-42412D01*
X61468Y-42356D01*
X61376Y-42318D01*
X61143Y-42318D01*
X61081Y-42381D01*
X61081Y-43700D01*
X61089Y-43700D01*
X61089Y-43800D01*
X61081Y-43800D01*
X61081Y-45118D01*
X61143Y-45181D01*
X61376Y-45181D01*
X61468Y-45143D01*
X61523Y-45087D01*
X61578Y-45142D01*
X61670Y-45181D01*
X61769Y-45181D01*
X62360Y-45181D01*
X62452Y-45143D01*
X62507Y-45087D01*
X62562Y-45142D01*
X62654Y-45181D01*
X62754Y-45181D01*
X63344Y-45181D01*
X63436Y-45143D01*
X63492Y-45087D01*
X63547Y-45142D01*
X63639Y-45181D01*
X63738Y-45181D01*
X64329Y-45181D01*
X64420Y-45143D01*
X64476Y-45087D01*
X64531Y-45142D01*
X64623Y-45181D01*
X64722Y-45181D01*
X65313Y-45181D01*
X65405Y-45143D01*
X65460Y-45087D01*
X65515Y-45142D01*
X65607Y-45181D01*
X65706Y-45181D01*
X66297Y-45181D01*
X66389Y-45143D01*
X66459Y-45072D01*
X66497Y-44981D01*
X66498Y-44881D01*
X66498Y-42519D01*
X66460Y-42427D01*
X66389Y-42357D01*
X66303Y-42321D01*
X66524Y-42100D01*
X67400Y-42100D01*
X67400Y-42099D01*
X67514Y-42077D01*
X67514Y-42077D01*
X67612Y-42012D01*
X68512Y-41112D01*
X68512Y-41112D01*
X68577Y-41014D01*
X68599Y-40900D01*
X68600Y-40900D01*
X68600Y-34400D01*
X68600Y-31500D01*
X68600Y-30528D01*
X68641Y-30545D01*
X68857Y-30545D01*
X69058Y-30462D01*
X69211Y-30309D01*
X69295Y-30108D01*
X69295Y-29892D01*
X69212Y-29691D01*
X69059Y-29538D01*
X68858Y-29454D01*
X68642Y-29454D01*
X68600Y-29471D01*
X68600Y-29101D01*
X68660Y-29041D01*
X68724Y-28884D01*
X68725Y-28715D01*
X68660Y-28559D01*
X68541Y-28439D01*
X68384Y-28375D01*
X68215Y-28374D01*
X68059Y-28439D01*
X67939Y-28558D01*
X67875Y-28715D01*
X67874Y-28884D01*
X67939Y-29040D01*
X68000Y-29101D01*
X68000Y-29513D01*
X67858Y-29454D01*
X67642Y-29454D01*
X67500Y-29513D01*
X67500Y-27524D01*
X68707Y-26317D01*
X68710Y-26386D01*
X68772Y-26535D01*
X68867Y-26561D01*
X69179Y-26250D01*
X69173Y-26244D01*
X69244Y-26173D01*
X69250Y-26179D01*
X69561Y-25867D01*
X69535Y-25772D01*
X69330Y-25699D01*
X69324Y-25700D01*
X69415Y-25608D01*
X69614Y-25526D01*
X69795Y-25345D01*
X69893Y-25109D01*
X69893Y-24853D01*
X69893Y-27151D01*
X69800Y-27057D01*
X69800Y-26330D01*
X69789Y-26113D01*
X69727Y-25964D01*
X69632Y-25938D01*
X69320Y-26250D01*
X69632Y-26561D01*
X69727Y-26535D01*
X69800Y-26330D01*
X69800Y-27057D01*
X69797Y-27055D01*
X69604Y-26975D01*
X69561Y-26975D01*
X69561Y-26632D01*
X69250Y-26320D01*
X68938Y-26632D01*
X68964Y-26727D01*
X69169Y-26800D01*
X69386Y-26789D01*
X69535Y-26727D01*
X69561Y-26632D01*
X69561Y-26975D01*
X69396Y-26974D01*
X69203Y-27054D01*
X69055Y-27202D01*
X68975Y-27395D01*
X68974Y-27603D01*
X69054Y-27797D01*
X69202Y-27944D01*
X69395Y-28024D01*
X69603Y-28025D01*
X69797Y-27945D01*
X69944Y-27797D01*
X69950Y-27785D01*
X69950Y-46950D01*
M02*
