M48
;DRILL file {Pcbnew (2013-07-07 BZR 4022)-stable} date 23.08.2017 13:54:44
;FORMAT={-:-/ absolute / metric / decimal}
FMAT,2
METRIC,TZ
T1C0.635
T2C0.800
T3C0.813
T4C1.000
T5C1.001
T6C1.016
%
G90
G05
M71
T1
X130.048Y-102.616
X142.875Y-96.52
X144.145Y-95.25
X146.05Y-64.77
X146.685Y-71.12
X148.082Y-67.056
X152.4Y-94.488
X153.67Y-55.88
X153.67Y-67.31
X154.432Y-95.25
X160.02Y-100.33
X161.798Y-101.092
X165.862Y-93.98
X167.386Y-65.024
X173.482Y-73.152
X175.514Y-95.504
T2
X146.05Y-56.515
X146.05Y-60.325
X151.13Y-56.515
X151.13Y-60.325
X170.815Y-66.675
X175.895Y-66.675
T3
X129.54Y-62.23
X129.54Y-69.85
X130.175Y-93.345
X132.08Y-62.23
X132.08Y-69.85
X132.715Y-93.345
X134.62Y-62.23
X134.62Y-69.85
X135.255Y-93.345
X137.795Y-63.5
X137.795Y-66.04
X137.795Y-68.58
X138.43Y-53.34
X138.43Y-55.88
X138.43Y-58.42
X143.51Y-66.675
X143.51Y-69.215
X143.51Y-71.755
X143.51Y-74.295
X151.13Y-66.675
X151.13Y-69.215
X151.13Y-71.755
X151.13Y-74.295
X168.91Y-69.85
X171.45Y-49.784
X172.085Y-100.965
X172.085Y-108.585
X173.99Y-49.784
X176.53Y-49.784
X176.53Y-69.85
T4
X137.24Y-111.125
X138.55Y-46.99
X139.065Y-82.55
X139.065Y-85.09
X139.065Y-87.63
X139.065Y-90.17
X139.065Y-92.71
X139.065Y-95.25
X139.065Y-97.79
X139.74Y-111.125
X141.05Y-46.99
X141.605Y-82.55
X141.605Y-85.09
X141.605Y-87.63
X141.605Y-90.17
X141.605Y-92.71
X141.605Y-97.79
X142.24Y-111.125
X143.55Y-46.99
X144.145Y-82.55
X144.145Y-97.79
X144.74Y-111.125
X146.05Y-46.99
X146.685Y-82.55
X146.685Y-92.71
X146.685Y-97.79
X147.24Y-111.125
X148.55Y-46.99
X149.225Y-82.55
X149.225Y-92.71
X149.225Y-97.79
X149.74Y-111.125
X151.05Y-46.99
X151.765Y-82.55
X151.765Y-92.71
X151.765Y-97.79
X154.305Y-82.55
X154.305Y-97.79
X155.02Y-111.125
X156.33Y-46.99
X156.845Y-76.2
X156.845Y-82.55
X156.845Y-85.09
X156.845Y-87.63
X156.845Y-90.17
X156.845Y-92.71
X156.845Y-97.79
X157.52Y-111.125
X158.83Y-46.99
X159.385Y-76.2
X159.385Y-82.55
X159.385Y-95.25
X159.385Y-97.79
X160.02Y-111.125
X161.33Y-46.99
X161.925Y-76.2
X161.925Y-82.55
X161.925Y-95.25
X161.925Y-97.79
X162.52Y-111.125
X163.83Y-46.99
X164.465Y-76.2
X164.465Y-82.55
X164.465Y-95.25
X164.465Y-97.79
X165.02Y-111.125
X166.33Y-46.99
X167.005Y-76.2
X167.005Y-82.55
X167.005Y-97.79
X167.52Y-111.125
X168.83Y-46.99
X169.545Y-76.2
X169.545Y-82.55
X169.545Y-95.25
X169.545Y-97.79
X172.085Y-76.2
X172.085Y-82.55
X172.085Y-97.79
X174.625Y-76.2
T5
X129.54Y-48.181
X129.54Y-58.341
X129.54Y-73.104
X129.54Y-83.264
X132.715Y-73.104
X132.715Y-83.264
X133.35Y-48.339
X133.35Y-58.499
X135.89Y-73.104
X135.89Y-83.264
X142.24Y-53.419
X142.24Y-63.579
X155.623Y-63.5
X155.623Y-73.152
X155.654Y-57.15
X155.654Y-60.325
X155.654Y-66.675
X155.654Y-69.85
X157.401Y-100.965
X157.401Y-104.14
X165.783Y-63.5
X165.783Y-73.152
X165.814Y-57.15
X165.814Y-60.325
X165.814Y-66.675
X165.814Y-69.85
X167.561Y-100.965
X167.561Y-104.14
X169.545Y-53.261
X169.545Y-63.421
X172.72Y-53.261
X172.72Y-63.421
X175.895Y-53.292
X175.895Y-63.452
T6
X133.35Y-87.63
X135.89Y-87.63
X146.05Y-53.34
X148.59Y-53.34
X151.13Y-53.34
X156.21Y-53.34
X158.75Y-53.34
X163.83Y-53.34
X166.37Y-53.34
T0
M30
